<?xml version="1.0" standalone="no"?>
<!DOCTYPE svg PUBLIC "-//W3C//DTD SVG 1.1//EN" "http://www.w3.org/Graphics/SVG/1.1/DTD/svg11.dtd" >
<svg xmlns="http://www.w3.org/2000/svg" xmlns:xlink="http://www.w3.org/1999/xlink" version="1.1">
<metadata>
Created by FontForge 20160407 at Mon Oct 10 20:10:52 2016
 By Jimmy Wärting
Copyright (c) 2011 by EdgarTolentino, PabloImpallari, IginoMarini. All rights reserved.
</metadata>
<defs>
<font id="Dosis-ExtraBold" horiz-adv-x="496" >
  <font-face 
    font-family="Dosis"
    font-weight="800"
    font-stretch="normal"
    units-per-em="1000"
    panose-1="2 1 9 3 2 2 2 6 0 3"
    ascent="800"
    descent="-200"
    x-height="476"
    cap-height="731"
    bbox="-130 -237 1132 1008"
    underline-thickness="26"
    underline-position="-51"
    unicode-range="U+000D-FB02"
  />
<missing-glyph horiz-adv-x="408" 
d="M136 236l-96 141q-6 8 -8 16t-2 16q0 23 19.5 38.5t42.5 15.5q28 0 44 -23l68 -115l68 115q16 23 44 23q23 0 42.5 -15.5t19.5 -38.5q0 -8 -2 -16t-8 -16l-96 -141l96 -141q6 -8 8 -16t2 -16q0 -23 -19.5 -38.5t-42.5 -15.5q-28 0 -44 23l-68 115l-68 -115
q-16 -23 -44 -23q-23 0 -42.5 15.5t-19.5 38.5q0 8 2 16t8 16z" />
    <glyph glyph-name="fi" unicode="fi" horiz-adv-x="590" 
d="M467 476q33 0 56 -13t23 -34v-381q0 -18 -23 -33t-56 -15t-54.5 15t-21.5 33v381q0 21 21.5 34t54.5 13zM309 618q-22 0 -41.5 -4.5t-34.5 -15t-23.5 -28.5t-8.5 -46v-48h92q19 0 28.5 -17.5t9.5 -37.5q0 -21 -9.5 -38t-28.5 -17h-92v-319q0 -21 -23.5 -34t-55.5 -13
t-54 13t-22 34v470q0 48 18.5 90t52.5 73.5t82.5 49.5t109.5 18q33 0 65 -5.5t57 -15t40.5 -23.5t15.5 -31q0 -7 -3 -22t-9.5 -30.5t-17 -27t-24.5 -11.5q-11 0 -20.5 5.5t-22.5 12.5t-32 12.5t-49 5.5z" />
    <glyph glyph-name="fl" unicode="fl" horiz-adv-x="602" 
d="M393 605q-11 6 -31 10t-40 4q-23 0 -44.5 -5.5t-38.5 -17.5t-27.5 -30t-10.5 -42v-48h92q19 0 28.5 -17.5t9.5 -37.5q0 -21 -9.5 -38t-28.5 -17h-92v-319q0 -21 -23.5 -34t-55.5 -13t-54 13t-22 34v470q0 56 23 99t62 72.5t90.5 44.5t107.5 15q28 0 59.5 -4t61.5 -11.5
t56 -19t42 -26.5v-639q0 -18 -23 -33t-56 -15t-54.5 15t-21.5 33v557z" />
    <glyph glyph-name=".notdef" horiz-adv-x="408" 
d="M136 236l-96 141q-6 8 -8 16t-2 16q0 23 19.5 38.5t42.5 15.5q28 0 44 -23l68 -115l68 115q16 23 44 23q23 0 42.5 -15.5t19.5 -38.5q0 -8 -2 -16t-8 -16l-96 -141l96 -141q6 -8 8 -16t2 -16q0 -23 -19.5 -38.5t-42.5 -15.5q-28 0 -44 23l-68 115l-68 -115
q-16 -23 -44 -23q-23 0 -42.5 15.5t-19.5 38.5q0 8 2 16t8 16z" />
    <glyph glyph-name="A" unicode="A" horiz-adv-x="589" 
d="M104 0q-16 0 -33.5 5t-32.5 13.5t-24.5 20t-9.5 25.5q0 3 2 11l186 610q8 26 37.5 39t64.5 13t64.5 -13t37.5 -39l187 -610q2 -8 2 -11q0 -14 -9.5 -25.5t-24.5 -20t-32.5 -13.5t-33.5 -5q-19 0 -32.5 6.5t-18.5 22.5l-34 125h-211l-34 -125q-5 -16 -18.5 -22.5
t-32.5 -6.5zM367 274l-73 268l-73 -268h146z" />
    <glyph glyph-name="AE" unicode="&#xc6;" horiz-adv-x="817" 
d="M530 426h108q23 0 35 -18.5t12 -42.5q0 -20 -11 -39.5t-36 -19.5h-108v-170h226q23 0 35 -20.5t12 -48.5q0 -24 -11 -45.5t-36 -21.5h-314q-26 0 -47 12t-21 36v258h-177v-253q0 -11 -2.5 -21t-10.5 -17t-23.5 -11t-41.5 -4q-37 0 -52.5 15t-15.5 38v442q0 64 18.5 109
t50 73.5t74.5 41t93 12.5h469q25 0 36 -21.5t11 -45.5q0 -28 -12 -48.5t-35 -20.5h-226v-169zM197 426h177v169h-87q-42 0 -66 -24.5t-24 -75.5v-69z" />
    <glyph glyph-name="AEacute" unicode="&#x1fc;" horiz-adv-x="817" 
d="M530 426h108q23 0 35 -18.5t12 -42.5q0 -20 -11 -39.5t-36 -19.5h-108v-170h226q23 0 35 -20.5t12 -48.5q0 -24 -11 -45.5t-36 -21.5h-314q-26 0 -47 12t-21 36v258h-177v-253q0 -11 -2.5 -21t-10.5 -17t-23.5 -11t-41.5 -4q-37 0 -52.5 15t-15.5 38v442q0 64 18.5 109
t50 73.5t74.5 41t93 12.5h469q25 0 36 -21.5t11 -45.5q0 -28 -12 -48.5t-35 -20.5h-226v-169zM197 426h177v169h-87q-42 0 -66 -24.5t-24 -75.5v-69zM449 798q-10 -4 -15 -4q-20 0 -33 19t-13 39q0 25 20 35l140 65q7 3 14 3q10 0 18.5 -5.5t15 -14t10 -18.5t3.5 -20
q0 -11 -4.5 -20t-15.5 -14z" />
    <glyph glyph-name="Aacute" unicode="&#xc1;" horiz-adv-x="589" 
d="M104 0q-16 0 -33.5 5t-32.5 13.5t-24.5 20t-9.5 25.5q0 3 2 11l186 610q8 26 37.5 39t64.5 13t64.5 -13t37.5 -39l187 -610q2 -8 2 -11q0 -14 -9.5 -25.5t-24.5 -20t-32.5 -13.5t-33.5 -5q-19 0 -32.5 6.5t-18.5 22.5l-34 125h-211l-34 -125q-5 -16 -18.5 -22.5
t-32.5 -6.5zM367 274l-73 268l-73 -268h146zM282 802q-10 -4 -15 -4q-20 0 -33 19t-13 39q0 25 20 35l140 65q7 3 14 3q10 0 18.5 -5.5t15 -14t10 -18.5t3.5 -20q0 -11 -4.5 -20t-15.5 -14z" />
    <glyph glyph-name="Abreve" unicode="&#x102;" horiz-adv-x="589" 
d="M104 0q-16 0 -33.5 5t-32.5 13.5t-24.5 20t-9.5 25.5q0 3 2 11l186 610q8 26 37.5 39t64.5 13t64.5 -13t37.5 -39l187 -610q2 -8 2 -11q0 -14 -9.5 -25.5t-24.5 -20t-32.5 -13.5t-33.5 -5q-19 0 -32.5 6.5t-18.5 22.5l-34 125h-211l-34 -125q-5 -16 -18.5 -22.5
t-32.5 -6.5zM367 274l-73 268l-73 -268h146zM434 963q0 -28 -11.5 -53t-31 -44t-44.5 -30.5t-52 -11.5t-52.5 11.5t-45 30.5t-31 44t-11.5 53h80q0 -32 19 -52.5t41 -20.5q21 0 40 20.5t19 52.5h80z" />
    <glyph glyph-name="Acircumflex" unicode="&#xc2;" horiz-adv-x="589" 
d="M104 0q-16 0 -33.5 5t-32.5 13.5t-24.5 20t-9.5 25.5q0 3 2 11l186 610q8 26 37.5 39t64.5 13t64.5 -13t37.5 -39l187 -610q2 -8 2 -11q0 -14 -9.5 -25.5t-24.5 -20t-32.5 -13.5t-33.5 -5q-19 0 -32.5 6.5t-18.5 22.5l-34 125h-211l-34 -125q-5 -16 -18.5 -22.5
t-32.5 -6.5zM367 274l-73 268l-73 -268h146zM190 811q-6 -3 -11 -3q-14 0 -22.5 14.5t-8.5 31.5q0 13 5.5 24.5t19.5 19.5l104 56q10 5 17 5t17 -5l104 -56q14 -8 19.5 -19.5t5.5 -24.5q0 -17 -8.5 -31.5t-22.5 -14.5q-5 0 -11 3l-104 56z" />
    <glyph glyph-name="Adieresis" unicode="&#xc4;" horiz-adv-x="589" 
d="M104 0q-16 0 -33.5 5t-32.5 13.5t-24.5 20t-9.5 25.5q0 3 2 11l186 610q8 26 37.5 39t64.5 13t64.5 -13t37.5 -39l187 -610q2 -8 2 -11q0 -14 -9.5 -25.5t-24.5 -20t-32.5 -13.5t-33.5 -5q-19 0 -32.5 6.5t-18.5 22.5l-34 125h-211l-34 -125q-5 -16 -18.5 -22.5
t-32.5 -6.5zM367 274l-73 268l-73 -268h146zM216 927q23 0 39.5 -17.5t16.5 -40.5t-16.5 -41t-39.5 -18t-40 18t-17 41t17 40.5t40 17.5zM376 927q23 0 39.5 -17.5t16.5 -40.5t-16.5 -41t-39.5 -18t-40 18t-17 41t17 40.5t40 17.5z" />
    <glyph glyph-name="Agrave" unicode="&#xc0;" horiz-adv-x="589" 
d="M104 0q-16 0 -33.5 5t-32.5 13.5t-24.5 20t-9.5 25.5q0 3 2 11l186 610q8 26 37.5 39t64.5 13t64.5 -13t37.5 -39l187 -610q2 -8 2 -11q0 -14 -9.5 -25.5t-24.5 -20t-32.5 -13.5t-33.5 -5q-19 0 -32.5 6.5t-18.5 22.5l-34 125h-211l-34 -125q-5 -16 -18.5 -22.5
t-32.5 -6.5zM367 274l-73 268l-73 -268h146zM186 867q-11 5 -15.5 14t-4.5 20q0 10 3.5 20t10 18.5t15 14t18.5 5.5q6 0 14 -3l140 -65q20 -10 20 -35q0 -20 -13 -39t-33 -19q-5 0 -15 4z" />
    <glyph glyph-name="Amacron" unicode="&#x100;" horiz-adv-x="589" 
d="M104 0q-16 0 -33.5 5t-32.5 13.5t-24.5 20t-9.5 25.5q0 3 2 11l186 610q8 26 37.5 39t64.5 13t64.5 -13t37.5 -39l187 -610q2 -8 2 -11q0 -14 -9.5 -25.5t-24.5 -20t-32.5 -13.5t-33.5 -5q-19 0 -32.5 6.5t-18.5 22.5l-34 125h-211l-34 -125q-5 -16 -18.5 -22.5
t-32.5 -6.5zM367 274l-73 268l-73 -268h146zM147 888q0 21 13 35.5t34 14.5h200q18 0 33 -14.5t15 -35.5q0 -22 -15 -35.5t-33 -13.5h-200q-21 0 -34 13.5t-13 35.5z" />
    <glyph glyph-name="Aogonek" unicode="&#x104;" horiz-adv-x="589" 
d="M509 -155q14 0 19.5 -11.5t5.5 -22.5t-5.5 -20t-25.5 -9q-66 0 -95.5 28.5t-29.5 68.5q0 33 18.5 68.5t51.5 61.5q-11 6 -14 20l-34 125h-211l-34 -125q-5 -16 -18.5 -22.5t-32.5 -6.5q-16 0 -33.5 5t-32.5 13.5t-24.5 20t-9.5 25.5q0 3 2 11l186 610q8 26 37.5 39
t64.5 13t64.5 -13t37.5 -39l187 -610q2 -8 2 -11q0 -20 -17.5 -34.5t-40.5 -22.5q-17 -9 -30.5 -22.5t-24 -29t-16 -31.5t-5.5 -31q0 -21 13 -34.5t45 -13.5zM367 274l-73 268l-73 -268h146z" />
    <glyph glyph-name="Aring" unicode="&#xc5;" horiz-adv-x="589" 
d="M104 0q-16 0 -33.5 5t-32.5 13.5t-24.5 20t-9.5 25.5q0 3 2 11l186 610q8 26 37.5 39t64.5 13t64.5 -13t37.5 -39l187 -610q2 -8 2 -11q0 -14 -9.5 -25.5t-24.5 -20t-32.5 -13.5t-33.5 -5q-19 0 -32.5 6.5t-18.5 22.5l-34 125h-211l-34 -125q-5 -16 -18.5 -22.5
t-32.5 -6.5zM367 274l-73 268l-73 -268h146zM293 1008q20 0 38.5 -8.5t32.5 -22.5t22 -32t8 -38t-8.5 -39t-22.5 -33t-32 -22.5t-38 -8.5t-38 8.5t-31.5 22.5t-21.5 33t-8 39q0 19 7.5 37.5t21 32.5t31.5 22.5t39 8.5zM333 906q0 15 -11 27t-28 12t-29 -12.5t-12 -26.5
q0 -15 12 -28.5t29 -13.5t28 13t11 29z" />
    <glyph glyph-name="Atilde" unicode="&#xc3;" horiz-adv-x="589" 
d="M104 0q-16 0 -33.5 5t-32.5 13.5t-24.5 20t-9.5 25.5q0 3 2 11l186 610q8 26 37.5 39t64.5 13t64.5 -13t37.5 -39l187 -610q2 -8 2 -11q0 -14 -9.5 -25.5t-24.5 -20t-32.5 -13.5t-33.5 -5q-19 0 -32.5 6.5t-18.5 22.5l-34 125h-211l-34 -125q-5 -16 -18.5 -22.5
t-32.5 -6.5zM367 274l-73 268l-73 -268h146zM241 845q-16 0 -28 -3.5t-22 -7t-18.5 -7t-17.5 -3.5q-12 0 -19 6t-11.5 14.5t-6 16.5t-1.5 12q0 27 10.5 41.5t25 21.5t28.5 8.5t21 1.5q23 0 41 -4t34.5 -9.5t33 -9.5t37.5 -4q16 0 28 3.5t22 7t18.5 7t17.5 3.5q12 0 19 -6.5
t11.5 -14.5t6 -16t1.5 -12q0 -27 -10.5 -41.5t-25 -21.5t-28.5 -8.5t-21 -1.5q-27 0 -46 4t-35.5 9.5t-31.5 9.5t-33 4z" />
    <glyph glyph-name="B" unicode="B" horiz-adv-x="572" 
d="M54 683q0 24 21 36t47 12h205q37 0 73 -8t64.5 -28t45.5 -54.5t17 -87.5q0 -61 -22.5 -100.5t-62.5 -56.5q23 -9 42 -21t32.5 -30.5t21 -45t7.5 -63.5v-21q0 -59 -15.5 -100t-42.5 -66.5t-64 -37t-79 -11.5h-222q-32 0 -50 14t-18 33v636zM309 136q38 0 59 22t21 70v16
q0 51 -21 71.5t-59 20.5h-100v-200h100zM209 456h105q29 0 43 21.5t14 47.5t-14 48t-43 22h-105v-139z" />
    <glyph glyph-name="C" unicode="C" horiz-adv-x="562" 
d="M381 505q0 10 -2 25t-11 29.5t-26.5 25t-49.5 10.5q-43 0 -66.5 -24.5t-23.5 -75.5v-265q0 -51 23.5 -75.5t67.5 -24.5q30 0 47 10t26 25t11.5 32.5t3.5 32.5q2 28 24.5 37.5t52.5 9.5q41 0 60 -14.5t19 -59.5q0 -50 -19 -89t-53 -65.5t-79.5 -40.5t-99.5 -14
q-49 0 -92.5 12.5t-76.5 41t-52 73t-19 109.5v265q0 64 19 109t52 73.5t76.5 41t92.5 12.5q54 0 99.5 -13t79.5 -38.5t53 -62.5t19 -85q0 -45 -19 -59.5t-59 -14.5q-32 0 -54 10t-24 37z" />
    <glyph glyph-name="nonmarkingreturn" unicode="&#xd;" horiz-adv-x="0" 
 />
    <glyph glyph-name="Cacute" unicode="&#x106;" horiz-adv-x="562" 
d="M381 505q0 10 -2 25t-11 29.5t-26.5 25t-49.5 10.5q-43 0 -66.5 -24.5t-23.5 -75.5v-265q0 -51 23.5 -75.5t67.5 -24.5q30 0 47 10t26 25t11.5 32.5t3.5 32.5q2 28 24.5 37.5t52.5 9.5q41 0 60 -14.5t19 -59.5q0 -50 -19 -89t-53 -65.5t-79.5 -40.5t-99.5 -14
q-49 0 -92.5 12.5t-76.5 41t-52 73t-19 109.5v265q0 64 19 109t52 73.5t76.5 41t92.5 12.5q54 0 99.5 -13t79.5 -38.5t53 -62.5t19 -85q0 -45 -19 -59.5t-59 -14.5q-32 0 -54 10t-24 37zM266 802q-10 -4 -15 -4q-20 0 -33 19t-13 39q0 25 20 35l140 65q7 3 14 3
q10 0 18.5 -5.5t15 -14t10 -18.5t3.5 -20q0 -11 -4.5 -20t-15.5 -14z" />
    <glyph glyph-name="Ccaron" unicode="&#x10c;" horiz-adv-x="562" 
d="M381 505q0 10 -2 25t-11 29.5t-26.5 25t-49.5 10.5q-43 0 -66.5 -24.5t-23.5 -75.5v-265q0 -51 23.5 -75.5t67.5 -24.5q30 0 47 10t26 25t11.5 32.5t3.5 32.5q2 28 24.5 37.5t52.5 9.5q41 0 60 -14.5t19 -59.5q0 -50 -19 -89t-53 -65.5t-79.5 -40.5t-99.5 -14
q-49 0 -92.5 12.5t-76.5 41t-52 73t-19 109.5v265q0 64 19 109t52 73.5t76.5 41t92.5 12.5q54 0 99.5 -13t79.5 -38.5t53 -62.5t19 -85q0 -45 -19 -59.5t-59 -14.5q-32 0 -54 10t-24 37zM290 912l104 56q6 3 11 3q14 0 22.5 -14.5t8.5 -31.5q0 -13 -5.5 -24.5t-19.5 -19.5
l-104 -56q-10 -5 -17 -5t-17 5l-104 56q-14 8 -19.5 19.5t-5.5 24.5q0 17 8.5 31.5t22.5 14.5q5 0 11 -3z" />
    <glyph glyph-name="Ccedilla" unicode="&#xc7;" horiz-adv-x="562" 
d="M381 505q0 10 -2 25t-11 29.5t-26.5 25t-49.5 10.5q-43 0 -66.5 -24.5t-23.5 -75.5v-265q0 -51 23.5 -75.5t67.5 -24.5q30 0 47 10t26 25t11.5 32.5t3.5 32.5q2 28 24.5 37.5t52.5 9.5q41 0 60 -14.5t19 -59.5q0 -46 -16 -82.5t-44.5 -62.5t-68 -42t-86.5 -20l-14 -43
q51 -2 75.5 -24.5t24.5 -54.5q0 -13 -5 -29t-17.5 -30.5t-34 -24t-54.5 -9.5q-14 0 -29.5 2t-28.5 5.5t-21.5 9.5t-8.5 14q0 3 1.5 10t4.5 14t8 12.5t12 5.5q9 0 21.5 -7t36.5 -7q20 0 33 7.5t13 23.5q0 13 -10 22.5t-33 11.5l-62 6l25 84q-45 3 -83.5 17.5t-67.5 43
t-45.5 71.5t-16.5 103v265q0 64 19 109t52 73.5t76.5 41t92.5 12.5q54 0 99.5 -13t79.5 -38.5t53 -62.5t19 -85q0 -45 -19 -59.5t-59 -14.5q-32 0 -54 10t-24 37z" />
    <glyph glyph-name="Ccircumflex" unicode="&#x108;" horiz-adv-x="562" 
d="M381 505q0 10 -2 25t-11 29.5t-26.5 25t-49.5 10.5q-43 0 -66.5 -24.5t-23.5 -75.5v-265q0 -51 23.5 -75.5t67.5 -24.5q30 0 47 10t26 25t11.5 32.5t3.5 32.5q2 28 24.5 37.5t52.5 9.5q41 0 60 -14.5t19 -59.5q0 -50 -19 -89t-53 -65.5t-79.5 -40.5t-99.5 -14
q-49 0 -92.5 12.5t-76.5 41t-52 73t-19 109.5v265q0 64 19 109t52 73.5t76.5 41t92.5 12.5q54 0 99.5 -13t79.5 -38.5t53 -62.5t19 -85q0 -45 -19 -59.5t-59 -14.5q-32 0 -54 10t-24 37zM187 811q-6 -3 -11 -3q-14 0 -22.5 14.5t-8.5 31.5q0 13 5.5 24.5t19.5 19.5l104 56
q10 5 17 5t17 -5l104 -56q14 -8 19.5 -19.5t5.5 -24.5q0 -17 -8.5 -31.5t-22.5 -14.5q-5 0 -11 3l-104 56z" />
    <glyph glyph-name="Cdotaccent" unicode="&#x10a;" horiz-adv-x="562" 
d="M381 505q0 10 -2 25t-11 29.5t-26.5 25t-49.5 10.5q-43 0 -66.5 -24.5t-23.5 -75.5v-265q0 -51 23.5 -75.5t67.5 -24.5q30 0 47 10t26 25t11.5 32.5t3.5 32.5q2 28 24.5 37.5t52.5 9.5q41 0 60 -14.5t19 -59.5q0 -50 -19 -89t-53 -65.5t-79.5 -40.5t-99.5 -14
q-49 0 -92.5 12.5t-76.5 41t-52 73t-19 109.5v265q0 64 19 109t52 73.5t76.5 41t92.5 12.5q54 0 99.5 -13t79.5 -38.5t53 -62.5t19 -85q0 -45 -19 -59.5t-59 -14.5q-32 0 -54 10t-24 37zM293 927q23 0 39.5 -17.5t16.5 -40.5t-16.5 -41t-39.5 -18t-40 18t-17 41t17 40.5
t40 17.5z" />
    <glyph glyph-name="D" unicode="D" horiz-adv-x="590" 
d="M299 731q52 0 97 -12.5t78 -41t52 -73.5t19 -109v-259q0 -65 -19 -109.5t-52 -73t-78 -41t-97 -12.5h-177q-31 0 -49.5 14t-18.5 33v637q0 19 18.5 33t49.5 14h177zM210 595v-459h89q42 0 66 24.5t24 75.5v259q0 51 -24 75.5t-66 24.5h-89z" />
    <glyph glyph-name="Dcaron" unicode="&#x10e;" horiz-adv-x="590" 
d="M299 731q52 0 97 -12.5t78 -41t52 -73.5t19 -109v-259q0 -65 -19 -109.5t-52 -73t-78 -41t-97 -12.5h-177q-31 0 -49.5 14t-18.5 33v637q0 19 18.5 33t49.5 14h177zM210 595v-459h89q42 0 66 24.5t24 75.5v259q0 51 -24 75.5t-66 24.5h-89zM274 912l104 56q6 3 11 3
q14 0 22.5 -14.5t8.5 -31.5q0 -13 -5.5 -24.5t-19.5 -19.5l-104 -56q-10 -5 -17 -5t-17 5l-104 56q-14 8 -19.5 19.5t-5.5 24.5q0 17 8.5 31.5t22.5 14.5q5 0 11 -3z" />
    <glyph glyph-name="Dcroat" unicode="&#x110;" horiz-adv-x="596" 
d="M305 731q52 0 97 -12.5t78 -41t52 -73.5t19 -109v-259q0 -65 -19 -109.5t-52 -73t-78 -41t-97 -12.5h-177q-31 0 -49.5 14t-18.5 33v280h-32q-19 0 -28.5 17t-9.5 38q0 20 9.5 37.5t28.5 17.5h32v247q0 19 18.5 33t49.5 14h177zM216 595v-158h62q19 0 28.5 -17.5
t9.5 -37.5q0 -22 -9.5 -38.5t-28.5 -16.5h-62v-191h89q42 0 66 24.5t24 75.5v259q0 51 -24 75.5t-66 24.5h-89z" />
    <glyph glyph-name="Delta" unicode="&#x2206;" horiz-adv-x="622" 
d="M596 88q6 -18 6 -35q0 -24 -15 -38.5t-51 -14.5h-450q-36 0 -51 14.5t-15 38.5q0 17 6 35l182 591q8 26 34.5 42t68.5 16t68.5 -16t34.5 -42zM423 136l-112 416l-112 -416h224z" />
    <glyph glyph-name="E" unicode="E" horiz-adv-x="539" 
d="M210 426h150q23 0 35 -18.5t12 -42.5q0 -20 -11 -39.5t-36 -19.5h-150v-170h268q23 0 35 -20.5t12 -48.5q0 -24 -11 -45.5t-36 -21.5h-356q-26 0 -47 12t-21 36v635q0 24 21 36t47 12h356q25 0 36 -21.5t11 -45.5q0 -28 -12 -48.5t-35 -20.5h-268v-169z" />
    <glyph glyph-name="Eacute" unicode="&#xc9;" horiz-adv-x="539" 
d="M210 426h150q23 0 35 -18.5t12 -42.5q0 -20 -11 -39.5t-36 -19.5h-150v-170h268q23 0 35 -20.5t12 -48.5q0 -24 -11 -45.5t-36 -21.5h-356q-26 0 -47 12t-21 36v635q0 24 21 36t47 12h356q25 0 36 -21.5t11 -45.5q0 -28 -12 -48.5t-35 -20.5h-268v-169zM264 802
q-10 -4 -15 -4q-20 0 -33 19t-13 39q0 25 20 35l140 65q7 3 14 3q10 0 18.5 -5.5t15 -14t10 -18.5t3.5 -20q0 -11 -4.5 -20t-15.5 -14z" />
    <glyph glyph-name="Ebreve" unicode="&#x114;" horiz-adv-x="539" 
d="M210 426h150q23 0 35 -18.5t12 -42.5q0 -20 -11 -39.5t-36 -19.5h-150v-170h268q23 0 35 -20.5t12 -48.5q0 -24 -11 -45.5t-36 -21.5h-356q-26 0 -47 12t-21 36v635q0 24 21 36t47 12h356q25 0 36 -21.5t11 -45.5q0 -28 -12 -48.5t-35 -20.5h-268v-169zM428 963
q0 -28 -11.5 -53t-31 -44t-44.5 -30.5t-52 -11.5t-52.5 11.5t-45 30.5t-31 44t-11.5 53h80q0 -32 19 -52.5t41 -20.5q21 0 40 20.5t19 52.5h80z" />
    <glyph glyph-name="Ecaron" unicode="&#x11a;" horiz-adv-x="539" 
d="M210 426h150q23 0 35 -18.5t12 -42.5q0 -20 -11 -39.5t-36 -19.5h-150v-170h268q23 0 35 -20.5t12 -48.5q0 -24 -11 -45.5t-36 -21.5h-356q-26 0 -47 12t-21 36v635q0 24 21 36t47 12h356q25 0 36 -21.5t11 -45.5q0 -28 -12 -48.5t-35 -20.5h-268v-169zM288 912l104 56
q6 3 11 3q14 0 22.5 -14.5t8.5 -31.5q0 -13 -5.5 -24.5t-19.5 -19.5l-104 -56q-10 -5 -17 -5t-17 5l-104 56q-14 8 -19.5 19.5t-5.5 24.5q0 17 8.5 31.5t22.5 14.5q5 0 11 -3z" />
    <glyph glyph-name="Ecircumflex" unicode="&#xca;" horiz-adv-x="539" 
d="M210 426h150q23 0 35 -18.5t12 -42.5q0 -20 -11 -39.5t-36 -19.5h-150v-170h268q23 0 35 -20.5t12 -48.5q0 -24 -11 -45.5t-36 -21.5h-356q-26 0 -47 12t-21 36v635q0 24 21 36t47 12h356q25 0 36 -21.5t11 -45.5q0 -28 -12 -48.5t-35 -20.5h-268v-169zM195 811
q-6 -3 -11 -3q-14 0 -22.5 14.5t-8.5 31.5q0 13 5.5 24.5t19.5 19.5l104 56q10 5 17 5t17 -5l104 -56q14 -8 19.5 -19.5t5.5 -24.5q0 -17 -8.5 -31.5t-22.5 -14.5q-5 0 -11 3l-104 56z" />
    <glyph glyph-name="Edieresis" unicode="&#xcb;" horiz-adv-x="539" 
d="M210 426h150q23 0 35 -18.5t12 -42.5q0 -20 -11 -39.5t-36 -19.5h-150v-170h268q23 0 35 -20.5t12 -48.5q0 -24 -11 -45.5t-36 -21.5h-356q-26 0 -47 12t-21 36v635q0 24 21 36t47 12h356q25 0 36 -21.5t11 -45.5q0 -28 -12 -48.5t-35 -20.5h-268v-169zM213 927
q23 0 39.5 -17.5t16.5 -40.5t-16.5 -41t-39.5 -18t-40 18t-17 41t17 40.5t40 17.5zM373 927q23 0 39.5 -17.5t16.5 -40.5t-16.5 -41t-39.5 -18t-40 18t-17 41t17 40.5t40 17.5z" />
    <glyph glyph-name="Edotaccent" unicode="&#x116;" horiz-adv-x="539" 
d="M210 426h150q23 0 35 -18.5t12 -42.5q0 -20 -11 -39.5t-36 -19.5h-150v-170h268q23 0 35 -20.5t12 -48.5q0 -24 -11 -45.5t-36 -21.5h-356q-26 0 -47 12t-21 36v635q0 24 21 36t47 12h356q25 0 36 -21.5t11 -45.5q0 -28 -12 -48.5t-35 -20.5h-268v-169zM303 927
q23 0 39.5 -17.5t16.5 -40.5t-16.5 -41t-39.5 -18t-40 18t-17 41t17 40.5t40 17.5z" />
    <glyph glyph-name="Egrave" unicode="&#xc8;" horiz-adv-x="539" 
d="M210 426h150q23 0 35 -18.5t12 -42.5q0 -20 -11 -39.5t-36 -19.5h-150v-170h268q23 0 35 -20.5t12 -48.5q0 -24 -11 -45.5t-36 -21.5h-356q-26 0 -47 12t-21 36v635q0 24 21 36t47 12h356q25 0 36 -21.5t11 -45.5q0 -28 -12 -48.5t-35 -20.5h-268v-169zM193 867
q-11 5 -15.5 14t-4.5 20q0 10 3.5 20t10 18.5t15 14t18.5 5.5q6 0 14 -3l140 -65q20 -10 20 -35q0 -20 -13 -39t-33 -19q-5 0 -15 4z" />
    <glyph glyph-name="Emacron" unicode="&#x112;" horiz-adv-x="539" 
d="M210 426h150q23 0 35 -18.5t12 -42.5q0 -20 -11 -39.5t-36 -19.5h-150v-170h268q23 0 35 -20.5t12 -48.5q0 -24 -11 -45.5t-36 -21.5h-356q-26 0 -47 12t-21 36v635q0 24 21 36t47 12h356q25 0 36 -21.5t11 -45.5q0 -28 -12 -48.5t-35 -20.5h-268v-169zM147 888
q0 21 13 35.5t34 14.5h200q18 0 33 -14.5t15 -35.5q0 -22 -15 -35.5t-33 -13.5h-200q-21 0 -34 13.5t-13 35.5z" />
    <glyph glyph-name="Eng" unicode="&#x14a;" horiz-adv-x="620" 
d="M383 -87q17 0 21.5 16.5t4.5 42.5v36q0 11 -2 18.5t-7 15.5l-190 346v-340q0 -24 -24.5 -36t-53.5 -12t-53.5 12t-24.5 36v635q0 25 24.5 36.5t53.5 11.5q21 0 36 -2t28 -9.5t25 -23.5t26 -43l162 -309v340q0 25 24.5 36t53.5 11t53.5 -11t24.5 -36v-712
q0 -42 -10.5 -76.5t-31 -59.5t-50 -39t-67.5 -14q-25 0 -40.5 5.5t-24.5 14.5t-12.5 20t-3.5 23q0 31 17 49t41 18z" />
    <glyph glyph-name="Eogonek" unicode="&#x118;" horiz-adv-x="539" 
d="M482 -155q14 0 19.5 -11.5t5.5 -22.5t-5.5 -20t-25.5 -9q-66 0 -95.5 28.5t-29.5 68.5q0 31 15.5 63t44.5 58h-289q-26 0 -47 12t-21 36v635q0 24 21 36t47 12h356q25 0 36 -21.5t11 -45.5q0 -28 -12 -48.5t-35 -20.5h-268v-169h150q23 0 35 -18.5t12 -42.5
q0 -20 -11 -39.5t-36 -19.5h-150v-170h268q23 0 35 -20.5t12 -48.5q0 -20 -8 -39.5t-26 -25.5q-29 -20 -48 -51t-19 -58q0 -21 13 -34.5t45 -13.5z" />
    <glyph glyph-name="Eth" unicode="&#xd0;" horiz-adv-x="596" 
d="M305 731q52 0 97 -12.5t78 -41t52 -73.5t19 -109v-259q0 -65 -19 -109.5t-52 -73t-78 -41t-97 -12.5h-177q-31 0 -49.5 14t-18.5 33v280h-32q-19 0 -28.5 17t-9.5 38q0 20 9.5 37.5t28.5 17.5h32v247q0 19 18.5 33t49.5 14h177zM216 595v-158h62q19 0 28.5 -17.5
t9.5 -37.5q0 -22 -9.5 -38.5t-28.5 -16.5h-62v-191h89q42 0 66 24.5t24 75.5v259q0 51 -24 75.5t-66 24.5h-89z" />
    <glyph glyph-name="Euro" unicode="&#x20ac;" horiz-adv-x="636" 
d="M266 212q0 -5 2.5 -18t11.5 -27.5t27.5 -25.5t50.5 -11q30 0 47 10t26 25t11.5 32.5t2.5 32.5q1 24 18 33.5t59 9.5q43 0 61 -13.5t18 -57.5q0 -49 -19 -87.5t-53 -65.5t-79.5 -41t-98.5 -14q-59 0 -104 17t-75.5 46t-46 69t-15.5 86v4h-40q-21 0 -34 14.5t-13 37.5
t13 39t34 16h40v60h-40q-21 0 -34 14.5t-13 37.5t13 39t34 16h40v5q0 64 19 109t51.5 73.5t76.5 41t94 12.5q53 0 98.5 -13t79.5 -38.5t53 -62.5t19 -85q0 -22 -4.5 -35.5t-14 -21t-24.5 -10.5t-36 -3q-42 0 -59.5 10t-17.5 33q0 9 -2 24.5t-10.5 30t-26.5 25t-49 10.5
q-91 0 -91 -100v-5h64q18 0 33 -15.5t15 -38.5t-15 -38t-33 -15h-64v-60h64q18 0 33 -15.5t15 -38.5t-15 -38t-33 -15h-64v-4z" />
    <glyph glyph-name="F" unicode="F" horiz-adv-x="515" 
d="M54 683q0 24 21 36t47 12h347q25 0 36 -21.5t11 -45.5q0 -28 -12 -48.5t-35 -20.5h-259v-169h151q23 0 35 -18.5t12 -42.5q0 -20 -11 -39.5t-36 -19.5h-151v-258q0 -24 -24.5 -36t-53.5 -12t-53.5 12t-24.5 36v635z" />
    <glyph glyph-name="G" unicode="G" horiz-adv-x="573" 
d="M381 505q0 13 -2 29t-11 29.5t-26.5 22.5t-49.5 9q-43 0 -66.5 -24.5t-23.5 -75.5v-265q0 -51 23.5 -75.5t65.5 -24.5t66 24.5t24 75.5v34h-59q-23 0 -35 18.5t-12 41.5q0 22 12 41t35 19h168q23 0 35 -14.5t12 -34.5v-105q0 -65 -19 -109.5t-52 -73t-78 -41t-97 -12.5
t-96.5 12.5t-77.5 41t-52 73t-19 109.5v265q0 64 19 109t52 73.5t76.5 41t92.5 12.5q54 0 99.5 -13t79.5 -38.5t53 -62.5t19 -85q0 -45 -19 -59.5t-59 -14.5q-32 0 -54.5 10t-23.5 37z" />
    <glyph glyph-name="Gbreve" unicode="&#x11e;" horiz-adv-x="573" 
d="M381 505q0 13 -2 29t-11 29.5t-26.5 22.5t-49.5 9q-43 0 -66.5 -24.5t-23.5 -75.5v-265q0 -51 23.5 -75.5t65.5 -24.5t66 24.5t24 75.5v34h-59q-23 0 -35 18.5t-12 41.5q0 22 12 41t35 19h168q23 0 35 -14.5t12 -34.5v-105q0 -65 -19 -109.5t-52 -73t-78 -41t-97 -12.5
t-96.5 12.5t-77.5 41t-52 73t-19 109.5v265q0 64 19 109t52 73.5t76.5 41t92.5 12.5q54 0 99.5 -13t79.5 -38.5t53 -62.5t19 -85q0 -45 -19 -59.5t-59 -14.5q-32 0 -54.5 10t-23.5 37zM429 963q0 -28 -11.5 -53t-31 -44t-44.5 -30.5t-52 -11.5t-52.5 11.5t-45 30.5t-31 44
t-11.5 53h80q0 -32 19 -52.5t41 -20.5q21 0 40 20.5t19 52.5h80z" />
    <glyph glyph-name="Gcircumflex" unicode="&#x11c;" horiz-adv-x="573" 
d="M381 505q0 13 -2 29t-11 29.5t-26.5 22.5t-49.5 9q-43 0 -66.5 -24.5t-23.5 -75.5v-265q0 -51 23.5 -75.5t65.5 -24.5t66 24.5t24 75.5v34h-59q-23 0 -35 18.5t-12 41.5q0 22 12 41t35 19h168q23 0 35 -14.5t12 -34.5v-105q0 -65 -19 -109.5t-52 -73t-78 -41t-97 -12.5
t-96.5 12.5t-77.5 41t-52 73t-19 109.5v265q0 64 19 109t52 73.5t76.5 41t92.5 12.5q54 0 99.5 -13t79.5 -38.5t53 -62.5t19 -85q0 -45 -19 -59.5t-59 -14.5q-32 0 -54.5 10t-23.5 37zM172 811q-6 -3 -11 -3q-14 0 -22.5 14.5t-8.5 31.5q0 13 5.5 24.5t19.5 19.5l104 56
q10 5 17 5t17 -5l104 -56q14 -8 19.5 -19.5t5.5 -24.5q0 -17 -8.5 -31.5t-22.5 -14.5q-5 0 -11 3l-104 56z" />
    <glyph glyph-name="Gcommaaccent" unicode="&#x122;" horiz-adv-x="573" 
d="M381 505q0 13 -2 29t-11 29.5t-26.5 22.5t-49.5 9q-43 0 -66.5 -24.5t-23.5 -75.5v-265q0 -51 23.5 -75.5t65.5 -24.5t66 24.5t24 75.5v34h-59q-23 0 -35 18.5t-12 41.5q0 22 12 41t35 19h168q23 0 35 -14.5t12 -34.5v-105q0 -65 -19 -109.5t-52 -73t-78 -41t-97 -12.5
t-96.5 12.5t-77.5 41t-52 73t-19 109.5v265q0 64 19 109t52 73.5t76.5 41t92.5 12.5q54 0 99.5 -13t79.5 -38.5t53 -62.5t19 -85q0 -45 -19 -59.5t-59 -14.5q-32 0 -54.5 10t-23.5 37zM241 -205q-10 -4 -15 -4q-20 0 -33 19t-13 39q0 25 20 35l140 65q7 3 14 3
q10 0 18.5 -5.5t15 -14t10 -18.5t3.5 -20q0 -11 -4.5 -20t-15.5 -14z" />
    <glyph glyph-name="Gdotaccent" unicode="&#x120;" horiz-adv-x="573" 
d="M381 505q0 13 -2 29t-11 29.5t-26.5 22.5t-49.5 9q-43 0 -66.5 -24.5t-23.5 -75.5v-265q0 -51 23.5 -75.5t65.5 -24.5t66 24.5t24 75.5v34h-59q-23 0 -35 18.5t-12 41.5q0 22 12 41t35 19h168q23 0 35 -14.5t12 -34.5v-105q0 -65 -19 -109.5t-52 -73t-78 -41t-97 -12.5
t-96.5 12.5t-77.5 41t-52 73t-19 109.5v265q0 64 19 109t52 73.5t76.5 41t92.5 12.5q54 0 99.5 -13t79.5 -38.5t53 -62.5t19 -85q0 -45 -19 -59.5t-59 -14.5q-32 0 -54.5 10t-23.5 37zM287 927q23 0 39.5 -17.5t16.5 -40.5t-16.5 -41t-39.5 -18t-40 18t-17 41t17 40.5
t40 17.5z" />
    <glyph glyph-name="H" unicode="H" horiz-adv-x="619" 
d="M409 319h-199v-271q0 -24 -24.5 -36t-53.5 -12t-53.5 12t-24.5 36v636q0 25 24.5 36t53.5 11t53.5 -11t24.5 -36v-245h199v245q0 25 24.5 36t53.5 11t53.5 -11t24.5 -36v-636q0 -24 -24.5 -36t-53.5 -12t-53.5 12t-24.5 36v271z" />
    <glyph glyph-name="Hbar" unicode="&#x126;" horiz-adv-x="623" 
d="M411 319h-199v-271q0 -24 -24.5 -36t-53.5 -12t-53.5 12t-24.5 36v484h-4q-19 0 -28 15t-9 34q0 18 9 33.5t28 15.5h4v54q0 25 24.5 36t53.5 11t53.5 -11t24.5 -36v-54h199v54q0 25 24.5 36t53.5 11t53.5 -11t24.5 -36v-54h4q19 0 27.5 -15.5t8.5 -33.5q0 -20 -8.5 -34.5
t-27.5 -14.5h-4v-484q0 -24 -24.5 -36t-53.5 -12t-53.5 12t-24.5 36v271zM411 439v93h-199v-93h199z" />
    <glyph glyph-name="Hcircumflex" unicode="&#x124;" horiz-adv-x="619" 
d="M409 319h-199v-271q0 -24 -24.5 -36t-53.5 -12t-53.5 12t-24.5 36v636q0 25 24.5 36t53.5 11t53.5 -11t24.5 -36v-245h199v245q0 25 24.5 36t53.5 11t53.5 -11t24.5 -36v-636q0 -24 -24.5 -36t-53.5 -12t-53.5 12t-24.5 36v271zM206 811q-6 -3 -11 -3q-14 0 -22.5 14.5
t-8.5 31.5q0 13 5.5 24.5t19.5 19.5l104 56q10 5 17 5t17 -5l104 -56q14 -8 19.5 -19.5t5.5 -24.5q0 -17 -8.5 -31.5t-22.5 -14.5q-5 0 -11 3l-104 56z" />
    <glyph glyph-name="I" unicode="I" horiz-adv-x="264" 
d="M54 684q0 25 24.5 36t53.5 11t53.5 -11t24.5 -36v-636q0 -24 -24.5 -36t-53.5 -12t-53.5 12t-24.5 36v636z" />
    <glyph glyph-name="IJ" unicode="&#x132;" horiz-adv-x="805" 
d="M54 684q0 25 24.5 36t53.5 11t53.5 -11t24.5 -36v-636q0 -24 -24.5 -36t-53.5 -12t-53.5 12t-24.5 36v636zM511 595q-23 0 -35 20.5t-12 48.5q0 24 11 45.5t36 21.5h175q26 0 47 -12t21 -36v-453q0 -65 -19 -109.5t-52 -73t-76.5 -41t-92.5 -12.5q-54 0 -99.5 14
t-79.5 40.5t-53 65.5t-19 89q0 45 19 59.5t60 14.5q30 0 52.5 -9.5t24.5 -37.5q1 -15 3.5 -32.5t11.5 -32.5t26 -25t47 -10q44 0 67.5 24.5t23.5 75.5v365h-87z" />
    <glyph glyph-name="Iacute" unicode="&#xcd;" horiz-adv-x="264" 
d="M54 684q0 25 24.5 36t53.5 11t53.5 -11t24.5 -36v-636q0 -24 -24.5 -36t-53.5 -12t-53.5 12t-24.5 36v636zM92 802q-10 -4 -15 -4q-20 0 -33 19t-13 39q0 25 20 35l140 65q7 3 14 3q10 0 18.5 -5.5t15 -14t10 -18.5t3.5 -20q0 -11 -4.5 -20t-15.5 -14z" />
    <glyph glyph-name="Ibreve" unicode="&#x12c;" horiz-adv-x="264" 
d="M54 684q0 25 24.5 36t53.5 11t53.5 -11t24.5 -36v-636q0 -24 -24.5 -36t-53.5 -12t-53.5 12t-24.5 36v636zM272 963q0 -28 -11.5 -53t-31 -44t-44.5 -30.5t-52 -11.5t-52.5 11.5t-45 30.5t-31 44t-11.5 53h80q0 -32 19 -52.5t41 -20.5q21 0 40 20.5t19 52.5h80z" />
    <glyph glyph-name="Icircumflex" unicode="&#xce;" horiz-adv-x="264" 
d="M54 684q0 25 24.5 36t53.5 11t53.5 -11t24.5 -36v-636q0 -24 -24.5 -36t-53.5 -12t-53.5 12t-24.5 36v636zM30 811q-6 -3 -11 -3q-14 0 -22.5 14.5t-8.5 31.5q0 13 5.5 24.5t19.5 19.5l104 56q10 5 17 5t17 -5l104 -56q14 -8 19.5 -19.5t5.5 -24.5q0 -17 -8.5 -31.5
t-22.5 -14.5q-5 0 -11 3l-104 56z" />
    <glyph glyph-name="Idieresis" unicode="&#xcf;" horiz-adv-x="264" 
d="M54 684q0 25 24.5 36t53.5 11t53.5 -11t24.5 -36v-636q0 -24 -24.5 -36t-53.5 -12t-53.5 12t-24.5 36v636zM54 927q23 0 39.5 -17.5t16.5 -40.5t-16.5 -41t-39.5 -18t-40 18t-17 41t17 40.5t40 17.5zM214 927q23 0 39.5 -17.5t16.5 -40.5t-16.5 -41t-39.5 -18t-40 18
t-17 41t17 40.5t40 17.5z" />
    <glyph glyph-name="Idotaccent" unicode="&#x130;" horiz-adv-x="264" 
d="M54 684q0 25 24.5 36t53.5 11t53.5 -11t24.5 -36v-636q0 -24 -24.5 -36t-53.5 -12t-53.5 12t-24.5 36v636zM133 927q23 0 39.5 -17.5t16.5 -40.5t-16.5 -41t-39.5 -18t-40 18t-17 41t17 40.5t40 17.5z" />
    <glyph glyph-name="Igrave" unicode="&#xcc;" horiz-adv-x="264" 
d="M54 684q0 25 24.5 36t53.5 11t53.5 -11t24.5 -36v-636q0 -24 -24.5 -36t-53.5 -12t-53.5 12t-24.5 36v636zM33 867q-11 5 -15.5 14t-4.5 20q0 10 3.5 20t10 18.5t15 14t18.5 5.5q6 0 14 -3l140 -65q20 -10 20 -35q0 -20 -13 -39t-33 -19q-5 0 -15 4z" />
    <glyph glyph-name="Imacron" unicode="&#x12a;" horiz-adv-x="264" 
d="M54 684q0 25 24.5 36t53.5 11t53.5 -11t24.5 -36v-636q0 -24 -24.5 -36t-53.5 -12t-53.5 12t-24.5 36v636zM-16 888q0 21 13 35.5t34 14.5h200q18 0 33 -14.5t15 -35.5q0 -22 -15 -35.5t-33 -13.5h-200q-21 0 -34 13.5t-13 35.5z" />
    <glyph glyph-name="Iogonek" unicode="&#x12e;" horiz-adv-x="264" 
d="M157 -155q14 0 19.5 -11.5t5.5 -22.5t-5.5 -20t-25.5 -9q-66 0 -95.5 28.5t-29.5 68.5q0 32 17 66.5t49 60.5q-17 5 -27.5 15.5t-10.5 26.5v636q0 25 24.5 36t53.5 11t53.5 -11t24.5 -36v-636q0 -15 -10 -25.5t-26 -15.5q-16 -9 -30 -23t-24 -29.5t-15.5 -31.5t-5.5 -30
q0 -21 13 -34.5t45 -13.5z" />
    <glyph glyph-name="Itilde" unicode="&#x128;" horiz-adv-x="264" 
d="M54 684q0 25 24.5 36t53.5 11t53.5 -11t24.5 -36v-636q0 -24 -24.5 -36t-53.5 -12t-53.5 12t-24.5 36v636zM78 845q-16 0 -28 -3.5t-22 -7t-18.5 -7t-17.5 -3.5q-12 0 -19 6t-11.5 14.5t-6 16.5t-1.5 12q0 27 10.5 41.5t25 21.5t28.5 8.5t21 1.5q23 0 41 -4t34.5 -9.5
t33 -9.5t37.5 -4q16 0 28 3.5t22 7t18.5 7t17.5 3.5q12 0 19 -6.5t11.5 -14.5t6 -16t1.5 -12q0 -27 -10.5 -41.5t-25 -21.5t-28.5 -8.5t-21 -1.5q-27 0 -46 4t-35.5 9.5t-31.5 9.5t-33 4z" />
    <glyph glyph-name="J" unicode="J" horiz-adv-x="548" 
d="M254 595q-23 0 -35 20.5t-12 48.5q0 24 11 45.5t36 21.5h175q26 0 47 -12t21 -36v-453q0 -65 -19 -109.5t-52 -73t-76.5 -41t-92.5 -12.5q-54 0 -99.5 14t-79.5 40.5t-53 65.5t-19 89q0 45 19 59.5t60 14.5q30 0 52.5 -9.5t24.5 -37.5q1 -15 3.5 -32.5t11.5 -32.5t26 -25
t47 -10q44 0 67.5 24.5t23.5 75.5v365h-87z" />
    <glyph glyph-name="Jcircumflex" unicode="&#x134;" horiz-adv-x="548" 
d="M254 595q-23 0 -35 20.5t-12 48.5q0 24 11 45.5t36 21.5h175q26 0 47 -12t21 -36v-453q0 -65 -19 -109.5t-52 -73t-76.5 -41t-92.5 -12.5q-54 0 -99.5 14t-79.5 40.5t-53 65.5t-19 89q0 45 19 59.5t60 14.5q30 0 52.5 -9.5t24.5 -37.5q1 -15 3.5 -32.5t11.5 -32.5t26 -25
t47 -10q44 0 67.5 24.5t23.5 75.5v365h-87zM170 811q-6 -3 -11 -3q-14 0 -22.5 14.5t-8.5 31.5q0 13 5.5 24.5t19.5 19.5l104 56q10 5 17 5t17 -5l104 -56q14 -8 19.5 -19.5t5.5 -24.5q0 -17 -8.5 -31.5t-22.5 -14.5q-5 0 -11 3l-104 56z" />
    <glyph glyph-name="K" unicode="K" horiz-adv-x="566" 
d="M54 684q0 25 24.5 36t53.5 11t53.5 -11t24.5 -36v-240l187 265q15 22 41 22q15 0 31 -7t29.5 -18.5t22.5 -25.5t9 -29q0 -6 -2 -14t-8 -16l-164 -206l207 -317q8 -13 8 -26q0 -15 -8.5 -29t-22 -25t-30 -17.5t-33.5 -6.5q-16 0 -30 6.5t-24 22.5l-171 260l-42 -54v-181
q0 -24 -24.5 -36t-53.5 -12t-53.5 12t-24.5 36v636z" />
    <glyph glyph-name="Kcommaaccent" unicode="&#x136;" horiz-adv-x="566" 
d="M54 684q0 25 24.5 36t53.5 11t53.5 -11t24.5 -36v-240l187 265q15 22 41 22q15 0 31 -7t29.5 -18.5t22.5 -25.5t9 -29q0 -6 -2 -14t-8 -16l-164 -206l207 -317q8 -13 8 -26q0 -15 -8.5 -29t-22 -25t-30 -17.5t-33.5 -6.5q-16 0 -30 6.5t-24 22.5l-171 260l-42 -54v-181
q0 -24 -24.5 -36t-53.5 -12t-53.5 12t-24.5 36v636zM238 -205q-10 -4 -15 -4q-20 0 -33 19t-13 39q0 25 20 35l140 65q7 3 14 3q10 0 18.5 -5.5t15 -14t10 -18.5t3.5 -20q0 -11 -4.5 -20t-15.5 -14z" />
    <glyph glyph-name="L" unicode="L" horiz-adv-x="492" 
d="M122 0q-26 0 -47 12t-21 36v636q0 25 24.5 36t53.5 11t53.5 -11t24.5 -36v-548h228q23 0 34 -21t11 -47t-11 -47t-34 -21h-316z" />
    <glyph glyph-name="Lacute" unicode="&#x139;" horiz-adv-x="492" 
d="M122 0q-26 0 -47 12t-21 36v636q0 25 24.5 36t53.5 11t53.5 -11t24.5 -36v-548h228q23 0 34 -21t11 -47t-11 -47t-34 -21h-316zM207 802q-10 -4 -15 -4q-20 0 -33 19t-13 39q0 25 20 35l140 65q7 3 14 3q10 0 18.5 -5.5t15 -14t10 -18.5t3.5 -20q0 -11 -4.5 -20
t-15.5 -14z" />
    <glyph glyph-name="Lcaron" unicode="&#x13d;" horiz-adv-x="494" 
d="M122 0q-26 0 -47 12t-21 36v636q0 25 24.5 36t53.5 11t53.5 -11t24.5 -36v-548h228q23 0 34 -21t11 -47t-11 -47t-34 -21h-316zM389 741q32 0 54.5 -22.5t22.5 -53.5q0 -5 -1.5 -11t-7.5 -22t-18.5 -46t-34.5 -81q-5 -11 -13.5 -14.5t-16.5 -3.5q-16 0 -33 10t-17 29
q0 8 4 16l25 54q-18 11 -29 28.5t-11 39.5q0 32 22 54.5t54 22.5z" />
    <glyph glyph-name="Lcommaaccent" unicode="&#x13b;" horiz-adv-x="492" 
d="M122 0q-26 0 -47 12t-21 36v636q0 25 24.5 36t53.5 11t53.5 -11t24.5 -36v-548h228q23 0 34 -21t11 -47t-11 -47t-34 -21h-316zM211 -205q-10 -4 -15 -4q-20 0 -33 19t-13 39q0 25 20 35l140 65q7 3 14 3q10 0 18.5 -5.5t15 -14t10 -18.5t3.5 -20q0 -11 -4.5 -20
t-15.5 -14z" />
    <glyph glyph-name="Ldot" unicode="&#x13f;" horiz-adv-x="493" 
d="M122 0q-26 0 -47 12t-21 36v636q0 25 24.5 36t53.5 11t53.5 -11t24.5 -36v-548h228q23 0 34 -21t11 -47t-11 -47t-34 -21h-316zM382 492q34 0 57.5 -21t23.5 -50t-23.5 -50.5t-57.5 -21.5q-35 0 -58.5 21.5t-23.5 50.5t23.5 50t58.5 21z" />
    <glyph glyph-name="Lslash" unicode="&#x141;" horiz-adv-x="498" 
d="M128 0q-26 0 -47 12t-21 36v205l-5 -2q-6 -3 -13 -3q-11 0 -20 6.5t-16.5 16t-11.5 22t-4 24.5q0 11 4 20t14 14l52 24v309q0 25 24.5 36t53.5 11t53.5 -11t24.5 -36v-236l45 21q6 3 12 3q11 0 20.5 -6.5t17 -17t12 -22.5t4.5 -23q0 -25 -19 -34l-92 -43v-190h228
q23 0 34 -21t11 -47t-11 -47t-34 -21h-316z" />
    <glyph glyph-name="M" unicode="M" horiz-adv-x="712" 
d="M406 259q-10 -17 -24 -23t-28 -6t-27 6t-22 23l-95 174v-385q0 -24 -24.5 -36t-53.5 -12t-53.5 12t-24.5 36v605q0 21 6.5 36t17.5 24.5t25 13.5t29 4q21 0 37 -2t29.5 -10t26.5 -23.5t28 -42.5l103 -180l103 180q15 27 28 42.5t26.5 23.5t29.5 10t37 2q30 0 54 -17.5
t24 -60.5v-605q0 -24 -24.5 -36t-53.5 -12t-53.5 12t-24.5 36v375z" />
    <glyph glyph-name="N" unicode="N" horiz-adv-x="619" 
d="M487 0q-27 0 -50 8t-37 34l-190 346v-340q0 -24 -24.5 -36t-53.5 -12t-53.5 12t-24.5 36v635q0 25 24.5 36.5t53.5 11.5q21 0 36 -2t28 -9.5t25 -23.5t26 -43l162 -309v340q0 25 24.5 36t53.5 11t53.5 -11t24.5 -36v-636q0 -24 -24.5 -36t-53.5 -12z" />
    <glyph glyph-name="Nacute" unicode="&#x143;" horiz-adv-x="619" 
d="M487 0q-27 0 -50 8t-37 34l-190 346v-340q0 -24 -24.5 -36t-53.5 -12t-53.5 12t-24.5 36v635q0 25 24.5 36.5t53.5 11.5q21 0 36 -2t28 -9.5t25 -23.5t26 -43l162 -309v340q0 25 24.5 36t53.5 11t53.5 -11t24.5 -36v-636q0 -24 -24.5 -36t-53.5 -12zM246 802
q-10 -4 -15 -4q-20 0 -33 19t-13 39q0 25 20 35l140 65q7 3 14 3q10 0 18.5 -5.5t15 -14t10 -18.5t3.5 -20q0 -11 -4.5 -20t-15.5 -14z" />
    <glyph glyph-name="Ncaron" unicode="&#x147;" horiz-adv-x="619" 
d="M487 0q-27 0 -50 8t-37 34l-190 346v-340q0 -24 -24.5 -36t-53.5 -12t-53.5 12t-24.5 36v635q0 25 24.5 36.5t53.5 11.5q21 0 36 -2t28 -9.5t25 -23.5t26 -43l162 -309v340q0 25 24.5 36t53.5 11t53.5 -11t24.5 -36v-636q0 -24 -24.5 -36t-53.5 -12zM310 912l104 56
q6 3 11 3q14 0 22.5 -14.5t8.5 -31.5q0 -13 -5.5 -24.5t-19.5 -19.5l-104 -56q-10 -5 -17 -5t-17 5l-104 56q-14 8 -19.5 19.5t-5.5 24.5q0 17 8.5 31.5t22.5 14.5q5 0 11 -3z" />
    <glyph glyph-name="Ncommaaccent" unicode="&#x145;" horiz-adv-x="619" 
d="M487 0q-27 0 -50 8t-37 34l-190 346v-340q0 -24 -24.5 -36t-53.5 -12t-53.5 12t-24.5 36v635q0 25 24.5 36.5t53.5 11.5q21 0 36 -2t28 -9.5t25 -23.5t26 -43l162 -309v340q0 25 24.5 36t53.5 11t53.5 -11t24.5 -36v-636q0 -24 -24.5 -36t-53.5 -12zM260 -205
q-10 -4 -15 -4q-20 0 -33 19t-13 39q0 25 20 35l140 65q7 3 14 3q10 0 18.5 -5.5t15 -14t10 -18.5t3.5 -20q0 -11 -4.5 -20t-15.5 -14z" />
    <glyph glyph-name="Ntilde" unicode="&#xd1;" horiz-adv-x="619" 
d="M487 0q-27 0 -50 8t-37 34l-190 346v-340q0 -24 -24.5 -36t-53.5 -12t-53.5 12t-24.5 36v635q0 25 24.5 36.5t53.5 11.5q21 0 36 -2t28 -9.5t25 -23.5t26 -43l162 -309v340q0 25 24.5 36t53.5 11t53.5 -11t24.5 -36v-636q0 -24 -24.5 -36t-53.5 -12zM247 845
q-16 0 -28 -3.5t-22 -7t-18.5 -7t-17.5 -3.5q-12 0 -19 6t-11.5 14.5t-6 16.5t-1.5 12q0 27 10.5 41.5t25 21.5t28.5 8.5t21 1.5q23 0 41 -4t34.5 -9.5t33 -9.5t37.5 -4q16 0 28 3.5t22 7t18.5 7t17.5 3.5q12 0 19 -6.5t11.5 -14.5t6 -16t1.5 -12q0 -27 -10.5 -41.5
t-25 -21.5t-28.5 -8.5t-21 -1.5q-27 0 -46 4t-35.5 9.5t-31.5 9.5t-33 4z" />
    <glyph glyph-name="O" unicode="O" horiz-adv-x="583" 
d="M291 -6q-52 0 -96.5 12.5t-77.5 41t-52 73t-19 109.5v265q0 64 19 109t52 73.5t77.5 41t96.5 12.5t97 -12.5t78 -41t52 -73.5t19 -109v-265q0 -65 -19 -109.5t-52 -73t-78 -41t-97 -12.5zM381 495q0 52 -24 76t-66 24t-65.5 -24t-23.5 -76v-265q0 -52 23.5 -76t65.5 -24
t66 24t24 76v265z" />
    <glyph glyph-name="OE" unicode="&#x152;" horiz-adv-x="826" 
d="M262 -6q-47 0 -86.5 12.5t-68 41t-44.5 73t-16 109.5v265q0 64 16 109t44.5 73.5t68 41t86.5 12.5q40 0 81 -18.5t60 -55.5v26q0 24 21 36t47 12h294q25 0 36 -21.5t11 -45.5q0 -28 -12 -48.5t-35 -20.5h-226v-169h108q23 0 35 -18.5t12 -42.5q0 -20 -11 -39.5t-36 -19.5
h-108v-170h226q23 0 35 -20.5t12 -48.5q0 -24 -11 -45.5t-36 -21.5h-294q-26 0 -47 12t-21 36v20q-9 -19 -25 -33t-35 -23t-40 -13.5t-41 -4.5zM382 495q0 52 -24 76t-66 24t-65.5 -24t-23.5 -76v-265q0 -52 23.5 -76t65.5 -24t66 24t24 76v265z" />
    <glyph glyph-name="Oacute" unicode="&#xd3;" horiz-adv-x="583" 
d="M291 -6q-52 0 -96.5 12.5t-77.5 41t-52 73t-19 109.5v265q0 64 19 109t52 73.5t77.5 41t96.5 12.5t97 -12.5t78 -41t52 -73.5t19 -109v-265q0 -65 -19 -109.5t-52 -73t-78 -41t-97 -12.5zM381 495q0 52 -24 76t-66 24t-65.5 -24t-23.5 -76v-265q0 -52 23.5 -76t65.5 -24
t66 24t24 76v265zM286 802q-10 -4 -15 -4q-20 0 -33 19t-13 39q0 25 20 35l140 65q7 3 14 3q10 0 18.5 -5.5t15 -14t10 -18.5t3.5 -20q0 -11 -4.5 -20t-15.5 -14z" />
    <glyph glyph-name="Obreve" unicode="&#x14e;" horiz-adv-x="583" 
d="M291 -6q-52 0 -96.5 12.5t-77.5 41t-52 73t-19 109.5v265q0 64 19 109t52 73.5t77.5 41t96.5 12.5t97 -12.5t78 -41t52 -73.5t19 -109v-265q0 -65 -19 -109.5t-52 -73t-78 -41t-97 -12.5zM381 495q0 52 -24 76t-66 24t-65.5 -24t-23.5 -76v-265q0 -52 23.5 -76t65.5 -24
t66 24t24 76v265zM430 963q0 -28 -11.5 -53t-31 -44t-44.5 -30.5t-52 -11.5t-52.5 11.5t-45 30.5t-31 44t-11.5 53h80q0 -32 19 -52.5t41 -20.5q21 0 40 20.5t19 52.5h80z" />
    <glyph glyph-name="Ocircumflex" unicode="&#xd4;" horiz-adv-x="583" 
d="M291 -6q-52 0 -96.5 12.5t-77.5 41t-52 73t-19 109.5v265q0 64 19 109t52 73.5t77.5 41t96.5 12.5t97 -12.5t78 -41t52 -73.5t19 -109v-265q0 -65 -19 -109.5t-52 -73t-78 -41t-97 -12.5zM381 495q0 52 -24 76t-66 24t-65.5 -24t-23.5 -76v-265q0 -52 23.5 -76t65.5 -24
t66 24t24 76v265zM187 811q-6 -3 -11 -3q-14 0 -22.5 14.5t-8.5 31.5q0 13 5.5 24.5t19.5 19.5l104 56q10 5 17 5t17 -5l104 -56q14 -8 19.5 -19.5t5.5 -24.5q0 -17 -8.5 -31.5t-22.5 -14.5q-5 0 -11 3l-104 56z" />
    <glyph glyph-name="Odieresis" unicode="&#xd6;" horiz-adv-x="583" 
d="M291 -6q-52 0 -96.5 12.5t-77.5 41t-52 73t-19 109.5v265q0 64 19 109t52 73.5t77.5 41t96.5 12.5t97 -12.5t78 -41t52 -73.5t19 -109v-265q0 -65 -19 -109.5t-52 -73t-78 -41t-97 -12.5zM381 495q0 52 -24 76t-66 24t-65.5 -24t-23.5 -76v-265q0 -52 23.5 -76t65.5 -24
t66 24t24 76v265zM213 927q23 0 39.5 -17.5t16.5 -40.5t-16.5 -41t-39.5 -18t-40 18t-17 41t17 40.5t40 17.5zM373 927q23 0 39.5 -17.5t16.5 -40.5t-16.5 -41t-39.5 -18t-40 18t-17 41t17 40.5t40 17.5z" />
    <glyph glyph-name="Ograve" unicode="&#xd2;" horiz-adv-x="583" 
d="M291 -6q-52 0 -96.5 12.5t-77.5 41t-52 73t-19 109.5v265q0 64 19 109t52 73.5t77.5 41t96.5 12.5t97 -12.5t78 -41t52 -73.5t19 -109v-265q0 -65 -19 -109.5t-52 -73t-78 -41t-97 -12.5zM381 495q0 52 -24 76t-66 24t-65.5 -24t-23.5 -76v-265q0 -52 23.5 -76t65.5 -24
t66 24t24 76v265zM185 867q-11 5 -15.5 14t-4.5 20q0 10 3.5 20t10 18.5t15 14t18.5 5.5q6 0 14 -3l140 -65q20 -10 20 -35q0 -20 -13 -39t-33 -19q-5 0 -15 4z" />
    <glyph glyph-name="Ohungarumlaut" unicode="&#x150;" horiz-adv-x="583" 
d="M291 -6q-52 0 -96.5 12.5t-77.5 41t-52 73t-19 109.5v265q0 64 19 109t52 73.5t77.5 41t96.5 12.5t97 -12.5t78 -41t52 -73.5t19 -109v-265q0 -65 -19 -109.5t-52 -73t-78 -41t-97 -12.5zM381 495q0 52 -24 76t-66 24t-65.5 -24t-23.5 -76v-265q0 -52 23.5 -76t65.5 -24
t66 24t24 76v265zM229 806q-8 -11 -21 -11q-17 0 -31.5 14.5t-14.5 29.5q0 9 7 17l79 95q5 6 10.5 8t11.5 2q16 0 30 -14.5t14 -28.5q0 -10 -6 -17zM389 806q-8 -11 -21 -11q-17 0 -31.5 14.5t-14.5 29.5q0 9 7 17l79 95q5 6 10.5 8t11.5 2q16 0 30 -14.5t14 -28.5
q0 -10 -6 -17z" />
    <glyph glyph-name="Omacron" unicode="&#x14c;" horiz-adv-x="583" 
d="M291 -6q-52 0 -96.5 12.5t-77.5 41t-52 73t-19 109.5v265q0 64 19 109t52 73.5t77.5 41t96.5 12.5t97 -12.5t78 -41t52 -73.5t19 -109v-265q0 -65 -19 -109.5t-52 -73t-78 -41t-97 -12.5zM381 495q0 52 -24 76t-66 24t-65.5 -24t-23.5 -76v-265q0 -52 23.5 -76t65.5 -24
t66 24t24 76v265zM144 888q0 21 13 35.5t34 14.5h200q18 0 33 -14.5t15 -35.5q0 -22 -15 -35.5t-33 -13.5h-200q-21 0 -34 13.5t-13 35.5z" />
    <glyph glyph-name="Omega" unicode="&#x2126;" horiz-adv-x="584" 
d="M320 275q61 13 61 95v125q0 52 -23.5 76t-65.5 24t-65.5 -24t-23.5 -76v-125q0 -43 15 -69t46 -26v-275h-182q-21 0 -34 19.5t-13 48.5q0 30 14 48.5t33 18.5h97v12q-60 21 -96 74.5t-36 148.5v125q0 64 19 109t52 73.5t77.5 41t96.5 12.5t96.5 -12.5t77.5 -41t52 -73.5
t19 -109v-125q0 -94 -37 -148.5t-95 -74.5v-12h97q19 0 33 -18.5t14 -48.5q0 -29 -13 -48.5t-34 -19.5h-182v275z" />
    <glyph glyph-name="Oslash" unicode="&#xd8;" horiz-adv-x="583" 
d="M464 772q21 0 40 -14.5t19 -38.5q0 -11 -4 -19l-26 -52q21 -28 32.5 -65.5t11.5 -87.5v-265q0 -65 -19 -109.5t-52 -73t-78 -41t-97 -12.5q-61 0 -109 16l-15 -31q-5 -11 -18 -18t-27 -7q-26 0 -41 17t-15 36q0 9 5 19l22 45q-23 28 -35 67t-12 92v265q0 64 19 109
t52 73.5t77.5 41t96.5 12.5q64 0 114 -19l17 35q6 13 17 19t25 6zM202 295l140 288q-21 12 -51 12q-42 0 -65.5 -24t-23.5 -76v-200zM381 417l-136 -278q19 -9 46 -9q42 0 66 24t24 76v187z" />
    <glyph glyph-name="Oslashacute" unicode="&#x1fe;" horiz-adv-x="583" 
d="M464 772q21 0 40 -14.5t19 -38.5q0 -11 -4 -19l-26 -52q21 -28 32.5 -65.5t11.5 -87.5v-265q0 -65 -19 -109.5t-52 -73t-78 -41t-97 -12.5q-61 0 -109 16l-15 -31q-5 -11 -18 -18t-27 -7q-26 0 -41 17t-15 36q0 9 5 19l22 45q-23 28 -35 67t-12 92v265q0 64 19 109
t52 73.5t77.5 41t96.5 12.5q64 0 114 -19l17 35q6 13 17 19t25 6zM266 802q-10 -4 -15 -4q-20 0 -33 19t-13 39q0 25 20 35l140 65q7 3 14 3q10 0 18.5 -5.5t15 -14t10 -18.5t3.5 -20q0 -11 -4.5 -20t-15.5 -14zM202 295l140 288q-21 12 -51 12q-42 0 -65.5 -24t-23.5 -76
v-200zM381 417l-136 -278q19 -9 46 -9q42 0 66 24t24 76v187z" />
    <glyph glyph-name="Otilde" unicode="&#xd5;" horiz-adv-x="583" 
d="M291 -6q-52 0 -96.5 12.5t-77.5 41t-52 73t-19 109.5v265q0 64 19 109t52 73.5t77.5 41t96.5 12.5t97 -12.5t78 -41t52 -73.5t19 -109v-265q0 -65 -19 -109.5t-52 -73t-78 -41t-97 -12.5zM381 495q0 52 -24 76t-66 24t-65.5 -24t-23.5 -76v-265q0 -52 23.5 -76t65.5 -24
t66 24t24 76v265zM238 845q-16 0 -28 -3.5t-22 -7t-18.5 -7t-17.5 -3.5q-12 0 -19 6t-11.5 14.5t-6 16.5t-1.5 12q0 27 10.5 41.5t25 21.5t28.5 8.5t21 1.5q23 0 41 -4t34.5 -9.5t33 -9.5t37.5 -4q16 0 28 3.5t22 7t18.5 7t17.5 3.5q12 0 19 -6.5t11.5 -14.5t6 -16t1.5 -12
q0 -27 -10.5 -41.5t-25 -21.5t-28.5 -8.5t-21 -1.5q-27 0 -46 4t-35.5 9.5t-31.5 9.5t-33 4z" />
    <glyph glyph-name="P" unicode="P" horiz-adv-x="569" 
d="M54 684q0 19 16 33t42 14h207q49 0 92.5 -12.5t75 -39.5t50 -71t18.5 -107v-5q0 -63 -19 -107t-52 -72t-78 -40.5t-97 -12.5h-99v-216q0 -24 -24.5 -36t-53.5 -12t-53.5 12t-24.5 36v636zM210 595v-211h99q42 0 66 24.5t24 75.5v11q0 51 -24 75.5t-66 24.5h-99z" />
    <glyph glyph-name="Q" unicode="Q" horiz-adv-x="583" 
d="M291 -109q-18 0 -33 12t-15 36v58q-43 5 -79 21t-62.5 44t-41 69.5t-14.5 98.5v265q0 65 19 110t52 73t77.5 40.5t96.5 12.5t97 -12.5t78 -40.5t52 -73t19 -110v-265q0 -57 -15 -98.5t-41.5 -69.5t-62.5 -44t-79 -21v-58q0 -24 -15 -36t-33 -12zM381 495q0 51 -24 75.5
t-66 24.5t-65.5 -24.5t-23.5 -75.5v-265q0 -67 41 -90v44q0 25 15 36t33 11t33 -11t15 -36v-44q20 11 31 33t11 57v265z" />
    <glyph glyph-name="R" unicode="R" horiz-adv-x="584" 
d="M54 684q0 19 13 33t35 14h207q51 0 96 -10.5t78.5 -35.5t52.5 -66t19 -102q0 -84 -34.5 -133.5t-86.5 -69.5l122 -221q5 -8 5 -18q0 -15 -9 -29.5t-23 -26t-31.5 -18.5t-34.5 -7q-15 0 -28.5 6.5t-21.5 22.5l-137 266h-66v-241q0 -24 -24.5 -36t-53.5 -12t-53.5 12
t-24.5 36v636zM210 595v-186h99q42 0 66 20t24 73t-24 73t-66 20h-99z" />
    <glyph glyph-name="Racute" unicode="&#x154;" horiz-adv-x="584" 
d="M54 684q0 19 13 33t35 14h207q51 0 96 -10.5t78.5 -35.5t52.5 -66t19 -102q0 -84 -34.5 -133.5t-86.5 -69.5l122 -221q5 -8 5 -18q0 -15 -9 -29.5t-23 -26t-31.5 -18.5t-34.5 -7q-15 0 -28.5 6.5t-21.5 22.5l-137 266h-66v-241q0 -24 -24.5 -36t-53.5 -12t-53.5 12
t-24.5 36v636zM210 595v-186h99q42 0 66 20t24 73t-24 73t-66 20h-99zM279 802q-10 -4 -15 -4q-20 0 -33 19t-13 39q0 25 20 35l140 65q7 3 14 3q10 0 18.5 -5.5t15 -14t10 -18.5t3.5 -20q0 -11 -4.5 -20t-15.5 -14z" />
    <glyph glyph-name="Rcaron" unicode="&#x158;" horiz-adv-x="584" 
d="M54 684q0 19 13 33t35 14h207q51 0 96 -10.5t78.5 -35.5t52.5 -66t19 -102q0 -84 -34.5 -133.5t-86.5 -69.5l122 -221q5 -8 5 -18q0 -15 -9 -29.5t-23 -26t-31.5 -18.5t-34.5 -7q-15 0 -28.5 6.5t-21.5 22.5l-137 266h-66v-241q0 -24 -24.5 -36t-53.5 -12t-53.5 12
t-24.5 36v636zM210 595v-186h99q42 0 66 20t24 73t-24 73t-66 20h-99zM274 912l104 56q6 3 11 3q14 0 22.5 -14.5t8.5 -31.5q0 -13 -5.5 -24.5t-19.5 -19.5l-104 -56q-10 -5 -17 -5t-17 5l-104 56q-14 8 -19.5 19.5t-5.5 24.5q0 17 8.5 31.5t22.5 14.5q5 0 11 -3z" />
    <glyph glyph-name="Rcommaaccent" unicode="&#x156;" horiz-adv-x="584" 
d="M54 684q0 19 13 33t35 14h207q51 0 96 -10.5t78.5 -35.5t52.5 -66t19 -102q0 -84 -34.5 -133.5t-86.5 -69.5l122 -221q5 -8 5 -18q0 -15 -9 -29.5t-23 -26t-31.5 -18.5t-34.5 -7q-15 0 -28.5 6.5t-21.5 22.5l-137 266h-66v-241q0 -24 -24.5 -36t-53.5 -12t-53.5 12
t-24.5 36v636zM210 595v-186h99q42 0 66 20t24 73t-24 73t-66 20h-99zM244 -205q-10 -4 -15 -4q-20 0 -33 19t-13 39q0 25 20 35l140 65q7 3 14 3q10 0 18.5 -5.5t15 -14t10 -18.5t3.5 -20q0 -11 -4.5 -20t-15.5 -14z" />
    <glyph glyph-name="S" unicode="S" horiz-adv-x="533" 
d="M257 130q17 0 34.5 3.5t31.5 11.5t22.5 20.5t8.5 30.5q0 30 -23.5 50.5t-58.5 38t-76.5 36t-76.5 45.5t-58.5 66t-23.5 98q0 56 22.5 95.5t58.5 64t82 36t93 11.5q20 0 53.5 -3t66 -12t56 -26.5t23.5 -46.5q0 -10 -3.5 -24t-11 -27t-19.5 -22t-28 -9q-14 0 -25.5 6
t-26 13t-34.5 13t-51 6q-54 0 -77 -18.5t-23 -41.5q0 -25 23.5 -42t58.5 -33t76.5 -34.5t76.5 -47.5t58.5 -71t23.5 -105q0 -54 -18.5 -95.5t-52 -69.5t-79.5 -42.5t-100 -14.5q-49 0 -93 11t-77 29t-52 41.5t-19 48.5q0 13 5.5 27.5t14.5 27t21.5 21t26.5 8.5
q18 0 33.5 -11.5t34 -25.5t43 -25.5t59.5 -11.5z" />
    <glyph glyph-name="Sacute" unicode="&#x15a;" horiz-adv-x="533" 
d="M257 130q17 0 34.5 3.5t31.5 11.5t22.5 20.5t8.5 30.5q0 30 -23.5 50.5t-58.5 38t-76.5 36t-76.5 45.5t-58.5 66t-23.5 98q0 56 22.5 95.5t58.5 64t82 36t93 11.5q20 0 53.5 -3t66 -12t56 -26.5t23.5 -46.5q0 -10 -3.5 -24t-11 -27t-19.5 -22t-28 -9q-14 0 -25.5 6
t-26 13t-34.5 13t-51 6q-54 0 -77 -18.5t-23 -41.5q0 -25 23.5 -42t58.5 -33t76.5 -34.5t76.5 -47.5t58.5 -71t23.5 -105q0 -54 -18.5 -95.5t-52 -69.5t-79.5 -42.5t-100 -14.5q-49 0 -93 11t-77 29t-52 41.5t-19 48.5q0 13 5.5 27.5t14.5 27t21.5 21t26.5 8.5
q18 0 33.5 -11.5t34 -25.5t43 -25.5t59.5 -11.5zM239 802q-10 -4 -15 -4q-20 0 -33 19t-13 39q0 25 20 35l140 65q7 3 14 3q10 0 18.5 -5.5t15 -14t10 -18.5t3.5 -20q0 -11 -4.5 -20t-15.5 -14z" />
    <glyph glyph-name="Scaron" unicode="&#x160;" horiz-adv-x="533" 
d="M257 130q17 0 34.5 3.5t31.5 11.5t22.5 20.5t8.5 30.5q0 30 -23.5 50.5t-58.5 38t-76.5 36t-76.5 45.5t-58.5 66t-23.5 98q0 56 22.5 95.5t58.5 64t82 36t93 11.5q20 0 53.5 -3t66 -12t56 -26.5t23.5 -46.5q0 -10 -3.5 -24t-11 -27t-19.5 -22t-28 -9q-14 0 -25.5 6
t-26 13t-34.5 13t-51 6q-54 0 -77 -18.5t-23 -41.5q0 -25 23.5 -42t58.5 -33t76.5 -34.5t76.5 -47.5t58.5 -71t23.5 -105q0 -54 -18.5 -95.5t-52 -69.5t-79.5 -42.5t-100 -14.5q-49 0 -93 11t-77 29t-52 41.5t-19 48.5q0 13 5.5 27.5t14.5 27t21.5 21t26.5 8.5
q18 0 33.5 -11.5t34 -25.5t43 -25.5t59.5 -11.5zM265 912l104 56q6 3 11 3q14 0 22.5 -14.5t8.5 -31.5q0 -13 -5.5 -24.5t-19.5 -19.5l-104 -56q-10 -5 -17 -5t-17 5l-104 56q-14 8 -19.5 19.5t-5.5 24.5q0 17 8.5 31.5t22.5 14.5q5 0 11 -3z" />
    <glyph glyph-name="Scedilla" unicode="&#x15e;" horiz-adv-x="533" 
d="M257 130q17 0 34.5 3.5t31.5 11.5t22.5 20.5t8.5 30.5q0 30 -23.5 50.5t-58.5 38t-76.5 36t-76.5 45.5t-58.5 66t-23.5 98q0 56 22.5 95.5t58.5 64t82 36t93 11.5q20 0 53.5 -3t66 -12t56 -26.5t23.5 -46.5q0 -10 -3.5 -24t-11 -27t-19.5 -22t-28 -9q-14 0 -25.5 6
t-26 13t-34.5 13t-51 6q-54 0 -77 -18.5t-23 -41.5q0 -25 23.5 -42t58.5 -33t76.5 -34.5t76.5 -47.5t58.5 -71t23.5 -105q0 -48 -14.5 -85.5t-41 -65t-63 -44.5t-81.5 -23l-13 -41q51 -2 75.5 -24.5t24.5 -54.5q0 -13 -5 -29t-17.5 -30.5t-34 -24t-54.5 -9.5q-14 0 -29.5 2
t-28.5 5.5t-21.5 9.5t-8.5 14q0 3 1.5 10t4.5 14t8 12.5t12 5.5q9 0 21.5 -7t36.5 -7q20 0 33 7.5t13 23.5q0 13 -10 22.5t-33 11.5l-62 6l23 79q-47 1 -88.5 12.5t-72 29.5t-48.5 41t-18 47q0 13 5.5 27.5t14.5 27t21.5 21t26.5 8.5q18 0 33.5 -11.5t34 -25.5t43 -25.5
t59.5 -11.5z" />
    <glyph glyph-name="Scircumflex" unicode="&#x15c;" horiz-adv-x="533" 
d="M257 130q17 0 34.5 3.5t31.5 11.5t22.5 20.5t8.5 30.5q0 30 -23.5 50.5t-58.5 38t-76.5 36t-76.5 45.5t-58.5 66t-23.5 98q0 56 22.5 95.5t58.5 64t82 36t93 11.5q20 0 53.5 -3t66 -12t56 -26.5t23.5 -46.5q0 -10 -3.5 -24t-11 -27t-19.5 -22t-28 -9q-14 0 -25.5 6
t-26 13t-34.5 13t-51 6q-54 0 -77 -18.5t-23 -41.5q0 -25 23.5 -42t58.5 -33t76.5 -34.5t76.5 -47.5t58.5 -71t23.5 -105q0 -54 -18.5 -95.5t-52 -69.5t-79.5 -42.5t-100 -14.5q-49 0 -93 11t-77 29t-52 41.5t-19 48.5q0 13 5.5 27.5t14.5 27t21.5 21t26.5 8.5
q18 0 33.5 -11.5t34 -25.5t43 -25.5t59.5 -11.5zM160 811q-6 -3 -11 -3q-14 0 -22.5 14.5t-8.5 31.5q0 13 5.5 24.5t19.5 19.5l104 56q10 5 17 5t17 -5l104 -56q14 -8 19.5 -19.5t5.5 -24.5q0 -17 -8.5 -31.5t-22.5 -14.5q-5 0 -11 3l-104 56z" />
    <glyph glyph-name="Scommaaccent" unicode="&#x218;" horiz-adv-x="533" 
d="M257 130q17 0 34.5 3.5t31.5 11.5t22.5 20.5t8.5 30.5q0 30 -23.5 50.5t-58.5 38t-76.5 36t-76.5 45.5t-58.5 66t-23.5 98q0 56 22.5 95.5t58.5 64t82 36t93 11.5q20 0 53.5 -3t66 -12t56 -26.5t23.5 -46.5q0 -10 -3.5 -24t-11 -27t-19.5 -22t-28 -9q-14 0 -25.5 6
t-26 13t-34.5 13t-51 6q-54 0 -77 -18.5t-23 -41.5q0 -25 23.5 -42t58.5 -33t76.5 -34.5t76.5 -47.5t58.5 -71t23.5 -105q0 -54 -18.5 -95.5t-52 -69.5t-79.5 -42.5t-100 -14.5q-49 0 -93 11t-77 29t-52 41.5t-19 48.5q0 13 5.5 27.5t14.5 27t21.5 21t26.5 8.5
q18 0 33.5 -11.5t34 -25.5t43 -25.5t59.5 -11.5zM226 -205q-10 -4 -15 -4q-20 0 -33 19t-13 39q0 25 20 35l140 65q7 3 14 3q10 0 18.5 -5.5t15 -14t10 -18.5t3.5 -20q0 -11 -4.5 -20t-15.5 -14z" />
    <glyph glyph-name="T" unicode="T" horiz-adv-x="542" 
d="M487 731q25 0 36 -22t11 -47q0 -29 -12 -50t-35 -21h-138v-543q0 -24 -24.5 -36t-53.5 -12t-53.5 12t-24.5 36v543h-138q-23 0 -35 21t-12 50q0 25 11 47t36 22h432z" />
    <glyph glyph-name="Tbar" unicode="&#x166;" horiz-adv-x="542" 
d="M487 731q25 0 36 -22t11 -47q0 -29 -12 -50t-35 -21h-138v-171h67q19 0 28.5 -17.5t9.5 -37.5q0 -22 -9.5 -38.5t-28.5 -16.5h-67v-262q0 -24 -24.5 -36t-53.5 -12t-53.5 12t-24.5 36v262h-68q-19 0 -28.5 17t-9.5 38q0 20 9.5 37.5t28.5 17.5h68v171h-138q-23 0 -35 21
t-12 50q0 25 11 47t36 22h432z" />
    <glyph glyph-name="Tcaron" unicode="&#x164;" horiz-adv-x="542" 
d="M487 731q25 0 36 -22t11 -47q0 -29 -12 -50t-35 -21h-138v-543q0 -24 -24.5 -36t-53.5 -12t-53.5 12t-24.5 36v543h-138q-23 0 -35 21t-12 50q0 25 11 47t36 22h432zM270 912l104 56q6 3 11 3q14 0 22.5 -14.5t8.5 -31.5q0 -13 -5.5 -24.5t-19.5 -19.5l-104 -56
q-10 -5 -17 -5t-17 5l-104 56q-14 8 -19.5 19.5t-5.5 24.5q0 17 8.5 31.5t22.5 14.5q5 0 11 -3z" />
    <glyph glyph-name="Tcommaaccent" unicode="&#x162;" horiz-adv-x="542" 
d="M487 731q25 0 36 -22t11 -47q0 -29 -12 -50t-35 -21h-138v-543q0 -24 -24.5 -36t-53.5 -12t-53.5 12t-24.5 36v543h-138q-23 0 -35 21t-12 50q0 25 11 47t36 22h432zM218 -205q-10 -4 -15 -4q-20 0 -33 19t-13 39q0 25 20 35l140 65q7 3 14 3q10 0 18.5 -5.5t15 -14
t10 -18.5t3.5 -20q0 -11 -4.5 -20t-15.5 -14z" />
    <glyph glyph-name="Thorn" unicode="&#xde;" horiz-adv-x="529" 
d="M128 748q35 0 58 -13t23 -34v-154q16 29 48.5 52.5t76.5 23.5q38 0 70.5 -16.5t56.5 -45t38 -67t14 -81.5v-70q0 -42 -14 -80t-38 -67.5t-55.5 -47t-66.5 -17.5q-22 0 -42.5 6.5t-37.5 18t-30 26t-20 29.5v-163q0 -18 -23 -33t-56 -15t-54.5 15t-21.5 33v653
q0 21 21.5 34t52.5 13zM358 413q0 29 -22 52t-54 23q-27 0 -50 -20t-23 -55v-83q0 -6 5.5 -17t15.5 -21.5t23.5 -18t30.5 -7.5q15 0 28 6.5t23.5 17.5t16.5 24.5t6 28.5v70z" />
    <glyph glyph-name="U" unicode="U" horiz-adv-x="606" 
d="M399 684q0 25 24 36t54 11q14 0 28 -2.5t25 -8.5t18 -15t7 -21v-454q0 -65 -19.5 -109.5t-53.5 -73t-80 -41t-99 -12.5t-99 12.5t-80 41t-53.5 73t-19.5 109.5v454q0 25 24 36t54 11q14 0 28 -2.5t25 -8.5t18 -15t7 -21v-454q0 -51 25.5 -75.5t70.5 -24.5t70.5 24.5
t25.5 75.5v454z" />
    <glyph glyph-name="Uacute" unicode="&#xda;" horiz-adv-x="606" 
d="M399 684q0 25 24 36t54 11q14 0 28 -2.5t25 -8.5t18 -15t7 -21v-454q0 -65 -19.5 -109.5t-53.5 -73t-80 -41t-99 -12.5t-99 12.5t-80 41t-53.5 73t-19.5 109.5v454q0 25 24 36t54 11q14 0 28 -2.5t25 -8.5t18 -15t7 -21v-454q0 -51 25.5 -75.5t70.5 -24.5t70.5 24.5
t25.5 75.5v454zM281 802q-10 -4 -15 -4q-20 0 -33 19t-13 39q0 25 20 35l140 65q7 3 14 3q10 0 18.5 -5.5t15 -14t10 -18.5t3.5 -20q0 -11 -4.5 -20t-15.5 -14z" />
    <glyph glyph-name="Ubreve" unicode="&#x16c;" horiz-adv-x="606" 
d="M399 684q0 25 24 36t54 11q14 0 28 -2.5t25 -8.5t18 -15t7 -21v-454q0 -65 -19.5 -109.5t-53.5 -73t-80 -41t-99 -12.5t-99 12.5t-80 41t-53.5 73t-19.5 109.5v454q0 25 24 36t54 11q14 0 28 -2.5t25 -8.5t18 -15t7 -21v-454q0 -51 25.5 -75.5t70.5 -24.5t70.5 24.5
t25.5 75.5v454zM438 963q0 -28 -11.5 -53t-31 -44t-44.5 -30.5t-52 -11.5t-52.5 11.5t-45 30.5t-31 44t-11.5 53h80q0 -32 19 -52.5t41 -20.5q21 0 40 20.5t19 52.5h80z" />
    <glyph glyph-name="Ucircumflex" unicode="&#xdb;" horiz-adv-x="606" 
d="M399 684q0 25 24 36t54 11q14 0 28 -2.5t25 -8.5t18 -15t7 -21v-454q0 -65 -19.5 -109.5t-53.5 -73t-80 -41t-99 -12.5t-99 12.5t-80 41t-53.5 73t-19.5 109.5v454q0 25 24 36t54 11q14 0 28 -2.5t25 -8.5t18 -15t7 -21v-454q0 -51 25.5 -75.5t70.5 -24.5t70.5 24.5
t25.5 75.5v454zM192 811q-6 -3 -11 -3q-14 0 -22.5 14.5t-8.5 31.5q0 13 5.5 24.5t19.5 19.5l104 56q10 5 17 5t17 -5l104 -56q14 -8 19.5 -19.5t5.5 -24.5q0 -17 -8.5 -31.5t-22.5 -14.5q-5 0 -11 3l-104 56z" />
    <glyph glyph-name="Udieresis" unicode="&#xdc;" horiz-adv-x="606" 
d="M399 684q0 25 24 36t54 11q14 0 28 -2.5t25 -8.5t18 -15t7 -21v-454q0 -65 -19.5 -109.5t-53.5 -73t-80 -41t-99 -12.5t-99 12.5t-80 41t-53.5 73t-19.5 109.5v454q0 25 24 36t54 11q14 0 28 -2.5t25 -8.5t18 -15t7 -21v-454q0 -51 25.5 -75.5t70.5 -24.5t70.5 24.5
t25.5 75.5v454zM223 927q23 0 39.5 -17.5t16.5 -40.5t-16.5 -41t-39.5 -18t-40 18t-17 41t17 40.5t40 17.5zM383 927q23 0 39.5 -17.5t16.5 -40.5t-16.5 -41t-39.5 -18t-40 18t-17 41t17 40.5t40 17.5z" />
    <glyph glyph-name="Ugrave" unicode="&#xd9;" horiz-adv-x="606" 
d="M399 684q0 25 24 36t54 11q14 0 28 -2.5t25 -8.5t18 -15t7 -21v-454q0 -65 -19.5 -109.5t-53.5 -73t-80 -41t-99 -12.5t-99 12.5t-80 41t-53.5 73t-19.5 109.5v454q0 25 24 36t54 11q14 0 28 -2.5t25 -8.5t18 -15t7 -21v-454q0 -51 25.5 -75.5t70.5 -24.5t70.5 24.5
t25.5 75.5v454zM190 867q-11 5 -15.5 14t-4.5 20q0 10 3.5 20t10 18.5t15 14t18.5 5.5q6 0 14 -3l140 -65q20 -10 20 -35q0 -20 -13 -39t-33 -19q-5 0 -15 4z" />
    <glyph glyph-name="Uhungarumlaut" unicode="&#x170;" horiz-adv-x="606" 
d="M399 684q0 25 24 36t54 11q14 0 28 -2.5t25 -8.5t18 -15t7 -21v-454q0 -65 -19.5 -109.5t-53.5 -73t-80 -41t-99 -12.5t-99 12.5t-80 41t-53.5 73t-19.5 109.5v454q0 25 24 36t54 11q14 0 28 -2.5t25 -8.5t18 -15t7 -21v-454q0 -51 25.5 -75.5t70.5 -24.5t70.5 24.5
t25.5 75.5v454zM235 806q-8 -11 -21 -11q-17 0 -31.5 14.5t-14.5 29.5q0 9 7 17l79 95q5 6 10.5 8t11.5 2q16 0 30 -14.5t14 -28.5q0 -10 -6 -17zM395 806q-8 -11 -21 -11q-17 0 -31.5 14.5t-14.5 29.5q0 9 7 17l79 95q5 6 10.5 8t11.5 2q16 0 30 -14.5t14 -28.5
q0 -10 -6 -17z" />
    <glyph glyph-name="Umacron" unicode="&#x16a;" horiz-adv-x="606" 
d="M399 684q0 25 24 36t54 11q14 0 28 -2.5t25 -8.5t18 -15t7 -21v-454q0 -65 -19.5 -109.5t-53.5 -73t-80 -41t-99 -12.5t-99 12.5t-80 41t-53.5 73t-19.5 109.5v454q0 25 24 36t54 11q14 0 28 -2.5t25 -8.5t18 -15t7 -21v-454q0 -51 25.5 -75.5t70.5 -24.5t70.5 24.5
t25.5 75.5v454zM153 888q0 21 13 35.5t34 14.5h200q18 0 33 -14.5t15 -35.5q0 -22 -15 -35.5t-33 -13.5h-200q-21 0 -34 13.5t-13 35.5z" />
    <glyph glyph-name="Uogonek" unicode="&#x172;" horiz-adv-x="606" 
d="M388 -155q14 0 19.5 -11.5t5.5 -22.5t-5.5 -20t-25.5 -9q-66 0 -95.5 28.5t-29.5 68.5q0 29 13.5 59.5t39.5 55.5h-7q-53 0 -99 12.5t-80 41t-53.5 73t-19.5 109.5v454q0 25 24 36t54 11q14 0 28 -2.5t25 -8.5t18 -15t7 -21v-454q0 -51 25.5 -75.5t70.5 -24.5t70.5 24.5
t25.5 75.5v454q0 25 24 36t54 11q14 0 28 -2.5t25 -8.5t18 -15t7 -21v-454q0 -95 -40.5 -148t-105.5 -73q-17 -9 -31.5 -23t-25 -30t-16.5 -32t-6 -31q0 -21 13 -34.5t45 -13.5z" />
    <glyph glyph-name="Uring" unicode="&#x16e;" horiz-adv-x="606" 
d="M399 684q0 25 24 36t54 11q14 0 28 -2.5t25 -8.5t18 -15t7 -21v-454q0 -65 -19.5 -109.5t-53.5 -73t-80 -41t-99 -12.5t-99 12.5t-80 41t-53.5 73t-19.5 109.5v454q0 25 24 36t54 11q14 0 28 -2.5t25 -8.5t18 -15t7 -21v-454q0 -51 25.5 -75.5t70.5 -24.5t70.5 24.5
t25.5 75.5v454zM301 1008q20 0 38.5 -8.5t32.5 -22.5t22 -32t8 -38t-8.5 -39t-22.5 -33t-32 -22.5t-38 -8.5t-38 8.5t-31.5 22.5t-21.5 33t-8 39q0 19 7.5 37.5t21 32.5t31.5 22.5t39 8.5zM341 906q0 15 -11 27t-28 12t-29 -12.5t-12 -26.5q0 -15 12 -28.5t29 -13.5t28 13
t11 29z" />
    <glyph glyph-name="Utilde" unicode="&#x168;" horiz-adv-x="606" 
d="M399 684q0 25 24 36t54 11q14 0 28 -2.5t25 -8.5t18 -15t7 -21v-454q0 -65 -19.5 -109.5t-53.5 -73t-80 -41t-99 -12.5t-99 12.5t-80 41t-53.5 73t-19.5 109.5v454q0 25 24 36t54 11q14 0 28 -2.5t25 -8.5t18 -15t7 -21v-454q0 -51 25.5 -75.5t70.5 -24.5t70.5 24.5
t25.5 75.5v454zM243 845q-16 0 -28 -3.5t-22 -7t-18.5 -7t-17.5 -3.5q-12 0 -19 6t-11.5 14.5t-6 16.5t-1.5 12q0 27 10.5 41.5t25 21.5t28.5 8.5t21 1.5q23 0 41 -4t34.5 -9.5t33 -9.5t37.5 -4q16 0 28 3.5t22 7t18.5 7t17.5 3.5q12 0 19 -6.5t11.5 -14.5t6 -16t1.5 -12
q0 -27 -10.5 -41.5t-25 -21.5t-28.5 -8.5t-21 -1.5q-27 0 -46 4t-35.5 9.5t-31.5 9.5t-33 4z" />
    <glyph glyph-name="V" unicode="V" horiz-adv-x="589" 
d="M6 656q-2 8 -2 11q0 14 9.5 25.5t24.5 20t32.5 13.5t33.5 5q19 0 32.5 -6.5t18.5 -22.5l140 -513l139 513q5 16 18.5 22.5t32.5 6.5q16 0 33.5 -5t32.5 -13.5t24.5 -20t9.5 -25.5q0 -3 -2 -11l-186 -610q-8 -26 -37.5 -39t-64.5 -13t-64.5 13t-37.5 39z" />
    <glyph glyph-name="W" unicode="W" horiz-adv-x="920" 
d="M716 46q-9 -26 -38.5 -39t-64.5 -13q-17 0 -33.5 3t-30.5 9.5t-24 16.5t-13 23l-52 237l-52 -237q-3 -13 -13 -23t-24 -16.5t-30.5 -9.5t-33.5 -3t-34 3t-31 9.5t-24 16.5t-14 23l-199 610q-2 6 -2 13q0 13 9.5 24t24 19.5t32.5 13.5t35 5q18 0 31.5 -6.5t18.5 -22.5
l152 -513l79 338q5 20 27 30.5t48 10.5t48 -10.5t27 -30.5l79 -338l152 513q5 16 18.5 22.5t31.5 6.5q17 0 35 -5t32.5 -13.5t24 -19.5t9.5 -24q0 -7 -2 -13z" />
    <glyph glyph-name="Wacute" unicode="&#x1e82;" horiz-adv-x="920" 
d="M716 46q-9 -26 -38.5 -39t-64.5 -13q-17 0 -33.5 3t-30.5 9.5t-24 16.5t-13 23l-52 237l-52 -237q-3 -13 -13 -23t-24 -16.5t-30.5 -9.5t-33.5 -3t-34 3t-31 9.5t-24 16.5t-14 23l-199 610q-2 6 -2 13q0 13 9.5 24t24 19.5t32.5 13.5t35 5q18 0 31.5 -6.5t18.5 -22.5
l152 -513l79 338q5 20 27 30.5t48 10.5t48 -10.5t27 -30.5l79 -338l152 513q5 16 18.5 22.5t31.5 6.5q17 0 35 -5t32.5 -13.5t24 -19.5t9.5 -24q0 -7 -2 -13zM431 802q-10 -4 -15 -4q-20 0 -33 19t-13 39q0 25 20 35l140 65q7 3 14 3q10 0 18.5 -5.5t15 -14t10 -18.5
t3.5 -20q0 -11 -4.5 -20t-15.5 -14z" />
    <glyph glyph-name="Wcircumflex" unicode="&#x174;" horiz-adv-x="920" 
d="M716 46q-9 -26 -38.5 -39t-64.5 -13q-17 0 -33.5 3t-30.5 9.5t-24 16.5t-13 23l-52 237l-52 -237q-3 -13 -13 -23t-24 -16.5t-30.5 -9.5t-33.5 -3t-34 3t-31 9.5t-24 16.5t-14 23l-199 610q-2 6 -2 13q0 13 9.5 24t24 19.5t32.5 13.5t35 5q18 0 31.5 -6.5t18.5 -22.5
l152 -513l79 338q5 20 27 30.5t48 10.5t48 -10.5t27 -30.5l79 -338l152 513q5 16 18.5 22.5t31.5 6.5q17 0 35 -5t32.5 -13.5t24 -19.5t9.5 -24q0 -7 -2 -13zM356 811q-6 -3 -11 -3q-14 0 -22.5 14.5t-8.5 31.5q0 13 5.5 24.5t19.5 19.5l104 56q10 5 17 5t17 -5l104 -56
q14 -8 19.5 -19.5t5.5 -24.5q0 -17 -8.5 -31.5t-22.5 -14.5q-5 0 -11 3l-104 56z" />
    <glyph glyph-name="Wdieresis" unicode="&#x1e84;" horiz-adv-x="920" 
d="M716 46q-9 -26 -38.5 -39t-64.5 -13q-17 0 -33.5 3t-30.5 9.5t-24 16.5t-13 23l-52 237l-52 -237q-3 -13 -13 -23t-24 -16.5t-30.5 -9.5t-33.5 -3t-34 3t-31 9.5t-24 16.5t-14 23l-199 610q-2 6 -2 13q0 13 9.5 24t24 19.5t32.5 13.5t35 5q18 0 31.5 -6.5t18.5 -22.5
l152 -513l79 338q5 20 27 30.5t48 10.5t48 -10.5t27 -30.5l79 -338l152 513q5 16 18.5 22.5t31.5 6.5q17 0 35 -5t32.5 -13.5t24 -19.5t9.5 -24q0 -7 -2 -13zM381 927q23 0 39.5 -17.5t16.5 -40.5t-16.5 -41t-39.5 -18t-40 18t-17 41t17 40.5t40 17.5zM541 927
q23 0 39.5 -17.5t16.5 -40.5t-16.5 -41t-39.5 -18t-40 18t-17 41t17 40.5t40 17.5z" />
    <glyph glyph-name="Wgrave" unicode="&#x1e80;" horiz-adv-x="920" 
d="M716 46q-9 -26 -38.5 -39t-64.5 -13q-17 0 -33.5 3t-30.5 9.5t-24 16.5t-13 23l-52 237l-52 -237q-3 -13 -13 -23t-24 -16.5t-30.5 -9.5t-33.5 -3t-34 3t-31 9.5t-24 16.5t-14 23l-199 610q-2 6 -2 13q0 13 9.5 24t24 19.5t32.5 13.5t35 5q18 0 31.5 -6.5t18.5 -22.5
l152 -513l79 338q5 20 27 30.5t48 10.5t48 -10.5t27 -30.5l79 -338l152 513q5 16 18.5 22.5t31.5 6.5q17 0 35 -5t32.5 -13.5t24 -19.5t9.5 -24q0 -7 -2 -13zM350 867q-11 5 -15.5 14t-4.5 20q0 10 3.5 20t10 18.5t15 14t18.5 5.5q6 0 14 -3l140 -65q20 -10 20 -35
q0 -20 -13 -39t-33 -19q-5 0 -15 4z" />
    <glyph glyph-name="X" unicode="X" horiz-adv-x="590" 
d="M295 258l-146 -248q-5 -8 -15 -12t-22 -4q-16 0 -34.5 6t-34 16.5t-25.5 24.5t-10 30q0 13 9 28l173 267l-166 266q-10 16 -10 31q0 16 9.5 29.5t24.5 23.5t32.5 15.5t34.5 5.5q33 0 47 -26l133 -232l133 232q14 26 47 26q16 0 34 -5.5t33 -15.5t24.5 -23.5t9.5 -29.5
q0 -15 -10 -31l-166 -266l173 -267q9 -15 9 -28q0 -16 -10 -30t-25.5 -24.5t-34 -16.5t-34.5 -6q-12 0 -22 4t-15 12z" />
    <glyph glyph-name="Y" unicode="Y" horiz-adv-x="590" 
d="M217 299q0 8 -4 14l-207 343q-2 4 -2 11q0 14 10.5 25.5t26.5 20t34.5 13.5t34.5 5q19 0 28 -7.5t17 -21.5l140 -257l139 257q8 14 17 21.5t28 7.5q16 0 34.5 -5t34.5 -13.5t26.5 -20t10.5 -25.5q0 -7 -2 -11l-206 -343q-4 -6 -4 -14v-251q0 -24 -24.5 -36t-53.5 -12
t-53.5 12t-24.5 36v251z" />
    <glyph glyph-name="Yacute" unicode="&#xdd;" horiz-adv-x="590" 
d="M217 299q0 8 -4 14l-207 343q-2 4 -2 11q0 14 10.5 25.5t26.5 20t34.5 13.5t34.5 5q19 0 28 -7.5t17 -21.5l140 -257l139 257q8 14 17 21.5t28 7.5q16 0 34.5 -5t34.5 -13.5t26.5 -20t10.5 -25.5q0 -7 -2 -11l-206 -343q-4 -6 -4 -14v-251q0 -24 -24.5 -36t-53.5 -12
t-53.5 12t-24.5 36v251zM266 802q-10 -4 -15 -4q-20 0 -33 19t-13 39q0 25 20 35l140 65q7 3 14 3q10 0 18.5 -5.5t15 -14t10 -18.5t3.5 -20q0 -11 -4.5 -20t-15.5 -14z" />
    <glyph glyph-name="Ycircumflex" unicode="&#x176;" horiz-adv-x="590" 
d="M217 299q0 8 -4 14l-207 343q-2 4 -2 11q0 14 10.5 25.5t26.5 20t34.5 13.5t34.5 5q19 0 28 -7.5t17 -21.5l140 -257l139 257q8 14 17 21.5t28 7.5q16 0 34.5 -5t34.5 -13.5t26.5 -20t10.5 -25.5q0 -7 -2 -11l-206 -343q-4 -6 -4 -14v-251q0 -24 -24.5 -36t-53.5 -12
t-53.5 12t-24.5 36v251zM191 811q-6 -3 -11 -3q-14 0 -22.5 14.5t-8.5 31.5q0 13 5.5 24.5t19.5 19.5l104 56q10 5 17 5t17 -5l104 -56q14 -8 19.5 -19.5t5.5 -24.5q0 -17 -8.5 -31.5t-22.5 -14.5q-5 0 -11 3l-104 56z" />
    <glyph glyph-name="Ydieresis" unicode="&#x178;" horiz-adv-x="590" 
d="M217 299q0 8 -4 14l-207 343q-2 4 -2 11q0 14 10.5 25.5t26.5 20t34.5 13.5t34.5 5q19 0 28 -7.5t17 -21.5l140 -257l139 257q8 14 17 21.5t28 7.5q16 0 34.5 -5t34.5 -13.5t26.5 -20t10.5 -25.5q0 -7 -2 -11l-206 -343q-4 -6 -4 -14v-251q0 -24 -24.5 -36t-53.5 -12
t-53.5 12t-24.5 36v251zM216 927q23 0 39.5 -17.5t16.5 -40.5t-16.5 -41t-39.5 -18t-40 18t-17 41t17 40.5t40 17.5zM376 927q23 0 39.5 -17.5t16.5 -40.5t-16.5 -41t-39.5 -18t-40 18t-17 41t17 40.5t40 17.5z" />
    <glyph glyph-name="Ygrave" unicode="&#x1ef2;" horiz-adv-x="590" 
d="M217 299q0 8 -4 14l-207 343q-2 4 -2 11q0 14 10.5 25.5t26.5 20t34.5 13.5t34.5 5q19 0 28 -7.5t17 -21.5l140 -257l139 257q8 14 17 21.5t28 7.5q16 0 34.5 -5t34.5 -13.5t26.5 -20t10.5 -25.5q0 -7 -2 -11l-206 -343q-4 -6 -4 -14v-251q0 -24 -24.5 -36t-53.5 -12
t-53.5 12t-24.5 36v251zM184 867q-11 5 -15.5 14t-4.5 20q0 10 3.5 20t10 18.5t15 14t18.5 5.5q6 0 14 -3l140 -65q20 -10 20 -35q0 -20 -13 -39t-33 -19q-5 0 -15 4z" />
    <glyph glyph-name="Z" unicode="Z" horiz-adv-x="536" 
d="M208 136h272q23 0 35 -22t12 -46t-12 -46t-35 -22h-426q-24 0 -34.5 11.5t-10.5 29.5q0 26 17 55l282 499h-232q-23 0 -35 20.5t-12 47.5q0 25 11 46.5t36 21.5h386q23 0 34 -11.5t11 -29.5q0 -24 -17 -55z" />
    <glyph glyph-name="Zacute" unicode="&#x179;" horiz-adv-x="536" 
d="M208 136h272q23 0 35 -22t12 -46t-12 -46t-35 -22h-426q-24 0 -34.5 11.5t-10.5 29.5q0 26 17 55l282 499h-232q-23 0 -35 20.5t-12 47.5q0 25 11 46.5t36 21.5h386q23 0 34 -11.5t11 -29.5q0 -24 -17 -55zM252 802q-10 -4 -15 -4q-20 0 -33 19t-13 39q0 25 20 35l140 65
q7 3 14 3q10 0 18.5 -5.5t15 -14t10 -18.5t3.5 -20q0 -11 -4.5 -20t-15.5 -14z" />
    <glyph glyph-name="Zcaron" unicode="&#x17d;" horiz-adv-x="536" 
d="M208 136h272q23 0 35 -22t12 -46t-12 -46t-35 -22h-426q-24 0 -34.5 11.5t-10.5 29.5q0 26 17 55l282 499h-232q-23 0 -35 20.5t-12 47.5q0 25 11 46.5t36 21.5h386q23 0 34 -11.5t11 -29.5q0 -24 -17 -55zM274 912l104 56q6 3 11 3q14 0 22.5 -14.5t8.5 -31.5
q0 -13 -5.5 -24.5t-19.5 -19.5l-104 -56q-10 -5 -17 -5t-17 5l-104 56q-14 8 -19.5 19.5t-5.5 24.5q0 17 8.5 31.5t22.5 14.5q5 0 11 -3z" />
    <glyph glyph-name="Zdotaccent" unicode="&#x17b;" horiz-adv-x="536" 
d="M208 136h272q23 0 35 -22t12 -46t-12 -46t-35 -22h-426q-24 0 -34.5 11.5t-10.5 29.5q0 26 17 55l282 499h-232q-23 0 -35 20.5t-12 47.5q0 25 11 46.5t36 21.5h386q23 0 34 -11.5t11 -29.5q0 -24 -17 -55zM283 927q23 0 39.5 -17.5t16.5 -40.5t-16.5 -41t-39.5 -18
t-40 18t-17 41t17 40.5t40 17.5z" />
    <glyph glyph-name="a" unicode="a" horiz-adv-x="484" 
d="M215 482q61 0 104.5 -16.5t71 -43.5t40 -62.5t12.5 -73.5v-238q0 -20 -21.5 -34t-54.5 -14q-29 0 -49 14t-20 34v22q-27 -32 -63.5 -56t-88.5 -24q-26 0 -49 8t-40.5 24.5t-28 41.5t-10.5 59q0 44 17 73t48 46.5t74 24.5t95 7h36v10q0 13 -3.5 26t-12.5 23.5t-23.5 17.5
t-35.5 7q-31 0 -49 -5t-30 -11.5t-20 -11.5t-18 -5q-13 0 -22.5 7t-16 18t-10 24.5t-3.5 27.5q0 18 16.5 32.5t41.5 25t55 16.5t58 6zM288 199h-4q-21 0 -41 -1.5t-35.5 -7.5t-24.5 -16.5t-9 -28.5q0 -22 11 -32t28 -10q12 0 25 7t24 19.5t18.5 29.5t7.5 36v4z" />
    <glyph glyph-name="a.ss01" horiz-adv-x="510" 
d="M223 482q57 0 98.5 -16.5t68.5 -44t40 -63t13 -72.5v-98q0 -20 3 -31.5t7.5 -17.5t10.5 -7.5t11 -2.5q19 -4 26.5 -17t7.5 -42q0 -24 -6 -39.5t-16 -24.5t-23.5 -12.5t-27.5 -3.5q-24 0 -45 6t-38 16.5t-28 25t-14 32.5q-27 -32 -68 -56t-92 -24q-27 0 -51 8t-42 24.5
t-29 41.5t-11 60q0 44 17.5 73t48.5 46t74 24t94 7h36v10q0 13 -3 26t-12 23.5t-25.5 17.5t-43.5 7q-24 0 -40.5 -5t-28.5 -11.5t-21.5 -11.5t-19.5 -5q-12 0 -21.5 7.5t-15.5 18.5t-9.5 23.5t-3.5 21.5q0 22 16.5 38t42.5 26.5t57.5 16t62.5 5.5zM288 199h-4
q-22 0 -42 -1.5t-35 -7.5t-24 -17t-9 -29q0 -21 11 -31t25 -10q13 0 27 7t25 19.5t18.5 29.5t7.5 36v4z" />
    <glyph glyph-name="aacute" unicode="&#xe1;" horiz-adv-x="484" 
d="M215 482q61 0 104.5 -16.5t71 -43.5t40 -62.5t12.5 -73.5v-238q0 -20 -21.5 -34t-54.5 -14q-29 0 -49 14t-20 34v22q-27 -32 -63.5 -56t-88.5 -24q-26 0 -49 8t-40.5 24.5t-28 41.5t-10.5 59q0 44 17 73t48 46.5t74 24.5t95 7h36v10q0 13 -3.5 26t-12.5 23.5t-23.5 17.5
t-35.5 7q-31 0 -49 -5t-30 -11.5t-20 -11.5t-18 -5q-13 0 -22.5 7t-16 18t-10 24.5t-3.5 27.5q0 18 16.5 32.5t41.5 25t55 16.5t58 6zM288 199h-4q-21 0 -41 -1.5t-35.5 -7.5t-24.5 -16.5t-9 -28.5q0 -22 11 -32t28 -10q12 0 25 7t24 19.5t18.5 29.5t7.5 36v4zM206 563
q-10 -4 -15 -4q-20 0 -33 19t-13 39q0 25 20 35l140 65q7 3 14 3q10 0 18.5 -5.5t15 -14t10 -18.5t3.5 -20q0 -11 -4.5 -20t-15.5 -14z" />
    <glyph glyph-name="abreve" unicode="&#x103;" horiz-adv-x="484" 
d="M373 724q0 -28 -11.5 -53t-31 -44t-44.5 -30.5t-52 -11.5t-52.5 11.5t-45 30.5t-31 44t-11.5 53h80q0 -32 19 -52.5t41 -20.5q21 0 40 20.5t19 52.5h80zM215 482q61 0 104.5 -16.5t71 -43.5t40 -62.5t12.5 -73.5v-238q0 -20 -21.5 -34t-54.5 -14q-29 0 -49 14t-20 34v22
q-27 -32 -63.5 -56t-88.5 -24q-26 0 -49 8t-40.5 24.5t-28 41.5t-10.5 59q0 44 17 73t48 46.5t74 24.5t95 7h36v10q0 13 -3.5 26t-12.5 23.5t-23.5 17.5t-35.5 7q-31 0 -49 -5t-30 -11.5t-20 -11.5t-18 -5q-13 0 -22.5 7t-16 18t-10 24.5t-3.5 27.5q0 18 16.5 32.5t41.5 25
t55 16.5t58 6zM288 199h-4q-21 0 -41 -1.5t-35.5 -7.5t-24.5 -16.5t-9 -28.5q0 -22 11 -32t28 -10q12 0 25 7t24 19.5t18.5 29.5t7.5 36v4z" />
    <glyph glyph-name="acircumflex" unicode="&#xe2;" horiz-adv-x="484" 
d="M122 572q-6 -3 -11 -3q-14 0 -22.5 14.5t-8.5 31.5q0 13 5.5 24.5t19.5 19.5l104 56q10 5 17 5t17 -5l104 -56q14 -8 19.5 -19.5t5.5 -24.5q0 -17 -8.5 -31.5t-22.5 -14.5q-5 0 -11 3l-104 56zM215 482q61 0 104.5 -16.5t71 -43.5t40 -62.5t12.5 -73.5v-238
q0 -20 -21.5 -34t-54.5 -14q-29 0 -49 14t-20 34v22q-27 -32 -63.5 -56t-88.5 -24q-26 0 -49 8t-40.5 24.5t-28 41.5t-10.5 59q0 44 17 73t48 46.5t74 24.5t95 7h36v10q0 13 -3.5 26t-12.5 23.5t-23.5 17.5t-35.5 7q-31 0 -49 -5t-30 -11.5t-20 -11.5t-18 -5q-13 0 -22.5 7
t-16 18t-10 24.5t-3.5 27.5q0 18 16.5 32.5t41.5 25t55 16.5t58 6zM288 199h-4q-21 0 -41 -1.5t-35.5 -7.5t-24.5 -16.5t-9 -28.5q0 -22 11 -32t28 -10q12 0 25 7t24 19.5t18.5 29.5t7.5 36v4z" />
    <glyph glyph-name="acute" unicode="&#xb4;" horiz-adv-x="221" 
d="M61 563q-10 -4 -15 -4q-20 0 -33 19t-13 39q0 25 20 35l140 65q7 3 14 3q10 0 18.5 -5.5t15 -14t10 -18.5t3.5 -20q0 -11 -4.5 -20t-15.5 -14z" />
    <glyph glyph-name="adieresis" unicode="&#xe4;" horiz-adv-x="484" 
d="M154 688q23 0 39.5 -17.5t16.5 -40.5t-16.5 -41t-39.5 -18t-40 18t-17 41t17 40.5t40 17.5zM314 688q23 0 39.5 -17.5t16.5 -40.5t-16.5 -41t-39.5 -18t-40 18t-17 41t17 40.5t40 17.5zM215 482q61 0 104.5 -16.5t71 -43.5t40 -62.5t12.5 -73.5v-238q0 -20 -21.5 -34
t-54.5 -14q-29 0 -49 14t-20 34v22q-27 -32 -63.5 -56t-88.5 -24q-26 0 -49 8t-40.5 24.5t-28 41.5t-10.5 59q0 44 17 73t48 46.5t74 24.5t95 7h36v10q0 13 -3.5 26t-12.5 23.5t-23.5 17.5t-35.5 7q-31 0 -49 -5t-30 -11.5t-20 -11.5t-18 -5q-13 0 -22.5 7t-16 18t-10 24.5
t-3.5 27.5q0 18 16.5 32.5t41.5 25t55 16.5t58 6zM288 199h-4q-21 0 -41 -1.5t-35.5 -7.5t-24.5 -16.5t-9 -28.5q0 -22 11 -32t28 -10q12 0 25 7t24 19.5t18.5 29.5t7.5 36v4z" />
    <glyph glyph-name="ae" unicode="&#xe6;" horiz-adv-x="756" 
d="M517 482q43 0 82 -14t68.5 -39t47 -60t17.5 -77q0 -33 -8.5 -52t-22.5 -28t-31.5 -11t-34.5 -2h-193v-6q0 -37 28 -59.5t74 -22.5q23 0 41 6t32.5 12.5t27 12.5t24.5 6q13 0 24 -7.5t18 -18t11 -22t4 -20.5q0 -14 -13 -30t-37.5 -29.5t-59 -22t-76.5 -8.5
q-60 0 -108 24.5t-81 69.5q-36 -42 -82 -68t-94 -26q-32 0 -60.5 8t-50 24.5t-34.5 41.5t-13 59q0 44 17 73t48 46.5t74 24.5t95 7h36v10q0 13 -3.5 26t-12.5 23.5t-23.5 17.5t-35.5 7q-31 0 -49 -5t-30 -11.5t-20 -11.5t-18 -5q-13 0 -22.5 7t-16 18t-10 24.5t-3.5 27.5
q0 18 16.5 32.5t41.5 25t55 16.5t58 6q54 0 93 -19.5t65 -52.5q29 33 66 52.5t79 19.5zM566 286q11 0 16 5t5 19q0 30 -22.5 45t-50.5 15q-27 0 -49.5 -15t-22.5 -45v-24h124zM287 199h-4q-21 0 -41 -1.5t-35.5 -7.5t-24.5 -16.5t-9 -28.5q0 -22 11 -32t28 -10q12 0 25 7
t24 19.5t18.5 29.5t7.5 36v4z" />
    <glyph glyph-name="aeacute" unicode="&#x1fd;" horiz-adv-x="756" 
d="M517 482q43 0 82 -14t68.5 -39t47 -60t17.5 -77q0 -33 -8.5 -52t-22.5 -28t-31.5 -11t-34.5 -2h-193v-6q0 -37 28 -59.5t74 -22.5q23 0 41 6t32.5 12.5t27 12.5t24.5 6q13 0 24 -7.5t18 -18t11 -22t4 -20.5q0 -14 -13 -30t-37.5 -29.5t-59 -22t-76.5 -8.5
q-60 0 -108 24.5t-81 69.5q-36 -42 -82 -68t-94 -26q-32 0 -60.5 8t-50 24.5t-34.5 41.5t-13 59q0 44 17 73t48 46.5t74 24.5t95 7h36v10q0 13 -3.5 26t-12.5 23.5t-23.5 17.5t-35.5 7q-31 0 -49 -5t-30 -11.5t-20 -11.5t-18 -5q-13 0 -22.5 7t-16 18t-10 24.5t-3.5 27.5
q0 18 16.5 32.5t41.5 25t55 16.5t58 6q54 0 93 -19.5t65 -52.5q29 33 66 52.5t79 19.5zM566 286q11 0 16 5t5 19q0 30 -22.5 45t-50.5 15q-27 0 -49.5 -15t-22.5 -45v-24h124zM287 199h-4q-21 0 -41 -1.5t-35.5 -7.5t-24.5 -16.5t-9 -28.5q0 -22 11 -32t28 -10q12 0 25 7
t24 19.5t18.5 29.5t7.5 36v4zM340 563q-10 -4 -15 -4q-20 0 -33 19t-13 39q0 25 20 35l140 65q7 3 14 3q10 0 18.5 -5.5t15 -14t10 -18.5t3.5 -20q0 -11 -4.5 -20t-15.5 -14z" />
    <glyph glyph-name="agrave" unicode="&#xe0;" horiz-adv-x="484" 
d="M145 628q-11 5 -15.5 14t-4.5 20q0 10 3.5 20t10 18.5t15 14t18.5 5.5q6 0 14 -3l140 -65q20 -10 20 -35q0 -20 -13 -39t-33 -19q-5 0 -15 4zM215 482q61 0 104.5 -16.5t71 -43.5t40 -62.5t12.5 -73.5v-238q0 -20 -21.5 -34t-54.5 -14q-29 0 -49 14t-20 34v22
q-27 -32 -63.5 -56t-88.5 -24q-26 0 -49 8t-40.5 24.5t-28 41.5t-10.5 59q0 44 17 73t48 46.5t74 24.5t95 7h36v10q0 13 -3.5 26t-12.5 23.5t-23.5 17.5t-35.5 7q-31 0 -49 -5t-30 -11.5t-20 -11.5t-18 -5q-13 0 -22.5 7t-16 18t-10 24.5t-3.5 27.5q0 18 16.5 32.5t41.5 25
t55 16.5t58 6zM288 199h-4q-21 0 -41 -1.5t-35.5 -7.5t-24.5 -16.5t-9 -28.5q0 -22 11 -32t28 -10q12 0 25 7t24 19.5t18.5 29.5t7.5 36v4z" />
    <glyph glyph-name="amacron" unicode="&#x101;" horiz-adv-x="484" 
d="M91 649q0 21 13 35.5t34 14.5h200q18 0 33 -14.5t15 -35.5q0 -22 -15 -35.5t-33 -13.5h-200q-21 0 -34 13.5t-13 35.5zM215 482q61 0 104.5 -16.5t71 -43.5t40 -62.5t12.5 -73.5v-238q0 -20 -21.5 -34t-54.5 -14q-29 0 -49 14t-20 34v22q-27 -32 -63.5 -56t-88.5 -24
q-26 0 -49 8t-40.5 24.5t-28 41.5t-10.5 59q0 44 17 73t48 46.5t74 24.5t95 7h36v10q0 13 -3.5 26t-12.5 23.5t-23.5 17.5t-35.5 7q-31 0 -49 -5t-30 -11.5t-20 -11.5t-18 -5q-13 0 -22.5 7t-16 18t-10 24.5t-3.5 27.5q0 18 16.5 32.5t41.5 25t55 16.5t58 6zM288 199h-4
q-21 0 -41 -1.5t-35.5 -7.5t-24.5 -16.5t-9 -28.5q0 -22 11 -32t28 -10q12 0 25 7t24 19.5t18.5 29.5t7.5 36v4z" />
    <glyph glyph-name="ampersand" unicode="&#x26;" horiz-adv-x="655" 
d="M468 252q14 34 14.5 63.5t3 50.5t15.5 33t53 12q41 0 53.5 -19t12.5 -52q0 -41 -14.5 -89t-43.5 -95l76 -78q5 -6 7 -12.5t2 -12.5q0 -12 -6 -23t-16.5 -20t-23.5 -14.5t-26 -5.5q-10 0 -18.5 3.5t-19.5 14.5l-54 55q-40 -33 -91 -53t-114 -20q-59 0 -107 18t-82 49
t-52.5 71.5t-18.5 84.5q0 33 9.5 63.5t26 57t38.5 48t46 36.5q-28 31 -46.5 64.5t-18.5 80.5q0 44 17 78.5t47 58t70.5 36t86.5 12.5q47 0 86 -12t66.5 -30.5t42.5 -40.5t15 -42q0 -14 -6.5 -26.5t-17 -23t-24 -16.5t-26.5 -6q-19 0 -32 11.5t-26.5 25t-31 25t-45.5 11.5
q-32 0 -55 -17t-23 -51q0 -21 11 -42.5t27.5 -41t35 -38l33.5 -33.5zM295 125q32 0 56 8.5t41 23.5l-167 171q-22 -19 -36 -44.5t-14 -57.5q0 -45 30.5 -73t89.5 -28z" />
    <glyph glyph-name="aogonek" unicode="&#x105;" horiz-adv-x="484" 
d="M390 -155q14 0 19.5 -11.5t5.5 -22.5t-5.5 -20t-25.5 -9q-66 0 -95.5 28.5t-29.5 68.5q0 33 18 68t51 61q-30 13 -30 40v22q-27 -32 -63.5 -56t-88.5 -24q-26 0 -49 8t-40.5 24.5t-28 41.5t-10.5 59q0 44 17 73t48 46.5t74 24.5t95 7h36v10q0 13 -3.5 26t-12.5 23.5
t-23.5 17.5t-35.5 7q-31 0 -49 -5t-30 -11.5t-20 -11.5t-18 -5q-13 0 -22.5 7t-16 18t-10 24.5t-3.5 27.5q0 18 16.5 32.5t41.5 25t55 16.5t58 6q61 0 104.5 -16.5t71 -43.5t40 -62.5t12.5 -73.5v-238q0 -29 -37 -42q-32 -19 -53 -51.5t-21 -61.5q0 -21 13 -34.5t45 -13.5z
M288 199h-4q-21 0 -41 -1.5t-35.5 -7.5t-24.5 -16.5t-9 -28.5q0 -22 11 -32t28 -10q12 0 25 7t24 19.5t18.5 29.5t7.5 36v4z" />
    <glyph glyph-name="approxequal" unicode="&#x2248;" horiz-adv-x="444" 
d="M169 341q-16 0 -28 -3.5t-22 -7t-18.5 -7t-17.5 -3.5q-12 0 -19 6.5t-11.5 15.5t-6 18t-1.5 13q0 28 10.5 43.5t25 23t28.5 9t21 1.5q23 0 41 -4t34.5 -9.5t33 -9.5t37.5 -4q16 0 28 3.5t22 7t18.5 7t17.5 3.5q12 0 19 -6.5t11.5 -15.5t6 -18t1.5 -13q0 -28 -10.5 -43.5
t-25 -23t-28.5 -9t-21 -1.5q-27 0 -46 4t-35.5 9.5t-31.5 9.5t-33 4zM169 132q-16 0 -28 -3.5t-22 -7t-18.5 -7t-17.5 -3.5q-12 0 -19 6.5t-11.5 15.5t-6 18t-1.5 13q0 28 10.5 43.5t25 23t28.5 9t21 1.5q23 0 41 -4t34.5 -9.5t33 -9.5t37.5 -4q16 0 28 3.5t22 7t18.5 7
t17.5 3.5q12 0 19 -6.5t11.5 -15.5t6 -18t1.5 -13q0 -28 -10.5 -43.5t-25 -23t-28.5 -9t-21 -1.5q-27 0 -46 4t-35.5 9.5t-31.5 9.5t-33 4z" />
    <glyph glyph-name="aring" unicode="&#xe5;" horiz-adv-x="484" 
d="M236 769q20 0 38.5 -8.5t32.5 -22.5t22 -32t8 -38t-8.5 -39t-22.5 -33t-32 -22.5t-38 -8.5t-38 8.5t-31.5 22.5t-21.5 33t-8 39q0 19 7.5 37.5t21 32.5t31.5 22.5t39 8.5zM276 667q0 15 -11 27t-28 12t-29 -12.5t-12 -26.5q0 -15 12 -28.5t29 -13.5t28 13t11 29zM215 482
q61 0 104.5 -16.5t71 -43.5t40 -62.5t12.5 -73.5v-238q0 -20 -21.5 -34t-54.5 -14q-29 0 -49 14t-20 34v22q-27 -32 -63.5 -56t-88.5 -24q-26 0 -49 8t-40.5 24.5t-28 41.5t-10.5 59q0 44 17 73t48 46.5t74 24.5t95 7h36v10q0 13 -3.5 26t-12.5 23.5t-23.5 17.5t-35.5 7
q-31 0 -49 -5t-30 -11.5t-20 -11.5t-18 -5q-13 0 -22.5 7t-16 18t-10 24.5t-3.5 27.5q0 18 16.5 32.5t41.5 25t55 16.5t58 6zM288 199h-4q-21 0 -41 -1.5t-35.5 -7.5t-24.5 -16.5t-9 -28.5q0 -22 11 -32t28 -10q12 0 25 7t24 19.5t18.5 29.5t7.5 36v4z" />
    <glyph glyph-name="arrowdown" unicode="&#x2193;" horiz-adv-x="771" 
d="M149 164q0 13 6.5 26t16.5 23t23 16.5t27 6.5q18 0 29 -11l71 -71v355q0 21 18.5 34t45.5 13q29 0 46 -13t17 -34v-355l71 71q11 11 29 11q13 0 26.5 -6.5t23.5 -16.5t16.5 -23t6.5 -26q0 -17 -12 -29l-191 -191q-19 -19 -33 -19q-17 1 -34 19l-191 191q-12 12 -12 29z
" />
    <glyph glyph-name="arrowleft" unicode="&#x2190;" horiz-adv-x="771" 
d="M309 477q13 0 26 -6.5t23 -16.5t16.5 -23.5t6.5 -26.5q0 -18 -11 -29l-71 -71h355q21 0 34 -18.5t13 -45.5q0 -29 -13 -46t-34 -17h-355l71 -71q11 -11 11 -29q0 -14 -6.5 -27t-16.5 -23t-23 -16.5t-26 -6.5q-17 0 -29 12l-191 191q-19 19 -19 33q0 15 19 34l191 191
q12 12 29 12z" />
    <glyph glyph-name="arrowright" unicode="&#x2192;" horiz-adv-x="771" 
d="M462 477q17 0 29 -12l191 -191q9 -10 14 -18t5 -16q0 -14 -19 -33l-191 -191q-12 -12 -29 -12q-13 0 -26 6.5t-23 16.5t-16.5 23t-6.5 27q0 18 11 29l71 71h-355q-21 0 -34 17t-13 46q0 27 13 45.5t34 18.5h355l-71 71q-11 11 -11 29q0 13 6.5 26.5t16.5 23.5t23 16.5
t26 6.5z" />
    <glyph glyph-name="arrowup" unicode="&#x2191;" horiz-adv-x="771" 
d="M149 317q0 17 12 29l191 191q17 17 34 19q14 0 33 -19l191 -191q12 -12 12 -29q0 -13 -6.5 -26t-16.5 -23t-23.5 -16.5t-26.5 -6.5q-18 0 -29 11l-71 71v-355q0 -21 -17 -34t-46 -13q-27 0 -45.5 13t-18.5 34v355l-71 -71q-11 -11 -29 -11q-14 0 -27 6.5t-23 16.5
t-16.5 23t-6.5 26z" />
    <glyph glyph-name="asciicircum" unicode="^" horiz-adv-x="292" 
d="M42 572q-6 -3 -11 -3q-14 0 -22.5 14.5t-8.5 31.5q0 13 5.5 24.5t19.5 19.5l104 56q10 5 17 5t17 -5l104 -56q14 -8 19.5 -19.5t5.5 -24.5q0 -17 -8.5 -31.5t-22.5 -14.5q-5 0 -11 3l-104 56z" />
    <glyph glyph-name="asciitilde" unicode="~" horiz-adv-x="411" 
d="M152 219q-16 0 -28 -3.5t-22 -7t-18.5 -7t-17.5 -3.5q-12 0 -19 6t-11.5 14.5t-6 16.5t-1.5 12q0 27 10.5 41.5t25 21.5t28.5 8.5t21 1.5q23 0 41 -4t34.5 -9.5t33 -9.5t37.5 -4q16 0 28 3.5t22 7t18.5 7t17.5 3.5q12 0 19 -6.5t11.5 -14.5t6 -16t1.5 -12
q0 -27 -10.5 -41.5t-25 -21.5t-28.5 -8.5t-21 -1.5q-27 0 -46 4t-35.5 9.5t-31.5 9.5t-33 4z" />
    <glyph glyph-name="asterisk" unicode="*" horiz-adv-x="491" 
d="M402 387q8 -10 8 -29q0 -24 -19.5 -39t-41.5 -15q-8 0 -19 3t-19 16l-65 100l-66 -101q-7 -11 -15.5 -14.5t-19.5 -3.5q-9 0 -20 3.5t-20.5 10t-16 16.5t-6.5 22q0 18 12 32l66 94l-104 30q-17 4 -25.5 17.5t-8.5 33.5t15.5 37.5t39.5 17.5q2 0 6 -0.5t9 -2.5l105 -34
l-5 102q1 25 17 36.5t37 11.5t36.5 -11.5t16.5 -36.5l-4 -104l106 36q7 3 15 3q23 0 37.5 -20t14.5 -42q0 -15 -8 -27.5t-26 -16.5l-102 -24z" />
    <glyph glyph-name="at" unicode="@" horiz-adv-x="753" 
d="M234 358q0 15 13 28.5t34.5 23.5t48 16t53.5 6q32 0 62.5 -8.5t54 -25.5t38 -42.5t14.5 -59.5v-171q5 -28 11 -37.5t17 -9.5q19 0 29.5 15t16 37t7 45t1.5 40q0 135 -58.5 205.5t-186.5 70.5q-75 0 -124.5 -23t-79 -62t-41.5 -90.5t-12 -108.5q0 -53 10.5 -101.5
t36.5 -85t70 -58t110 -21.5q29 0 49.5 3.5t35.5 8t25 8.5t19 4t16 -5t11.5 -11.5t7 -14t2.5 -13.5q0 -18 -20.5 -30.5t-50 -20t-61 -10.5t-53.5 -3q-59 0 -114 21.5t-97.5 65t-68 109t-25.5 153.5q0 78 21.5 145.5t65.5 117t110.5 78t155.5 28.5q81 0 144.5 -23.5
t107.5 -67.5t67 -106t23 -138q0 -49 -9.5 -92t-29.5 -75t-50 -50.5t-70 -18.5q-45 0 -73.5 21.5t-34.5 54.5q-24 -32 -54.5 -52.5t-71.5 -20.5q-22 0 -44.5 7t-40.5 21.5t-29 37t-11 52.5q0 36 15.5 60t43 39t64.5 21.5t80 6.5h27v13q0 64 -74 64q-22 0 -38 -4.5t-27 -9.5
t-19 -9.5t-15 -4.5q-8 0 -14 6t-11 15t-7.5 19t-2.5 17zM448 190h-18q-96 0 -96 -63q0 -41 34 -41q14 0 28 7t25.5 18.5t19 26t7.5 30.5v22z" />
    <glyph glyph-name="atilde" unicode="&#xe3;" horiz-adv-x="484" 
d="M182 606q-16 0 -28 -3.5t-22 -7t-18.5 -7t-17.5 -3.5q-12 0 -19 6t-11.5 14.5t-6 16.5t-1.5 12q0 27 10.5 41.5t25 21.5t28.5 8.5t21 1.5q23 0 41 -4t34.5 -9.5t33 -9.5t37.5 -4q16 0 28 3.5t22 7t18.5 7t17.5 3.5q12 0 19 -6.5t11.5 -14.5t6 -16t1.5 -12
q0 -27 -10.5 -41.5t-25 -21.5t-28.5 -8.5t-21 -1.5q-27 0 -46 4t-35.5 9.5t-31.5 9.5t-33 4zM215 482q61 0 104.5 -16.5t71 -43.5t40 -62.5t12.5 -73.5v-238q0 -20 -21.5 -34t-54.5 -14q-29 0 -49 14t-20 34v22q-27 -32 -63.5 -56t-88.5 -24q-26 0 -49 8t-40.5 24.5
t-28 41.5t-10.5 59q0 44 17 73t48 46.5t74 24.5t95 7h36v10q0 13 -3.5 26t-12.5 23.5t-23.5 17.5t-35.5 7q-31 0 -49 -5t-30 -11.5t-20 -11.5t-18 -5q-13 0 -22.5 7t-16 18t-10 24.5t-3.5 27.5q0 18 16.5 32.5t41.5 25t55 16.5t58 6zM288 199h-4q-21 0 -41 -1.5t-35.5 -7.5
t-24.5 -16.5t-9 -28.5q0 -22 11 -32t28 -10q12 0 25 7t24 19.5t18.5 29.5t7.5 36v4z" />
    <glyph glyph-name="b" unicode="b" horiz-adv-x="533" 
d="M122 748q33 0 56 -13t23 -34v-295q16 29 48.5 52.5t78.5 23.5q37 0 69 -16.5t56 -45t38 -67t14 -81.5v-70q0 -42 -14 -80t-38 -67.5t-55.5 -47t-66.5 -17.5q-24 0 -46 6.5t-40.5 18t-32.5 26t-21 29.5v-22q0 -18 -20 -33t-49 -15q-33 0 -54.5 15t-21.5 33v653
q0 21 21.5 34t54.5 13zM350 272q0 29 -21 52t-52 23q-14 0 -27.5 -5t-24 -15t-17.5 -23.5t-7 -31.5v-83q0 -6 6 -17t16.5 -21.5t24.5 -18t30 -7.5q15 0 28 6.5t23 17.5t15.5 24.5t5.5 28.5v70z" />
    <glyph glyph-name="b.ss02" horiz-adv-x="527" 
d="M500 202q0 -42 -18.5 -80t-50 -67.5t-73.5 -47t-88 -17.5t-87.5 17.5t-73 46.5t-50 67.5t-18.5 80.5v499q0 21 21.5 34t54.5 13t56 -13t23 -34v-295q16 29 48.5 52.5t78.5 23.5q37 0 69 -16.5t56 -45t38 -67t14 -81.5v-70zM345 272q0 29 -21 52t-52 23q-14 0 -27.5 -5
t-24 -15t-17.5 -23.5t-7 -31.5v-70q0 -30 21.5 -53.5t52.5 -23.5t53 23.5t22 53.5v70z" />
    <glyph glyph-name="backslash" unicode="\" horiz-adv-x="382" 
d="M21 689q-3 7 -3 15q0 20 17 35.5t41 15.5q14 0 26.5 -7t18.5 -23l240 -658q2 -5 2 -14q0 -20 -16.5 -37t-39.5 -17q-16 0 -28.5 9t-17.5 23z" />
    <glyph glyph-name="bar" unicode="|" horiz-adv-x="255" 
d="M127 768q32 0 55 -13t23 -34v-694q0 -18 -23 -33t-55 -15q-34 0 -55.5 15t-21.5 33v694q0 21 21.5 34t55.5 13z" />
    <glyph glyph-name="braceleft" unicode="{" horiz-adv-x="380" 
d="M17 387q0 26 9.5 36.5t20.5 15.5t20.5 10t9.5 20q0 8 -2.5 23.5t-5 34t-5 36.5t-2.5 30q0 34 19.5 65.5t50.5 56t70 39t79 14.5q26 0 43 -6t26.5 -16t13.5 -22t4 -24q0 -22 -11.5 -42.5t-35.5 -20.5q-11 0 -28.5 -2.5t-34 -9.5t-28.5 -20t-12 -33q0 -9 2.5 -26t5 -35.5
t5 -35.5t2.5 -26q0 -11 -4 -22t-9.5 -20t-12 -15.5t-10.5 -7.5q11 -3 23.5 -22t12.5 -42q0 -9 -2.5 -32t-5 -48t-5 -47t-2.5 -29q0 -16 11 -26.5t27 -16.5t34 -8t31 -2q14 0 23 -6.5t14.5 -16.5t7.5 -21.5t2 -20.5q0 -66 -89 -66q-39 0 -78 12t-70 34t-50 52t-19 66
q0 13 2.5 36t5 47t5 45t2.5 29q0 16 -9.5 21.5t-20.5 11t-20.5 16t-9.5 37.5z" />
    <glyph glyph-name="braceright" unicode="}" horiz-adv-x="380" 
d="M363 387q0 -27 -9.5 -37.5t-20.5 -16t-20.5 -11t-9.5 -21.5q0 -8 2.5 -29t5 -45t5 -47t2.5 -36q0 -36 -19 -66t-50 -52t-70 -34t-78 -12q-89 0 -89 66q0 9 2 20.5t7.5 21.5t14.5 16.5t23 6.5q13 0 31 2t34 8t27 16.5t11 26.5q0 7 -2.5 29t-5 47t-5 48t-2.5 32
q0 23 12.5 42t23.5 22q-5 1 -11 7.5t-11.5 15.5t-9.5 20t-4 22q0 9 2.5 26t5 35.5t5 35.5t2.5 26q0 20 -12 33t-28.5 20t-34 9.5t-28.5 2.5q-24 0 -35.5 20.5t-11.5 42.5q0 12 4 24t13.5 22t26.5 16t43 6q40 0 79 -14.5t70 -39t50.5 -56t19.5 -65.5q0 -12 -2.5 -30t-5 -36.5
t-5 -34t-2.5 -23.5q0 -15 9.5 -20t20.5 -10t20.5 -15.5t9.5 -36.5z" />
    <glyph glyph-name="bracketleft" unicode="[" horiz-adv-x="355" 
d="M206 115h88q23 0 35 -20.5t12 -48.5q0 -24 -11 -45.5t-36 -21.5h-176q-26 0 -47 12t-21 36v693q0 24 21 36t47 12h176q25 0 36 -21.5t11 -45.5q0 -28 -12 -48.5t-35 -20.5h-88v-517z" />
    <glyph glyph-name="bracketright" unicode="]" horiz-adv-x="355" 
d="M149 632h-88q-23 0 -35 20.5t-12 48.5q0 24 11 45.5t36 21.5h176q26 0 47 -12t21 -36v-693q0 -24 -21 -36t-47 -12h-176q-25 0 -36 21.5t-11 45.5q0 28 12 48.5t35 20.5h88v517z" />
    <glyph glyph-name="breve" unicode="&#x2d8;" horiz-adv-x="279" 
d="M279 724q0 -28 -11.5 -53t-31 -44t-44.5 -30.5t-52 -11.5t-52.5 11.5t-45 30.5t-31 44t-11.5 53h80q0 -32 19 -52.5t41 -20.5q21 0 40 20.5t19 52.5h80z" />
    <glyph glyph-name="brokenbar" unicode="&#xa6;" horiz-adv-x="255" 
d="M127 768q32 0 55 -13t23 -34v-241q0 -18 -23 -33t-55 -15q-34 0 -55.5 15t-21.5 33v241q0 21 21.5 34t55.5 13zM127 315q32 0 55 -13t23 -34v-241q0 -18 -23 -33t-55 -15q-34 0 -55.5 15t-21.5 33v241q0 21 21.5 34t55.5 13z" />
    <glyph glyph-name="bullet" unicode="&#x2022;" horiz-adv-x="335" 
d="M168 435q28 0 53.5 -11t45 -29.5t31 -43t11.5 -51.5t-11.5 -52t-31 -43.5t-45 -29.5t-53.5 -11q-29 0 -54.5 11t-45 29.5t-31 43.5t-11.5 52t11.5 51.5t31 43t45 29.5t54.5 11z" />
    <glyph glyph-name="c" unicode="c" horiz-adv-x="442" 
d="M255 -10q-60 0 -102.5 16t-70.5 44.5t-41 67.5t-13 84v68q0 45 13 83.5t40.5 67t70 45t101.5 16.5q37 0 68 -7t53.5 -18t35 -26.5t12.5 -31.5q0 -11 -4.5 -24t-12 -24.5t-19 -19.5t-24.5 -8q-9 0 -17.5 3.5t-19 8t-25 8.5t-34.5 4q-45 0 -64 -20t-19 -57v-68
q0 -37 19 -57t65 -20q20 0 33.5 4t24 9.5t19 9.5t18.5 4q16 0 28 -7.5t20.5 -18.5t13 -24t4.5 -24q0 -17 -13.5 -33t-36.5 -28t-55 -19.5t-68 -7.5z" />
    <glyph glyph-name="cacute" unicode="&#x107;" horiz-adv-x="442" 
d="M255 -10q-60 0 -102.5 16t-70.5 44.5t-41 67.5t-13 84v68q0 45 13 83.5t40.5 67t70 45t101.5 16.5q37 0 68 -7t53.5 -18t35 -26.5t12.5 -31.5q0 -11 -4.5 -24t-12 -24.5t-19 -19.5t-24.5 -8q-9 0 -17.5 3.5t-19 8t-25 8.5t-34.5 4q-45 0 -64 -20t-19 -57v-68
q0 -37 19 -57t65 -20q20 0 33.5 4t24 9.5t19 9.5t18.5 4q16 0 28 -7.5t20.5 -18.5t13 -24t4.5 -24q0 -17 -13.5 -33t-36.5 -28t-55 -19.5t-68 -7.5zM202 563q-10 -4 -15 -4q-20 0 -33 19t-13 39q0 25 20 35l140 65q7 3 14 3q10 0 18.5 -5.5t15 -14t10 -18.5t3.5 -20
q0 -11 -4.5 -20t-15.5 -14z" />
    <glyph glyph-name="caron" unicode="&#x2c7;" horiz-adv-x="292" 
d="M146 673l104 56q6 3 11 3q14 0 22.5 -14.5t8.5 -31.5q0 -13 -5.5 -24.5t-19.5 -19.5l-104 -56q-10 -5 -17 -5t-17 5l-104 56q-14 8 -19.5 19.5t-5.5 24.5q0 17 8.5 31.5t22.5 14.5q5 0 11 -3z" />
    <glyph glyph-name="caron.alt" horiz-adv-x="153" 
d="M76 741q32 0 54.5 -22.5t22.5 -53.5q0 -5 -1.5 -11t-7.5 -22t-18.5 -46t-34.5 -81q-5 -11 -13.5 -14.5t-16.5 -3.5q-16 0 -33 10t-17 29q0 8 4 16l25 54q-18 11 -29 28.5t-11 39.5q0 32 22 54.5t54 22.5z" />
    <glyph glyph-name="ccaron" unicode="&#x10d;" horiz-adv-x="442" 
d="M255 -10q-60 0 -102.5 16t-70.5 44.5t-41 67.5t-13 84v68q0 45 13 83.5t40.5 67t70 45t101.5 16.5q37 0 68 -7t53.5 -18t35 -26.5t12.5 -31.5q0 -11 -4.5 -24t-12 -24.5t-19 -19.5t-24.5 -8q-9 0 -17.5 3.5t-19 8t-25 8.5t-34.5 4q-45 0 -64 -20t-19 -57v-68
q0 -37 19 -57t65 -20q20 0 33.5 4t24 9.5t19 9.5t18.5 4q16 0 28 -7.5t20.5 -18.5t13 -24t4.5 -24q0 -17 -13.5 -33t-36.5 -28t-55 -19.5t-68 -7.5zM235 673l104 56q6 3 11 3q14 0 22.5 -14.5t8.5 -31.5q0 -13 -5.5 -24.5t-19.5 -19.5l-104 -56q-10 -5 -17 -5t-17 5l-104 56
q-14 8 -19.5 19.5t-5.5 24.5q0 17 8.5 31.5t22.5 14.5q5 0 11 -3z" />
    <glyph glyph-name="ccedilla" unicode="&#xe7;" horiz-adv-x="442" 
d="M428 78q0 -15 -11 -29.5t-30.5 -26.5t-46.5 -20t-58 -11l-13 -38q51 -2 75.5 -24.5t24.5 -54.5q0 -13 -5 -29t-17.5 -30.5t-34 -24t-54.5 -9.5q-14 0 -29.5 2t-28.5 5.5t-21.5 9.5t-8.5 14q0 3 1.5 10t4.5 14t8 12.5t12 5.5q9 0 21.5 -7t36.5 -7q20 0 33 7.5t13 23.5
q0 13 -10 22.5t-33 11.5l-62 6l24 81q-50 4 -86 22t-59.5 45.5t-34.5 64t-11 78.5v68q0 45 13 83.5t40.5 67t70 45t101.5 16.5q37 0 68 -7t53.5 -18t35 -26.5t12.5 -31.5q0 -11 -4.5 -24t-12 -24.5t-19 -19.5t-24.5 -8q-9 0 -17.5 3.5t-19 8t-25 8.5t-34.5 4q-45 0 -64 -20
t-19 -57v-68q0 -37 19 -57t65 -20q20 0 33.5 4t24 9.5t19 9.5t18.5 4q16 0 28 -7.5t20.5 -18.5t13 -24t4.5 -24z" />
    <glyph glyph-name="ccircumflex" unicode="&#x109;" horiz-adv-x="442" 
d="M255 -10q-60 0 -102.5 16t-70.5 44.5t-41 67.5t-13 84v68q0 45 13 83.5t40.5 67t70 45t101.5 16.5q37 0 68 -7t53.5 -18t35 -26.5t12.5 -31.5q0 -11 -4.5 -24t-12 -24.5t-19 -19.5t-24.5 -8q-9 0 -17.5 3.5t-19 8t-25 8.5t-34.5 4q-45 0 -64 -20t-19 -57v-68
q0 -37 19 -57t65 -20q20 0 33.5 4t24 9.5t19 9.5t18.5 4q16 0 28 -7.5t20.5 -18.5t13 -24t4.5 -24q0 -17 -13.5 -33t-36.5 -28t-55 -19.5t-68 -7.5zM138 572q-6 -3 -11 -3q-14 0 -22.5 14.5t-8.5 31.5q0 13 5.5 24.5t19.5 19.5l104 56q10 5 17 5t17 -5l104 -56
q14 -8 19.5 -19.5t5.5 -24.5q0 -17 -8.5 -31.5t-22.5 -14.5q-5 0 -11 3l-104 56z" />
    <glyph glyph-name="cdotaccent" unicode="&#x10b;" horiz-adv-x="442" 
d="M255 -10q-60 0 -102.5 16t-70.5 44.5t-41 67.5t-13 84v68q0 45 13 83.5t40.5 67t70 45t101.5 16.5q37 0 68 -7t53.5 -18t35 -26.5t12.5 -31.5q0 -11 -4.5 -24t-12 -24.5t-19 -19.5t-24.5 -8q-9 0 -17.5 3.5t-19 8t-25 8.5t-34.5 4q-45 0 -64 -20t-19 -57v-68
q0 -37 19 -57t65 -20q20 0 33.5 4t24 9.5t19 9.5t18.5 4q16 0 28 -7.5t20.5 -18.5t13 -24t4.5 -24q0 -17 -13.5 -33t-36.5 -28t-55 -19.5t-68 -7.5zM238 688q23 0 39.5 -17.5t16.5 -40.5t-16.5 -41t-39.5 -18t-40 18t-17 41t17 40.5t40 17.5z" />
    <glyph glyph-name="cedilla" unicode="&#xb8;" horiz-adv-x="199" 
d="M99 -47q51 -2 75.5 -24.5t24.5 -54.5q0 -13 -5 -29t-17.5 -30.5t-34 -24t-54.5 -9.5q-14 0 -29.5 2t-28.5 5.5t-21.5 9.5t-8.5 14q0 3 1.5 10t4.5 14t8 12.5t12 5.5q9 0 21.5 -7t36.5 -7q20 0 33 7.5t13 23.5q0 13 -10 22.5t-33 11.5l-62 6l29 98h64z" />
    <glyph glyph-name="cent" unicode="&#xa2;" horiz-adv-x="448" 
d="M260 695q17 0 30.5 -11t13.5 -29v-68q51 -8 82 -30t31 -48q0 -11 -4.5 -23.5t-12 -23t-19 -17.5t-24.5 -7q-12 0 -24 7.5t-29 14.5v-177q17 8 28 16.5t25 8.5q16 0 28 -6.5t20.5 -17t13 -23t4.5 -23.5q0 -27 -33.5 -50.5t-85.5 -33.5v-73q0 -16 -13.5 -29t-30.5 -13
q-18 0 -30.5 13t-12.5 29v70q-51 4 -87.5 22t-60.5 46t-35 64.5t-11 78.5v18q0 42 11.5 78.5t35 64.5t60 45.5t87.5 22.5v64q0 18 12.5 29t30.5 11zM158 362q0 -32 13.5 -53t45.5 -29v182q-32 -8 -45.5 -29t-13.5 -53v-18z" />
    <glyph glyph-name="circumflex" unicode="&#x2c6;" horiz-adv-x="292" 
d="M42 572q-6 -3 -11 -3q-14 0 -22.5 14.5t-8.5 31.5q0 13 5.5 24.5t19.5 19.5l104 56q10 5 17 5t17 -5l104 -56q14 -8 19.5 -19.5t5.5 -24.5q0 -17 -8.5 -31.5t-22.5 -14.5q-5 0 -11 3l-104 56z" />
    <glyph glyph-name="colon" unicode=":" horiz-adv-x="225" 
d="M113 148q31 0 53.5 -22.5t22.5 -54.5q0 -31 -22.5 -54t-53.5 -23q-33 0 -55 23t-22 54q0 32 22 54.5t55 22.5zM113 422q31 0 53.5 -22.5t22.5 -54.5q0 -31 -22.5 -54t-53.5 -23q-33 0 -55 23t-22 54q0 32 22 54.5t55 22.5z" />
    <glyph glyph-name="comma" unicode="," horiz-adv-x="199" 
d="M99 148q32 0 54.5 -22.5t22.5 -53.5q0 -5 -1.5 -11t-7.5 -22t-18.5 -46t-34.5 -81q-5 -11 -13.5 -14.5t-16.5 -3.5q-16 0 -33 10t-17 29q0 8 4 16l25 54q-18 11 -29 28.5t-11 39.5q0 32 22 54.5t54 22.5z" />
    <glyph glyph-name="commaaccent" unicode="&#xf6c3;" horiz-adv-x="257" 
d="M75 -205q-10 -4 -15 -4q-20 0 -33 19t-13 39q0 25 20 35l140 65q7 3 14 3q10 0 18.5 -5.5t15 -14t10 -18.5t3.5 -20q0 -11 -4.5 -20t-15.5 -14z" />
    <glyph glyph-name="copyright" unicode="&#xa9;" horiz-adv-x="680" 
d="M33 358q0 84 29 145.5t74 102t100 60t107 19.5q53 0 107 -20t98 -60t71.5 -101t27.5 -142q0 -84 -29 -145.5t-74 -102t-100 -60t-107 -19.5q-53 0 -107 20t-98 60t-71.5 101t-27.5 142zM577 362q0 55 -16.5 101.5t-47 80t-73.5 52.5t-97 19t-98 -18.5t-75.5 -52.5
t-49 -81.5t-17.5 -104.5q0 -55 16.5 -101.5t46.5 -80t73.5 -52.5t97.5 -19t98 18.5t75.5 52.5t49 81.5t17.5 104.5zM390 439q0 6 -1 14.5t-5.5 16.5t-14 14t-25.5 6q-47 0 -47 -58v-130q0 -58 47 -58q16 0 24.5 6t13 14.5t6 18.5t2.5 18q1 15 12.5 20t27.5 5q21 0 31 -8
t10 -32q0 -55 -37 -85t-93 -30q-26 0 -48.5 7t-39.5 22.5t-27 40.5t-10 61v130q0 36 10 61t27 40.5t39.5 22.5t48.5 7q56 0 93 -28.5t37 -81.5q0 -24 -10 -32t-30 -8q-17 0 -28.5 6t-12.5 20z" />
    <glyph glyph-name="currency" unicode="&#xa4;" horiz-adv-x="440" 
d="M220 652q30 0 58 -10.5t51 -28.5l24 22q6 5 14 5q12 0 21.5 -10t9.5 -21q0 -7 -6 -13l-26 -24q15 -21 23.5 -46.5t8.5 -52.5q0 -28 -8.5 -53.5t-23.5 -47.5l26 -24q6 -6 6 -13q0 -11 -9.5 -21t-21.5 -10q-8 0 -14 5l-24 22q-23 -20 -51 -30.5t-58 -10.5t-58 10.5
t-51 29.5l-24 -21q-6 -5 -14 -5q-12 0 -21.5 10t-9.5 21q0 7 6 13l26 24q-31 45 -31 100t31 100l-26 24q-6 6 -6 13q0 11 9.5 21t21.5 10q8 0 14 -5l24 -22q23 18 50.5 28.5t58.5 10.5zM318 471q0 19 -7.5 37t-21 32t-31 22.5t-38.5 8.5q-20 0 -38 -8.5t-31 -22t-20.5 -31.5
t-7.5 -37q0 -20 7.5 -38t20.5 -32t31 -22.5t38 -8.5t38 8.5t31.5 22.5t21 32t7.5 37z" />
    <glyph glyph-name="d" unicode="d" horiz-adv-x="533" 
d="M411 748q33 0 54.5 -13t21.5 -34v-653q0 -18 -21.5 -33t-54.5 -15q-29 0 -49 15t-20 33v22q-8 -15 -21.5 -29.5t-32 -26t-40.5 -18t-46 -6.5q-35 0 -66.5 17.5t-55.5 47t-38 67.5t-14 80v70q0 43 14 81.5t38 67t56 45t69 16.5q46 0 78.5 -23.5t48.5 -52.5v295q0 21 23 34
t56 13zM183 202q0 -15 5.5 -28.5t15.5 -24.5t23 -17.5t28 -6.5q16 0 30 7.5t24.5 18t16.5 21.5t6 17v83q0 18 -7 31.5t-17.5 23.5t-24.5 15t-27 5q-31 0 -52 -23t-21 -52v-70z" />
    <glyph glyph-name="dagger" unicode="&#x2020;" horiz-adv-x="453" 
d="M19 454q0 25 13 42.5t34 17.5l82 -6v176q0 19 23 33t55 14q15 0 29 -4t25 -10.5t17.5 -15t6.5 -17.5v-176l82 6q18 0 33 -17.5t15 -42.5q0 -26 -15 -42.5t-33 -16.5l-82 6v-365q0 -11 -6.5 -21.5t-17.5 -18.5t-25 -12.5t-29 -4.5q-32 0 -55 17t-23 40v365l-82 -6
q-21 0 -34 16.5t-13 42.5z" />
    <glyph glyph-name="daggerdbl" unicode="&#x2021;" horiz-adv-x="463" 
d="M24 241q0 25 13 42.5t34 17.5l82 -6v106l-82 -6q-21 0 -34 16.5t-13 42.5q0 25 13 42.5t34 17.5l82 -6v176q0 19 23 33t55 14q15 0 29 -4t25 -10.5t17.5 -15t6.5 -17.5v-176l82 6q18 0 33 -17.5t15 -42.5q0 -26 -15 -42.5t-33 -16.5l-82 6v-106l82 6q18 0 33 -17.5
t15 -42.5q0 -26 -15 -42.5t-33 -16.5l-82 6v-152q0 -11 -6.5 -21.5t-17.5 -18.5t-25 -12.5t-29 -4.5q-32 0 -55 17t-23 40v152l-82 -6q-21 0 -34 16.5t-13 42.5z" />
    <glyph glyph-name="dcaron" unicode="&#x10f;" horiz-adv-x="533" 
d="M411 748q33 0 54.5 -13t21.5 -34v-653q0 -18 -21.5 -33t-54.5 -15q-29 0 -49 15t-20 33v22q-8 -15 -21.5 -29.5t-32 -26t-40.5 -18t-46 -6.5q-35 0 -66.5 17.5t-55.5 47t-38 67.5t-14 80v70q0 43 14 81.5t38 67t56 45t69 16.5q46 0 78.5 -23.5t48.5 -52.5v295q0 21 23 34
t56 13zM183 202q0 -15 5.5 -28.5t15.5 -24.5t23 -17.5t28 -6.5q16 0 30 7.5t24.5 18t16.5 21.5t6 17v83q0 18 -7 31.5t-17.5 23.5t-24.5 15t-27 5q-31 0 -52 -23t-21 -52v-70zM610 741q32 0 54.5 -22.5t22.5 -53.5q0 -5 -1.5 -11t-7.5 -22t-18.5 -46t-34.5 -81
q-5 -11 -13.5 -14.5t-16.5 -3.5q-16 0 -33 10t-17 29q0 8 4 16l25 54q-18 11 -29 28.5t-11 39.5q0 32 22 54.5t54 22.5z" />
    <glyph glyph-name="dcroat" unicode="&#x111;" horiz-adv-x="533" 
d="M411 748q33 0 54.5 -13t21.5 -34v-46h22q19 0 28.5 -17.5t9.5 -37.5q0 -22 -9.5 -38.5t-28.5 -16.5h-22v-497q0 -18 -21.5 -33t-54.5 -15q-29 0 -49 15t-20 33v22q-8 -15 -21.5 -29.5t-32 -26t-40.5 -18t-46 -6.5q-35 0 -66.5 17.5t-55.5 47t-38 67.5t-14 80v70
q0 43 14 81.5t38 67t56 45t69 16.5q46 0 78.5 -23.5t48.5 -52.5v139h-61q-19 0 -28.5 17t-9.5 38q0 20 9.5 37.5t28.5 17.5h61v46q0 21 23 34t56 13zM183 202q0 -15 5.5 -28.5t15.5 -24.5t23 -17.5t28 -6.5q16 0 30 7.5t24.5 18t16.5 21.5t6 17v83q0 18 -7 31.5t-17.5 23.5
t-24.5 15t-27 5q-31 0 -52 -23t-21 -52v-70z" />
    <glyph glyph-name="degree" unicode="&#xb0;" horiz-adv-x="389" 
d="M194 768q36 0 68 -14.5t56.5 -39t39 -57t14.5 -68.5t-14.5 -69.5t-39 -58.5t-56.5 -40t-68 -15t-68 15t-56 40t-38.5 58t-14.5 69t14 68.5t38 57.5t56.5 39.5t68.5 14.5zM292 587q0 19 -7.5 37t-21 32t-31 22.5t-38.5 8.5q-20 0 -38 -8.5t-31 -22t-20.5 -31.5t-7.5 -37
q0 -20 7.5 -38t20.5 -32t31 -22.5t38 -8.5t38 8.5t31.5 22.5t21 32t7.5 37z" />
    <glyph glyph-name="dieresis" unicode="&#xa8;" horiz-adv-x="273" 
d="M57 688q23 0 39.5 -17.5t16.5 -40.5t-16.5 -41t-39.5 -18t-40 18t-17 41t17 40.5t40 17.5zM217 688q23 0 39.5 -17.5t16.5 -40.5t-16.5 -41t-39.5 -18t-40 18t-17 41t17 40.5t40 17.5z" />
    <glyph glyph-name="divide" unicode="&#xf7;" horiz-adv-x="455" 
d="M20 238q0 26 13.5 43t35.5 17h316q19 0 34.5 -17t15.5 -43q0 -27 -15.5 -43t-34.5 -16h-316q-22 0 -35.5 16t-13.5 43zM224 129q24 0 45 -17.5t21 -45.5q0 -13 -6 -24.5t-15 -20.5t-21 -14t-24 -5q-13 0 -25 5t-21.5 14t-15 20.5t-5.5 24.5q0 28 20.5 45.5t46.5 17.5z
M224 475q12 0 24 -5t21 -14t15 -20.5t6 -24.5q0 -27 -21 -45t-45 -18q-26 0 -46.5 18t-20.5 45q0 26 20.5 45t46.5 19z" />
    <glyph glyph-name="dollar" unicode="$" horiz-adv-x="541" 
d="M242 0q-45 1 -84.5 12.5t-69.5 29.5t-47 41t-17 47q0 13 5.5 27.5t14.5 27t21.5 21t26.5 8.5q16 0 31 -9.5t32 -21.5t38 -24t49 -17v162q-35 13 -70.5 29t-64 39t-47 56.5t-18.5 81.5t16.5 83.5t44 60t63.5 39t76 20.5v28q0 11 10.5 19t27.5 8q14 0 26 -8t12 -19v-25
q23 -1 54 -5t58.5 -13.5t47 -26t19.5 -42.5q0 -10 -3.5 -24t-11 -27t-19.5 -22t-28 -9q-12 0 -23 5t-23.5 11.5t-29.5 12.5t-41 8v-146q34 -13 69 -29t63.5 -41t46.5 -60t18 -86q0 -47 -14.5 -84t-40.5 -64.5t-62 -45t-80 -24.5v-29q0 -11 -12 -19t-26 -8q-17 0 -27.5 8
t-10.5 19v25zM369 206q0 25 -17 41.5t-44 29.5v-134q26 6 43.5 21t17.5 42zM188 525q0 -22 17.5 -36.5t46.5 -26.5v119q-34 -7 -49 -22.5t-15 -33.5z" />
    <glyph glyph-name="dotaccent" unicode="&#x2d9;" horiz-adv-x="187" 
d="M97 688q23 0 39.5 -17.5t16.5 -40.5t-16.5 -41t-39.5 -18t-40 18t-17 41t17 40.5t40 17.5z" />
    <glyph glyph-name="dotlessi" unicode="&#x131;" horiz-adv-x="244" 
d="M122 476q32 0 55 -13t23 -34v-381q0 -18 -23 -33t-55 -15q-34 0 -55.5 15t-21.5 33v381q0 21 21.5 34t55.5 13z" />
    <glyph glyph-name="dotlessj" unicode="&#x237;" horiz-adv-x="245" 
d="M121 476q33 0 56 -13t23 -34v-457q0 -42 -10.5 -76.5t-31 -59.5t-50 -39t-67.5 -14q-25 0 -40.5 5.5t-24.5 14.5t-12.5 20t-3.5 23q0 31 17 49t41 18q18 0 22.5 16.5t4.5 42.5v457q0 21 21.5 34t54.5 13z" />
    <glyph glyph-name="e" unicode="e" 
d="M257 482q43 0 82 -14t68.5 -39t47 -60t17.5 -77q0 -33 -8.5 -52t-22.5 -28t-31.5 -11t-34.5 -2h-193v-6q0 -37 28 -59.5t74 -22.5q23 0 41 6t32.5 12.5t27 12.5t24.5 6q13 0 24 -7.5t18 -18t11 -22t4 -20.5q0 -14 -13 -30t-37.5 -29.5t-59 -22t-76.5 -8.5
q-56 0 -102 15.5t-80 43t-52.5 66.5t-18.5 87v73q0 42 18 79.5t49 66t73 45t90 16.5zM306 286q11 0 16 5t5 19q0 30 -22.5 45t-50.5 15q-27 0 -49.5 -15t-22.5 -45v-24h124z" />
    <glyph glyph-name="eacute" unicode="&#xe9;" 
d="M257 482q43 0 82 -14t68.5 -39t47 -60t17.5 -77q0 -33 -8.5 -52t-22.5 -28t-31.5 -11t-34.5 -2h-193v-6q0 -37 28 -59.5t74 -22.5q23 0 41 6t32.5 12.5t27 12.5t24.5 6q13 0 24 -7.5t18 -18t11 -22t4 -20.5q0 -14 -13 -30t-37.5 -29.5t-59 -22t-76.5 -8.5
q-56 0 -102 15.5t-80 43t-52.5 66.5t-18.5 87v73q0 42 18 79.5t49 66t73 45t90 16.5zM306 286q11 0 16 5t5 19q0 30 -22.5 45t-50.5 15q-27 0 -49.5 -15t-22.5 -45v-24h124zM209 563q-10 -4 -15 -4q-20 0 -33 19t-13 39q0 25 20 35l140 65q7 3 14 3q10 0 18.5 -5.5t15 -14
t10 -18.5t3.5 -20q0 -11 -4.5 -20t-15.5 -14z" />
    <glyph glyph-name="ebreve" unicode="&#x115;" 
d="M257 482q43 0 82 -14t68.5 -39t47 -60t17.5 -77q0 -33 -8.5 -52t-22.5 -28t-31.5 -11t-34.5 -2h-193v-6q0 -37 28 -59.5t74 -22.5q23 0 41 6t32.5 12.5t27 12.5t24.5 6q13 0 24 -7.5t18 -18t11 -22t4 -20.5q0 -14 -13 -30t-37.5 -29.5t-59 -22t-76.5 -8.5
q-56 0 -102 15.5t-80 43t-52.5 66.5t-18.5 87v73q0 42 18 79.5t49 66t73 45t90 16.5zM306 286q11 0 16 5t5 19q0 30 -22.5 45t-50.5 15q-27 0 -49.5 -15t-22.5 -45v-24h124zM394 724q0 -28 -11.5 -53t-31 -44t-44.5 -30.5t-52 -11.5t-52.5 11.5t-45 30.5t-31 44t-11.5 53h80
q0 -32 19 -52.5t41 -20.5q21 0 40 20.5t19 52.5h80z" />
    <glyph glyph-name="ecaron" unicode="&#x11b;" 
d="M257 482q43 0 82 -14t68.5 -39t47 -60t17.5 -77q0 -33 -8.5 -52t-22.5 -28t-31.5 -11t-34.5 -2h-193v-6q0 -37 28 -59.5t74 -22.5q23 0 41 6t32.5 12.5t27 12.5t24.5 6q13 0 24 -7.5t18 -18t11 -22t4 -20.5q0 -14 -13 -30t-37.5 -29.5t-59 -22t-76.5 -8.5
q-56 0 -102 15.5t-80 43t-52.5 66.5t-18.5 87v73q0 42 18 79.5t49 66t73 45t90 16.5zM306 286q11 0 16 5t5 19q0 30 -22.5 45t-50.5 15q-27 0 -49.5 -15t-22.5 -45v-24h124zM257 673l104 56q6 3 11 3q14 0 22.5 -14.5t8.5 -31.5q0 -13 -5.5 -24.5t-19.5 -19.5l-104 -56
q-10 -5 -17 -5t-17 5l-104 56q-14 8 -19.5 19.5t-5.5 24.5q0 17 8.5 31.5t22.5 14.5q5 0 11 -3z" />
    <glyph glyph-name="ecircumflex" unicode="&#xea;" 
d="M257 482q43 0 82 -14t68.5 -39t47 -60t17.5 -77q0 -33 -8.5 -52t-22.5 -28t-31.5 -11t-34.5 -2h-193v-6q0 -37 28 -59.5t74 -22.5q23 0 41 6t32.5 12.5t27 12.5t24.5 6q13 0 24 -7.5t18 -18t11 -22t4 -20.5q0 -14 -13 -30t-37.5 -29.5t-59 -22t-76.5 -8.5
q-56 0 -102 15.5t-80 43t-52.5 66.5t-18.5 87v73q0 42 18 79.5t49 66t73 45t90 16.5zM306 286q11 0 16 5t5 19q0 30 -22.5 45t-50.5 15q-27 0 -49.5 -15t-22.5 -45v-24h124zM151 572q-6 -3 -11 -3q-14 0 -22.5 14.5t-8.5 31.5q0 13 5.5 24.5t19.5 19.5l104 56q10 5 17 5
t17 -5l104 -56q14 -8 19.5 -19.5t5.5 -24.5q0 -17 -8.5 -31.5t-22.5 -14.5q-5 0 -11 3l-104 56z" />
    <glyph glyph-name="edieresis" unicode="&#xeb;" 
d="M257 482q43 0 82 -14t68.5 -39t47 -60t17.5 -77q0 -33 -8.5 -52t-22.5 -28t-31.5 -11t-34.5 -2h-193v-6q0 -37 28 -59.5t74 -22.5q23 0 41 6t32.5 12.5t27 12.5t24.5 6q13 0 24 -7.5t18 -18t11 -22t4 -20.5q0 -14 -13 -30t-37.5 -29.5t-59 -22t-76.5 -8.5
q-56 0 -102 15.5t-80 43t-52.5 66.5t-18.5 87v73q0 42 18 79.5t49 66t73 45t90 16.5zM306 286q11 0 16 5t5 19q0 30 -22.5 45t-50.5 15q-27 0 -49.5 -15t-22.5 -45v-24h124zM174 688q23 0 39.5 -17.5t16.5 -40.5t-16.5 -41t-39.5 -18t-40 18t-17 41t17 40.5t40 17.5z
M334 688q23 0 39.5 -17.5t16.5 -40.5t-16.5 -41t-39.5 -18t-40 18t-17 41t17 40.5t40 17.5z" />
    <glyph glyph-name="edotaccent" unicode="&#x117;" 
d="M257 482q43 0 82 -14t68.5 -39t47 -60t17.5 -77q0 -33 -8.5 -52t-22.5 -28t-31.5 -11t-34.5 -2h-193v-6q0 -37 28 -59.5t74 -22.5q23 0 41 6t32.5 12.5t27 12.5t24.5 6q13 0 24 -7.5t18 -18t11 -22t4 -20.5q0 -14 -13 -30t-37.5 -29.5t-59 -22t-76.5 -8.5
q-56 0 -102 15.5t-80 43t-52.5 66.5t-18.5 87v73q0 42 18 79.5t49 66t73 45t90 16.5zM306 286q11 0 16 5t5 19q0 30 -22.5 45t-50.5 15q-27 0 -49.5 -15t-22.5 -45v-24h124zM255 688q23 0 39.5 -17.5t16.5 -40.5t-16.5 -41t-39.5 -18t-40 18t-17 41t17 40.5t40 17.5z" />
    <glyph glyph-name="egrave" unicode="&#xe8;" 
d="M257 482q43 0 82 -14t68.5 -39t47 -60t17.5 -77q0 -33 -8.5 -52t-22.5 -28t-31.5 -11t-34.5 -2h-193v-6q0 -37 28 -59.5t74 -22.5q23 0 41 6t32.5 12.5t27 12.5t24.5 6q13 0 24 -7.5t18 -18t11 -22t4 -20.5q0 -14 -13 -30t-37.5 -29.5t-59 -22t-76.5 -8.5
q-56 0 -102 15.5t-80 43t-52.5 66.5t-18.5 87v73q0 42 18 79.5t49 66t73 45t90 16.5zM306 286q11 0 16 5t5 19q0 30 -22.5 45t-50.5 15q-27 0 -49.5 -15t-22.5 -45v-24h124zM148 628q-11 5 -15.5 14t-4.5 20q0 10 3.5 20t10 18.5t15 14t18.5 5.5q6 0 14 -3l140 -65
q20 -10 20 -35q0 -20 -13 -39t-33 -19q-5 0 -15 4z" />
    <glyph glyph-name="eight" unicode="8" horiz-adv-x="545" 
d="M273 731q48 0 89 -10t70 -32t45.5 -55.5t16.5 -80.5q0 -63 -27 -100.5t-72 -52.5q56 -19 89.5 -64.5t33.5 -123.5v-12q0 -56 -19 -95t-52 -64t-77.5 -36t-96.5 -11t-97 11t-78 36t-52 64t-19 95v12q0 78 34 123.5t90 64.5q-45 15 -72 52.5t-27 100.5q0 47 16.5 80.5
t45.5 55.5t70 32t89 10zM362 241q0 49 -23.5 72t-65.5 23t-66 -23t-24 -72v-22q0 -52 24 -76t66 -24q43 0 66 24.5t23 75.5v22zM273 606q-34 0 -52.5 -17.5t-18.5 -55.5q0 -39 18.5 -55.5t52.5 -16.5t52.5 16.5t18.5 55.5q0 38 -18.5 55.5t-52.5 17.5z" />
    <glyph glyph-name="eightinferior" unicode="&#x2088;" horiz-adv-x="341" 
d="M171 409q60 0 97.5 -24t37.5 -76q0 -35 -17 -56t-44 -29q35 -11 55 -36.5t20 -68.5v-7q0 -31 -11.5 -53t-31.5 -35.5t-47.5 -20t-58.5 -6.5q-32 0 -59.5 6.5t-48 20t-32 35.5t-11.5 53v7q0 43 20.5 68.5t55.5 36.5q-27 8 -44 29t-17 56q0 52 38 76t98 24zM220 138
q0 45 -49 45q-50 0 -50 -45v-13q0 -26 13 -37.5t36 -11.5q50 0 50 49v13zM171 330q-39 0 -39 -34q0 -18 10 -25.5t29 -7.5q18 0 28 7.5t10 25.5q0 34 -38 34z" />
    <glyph glyph-name="eightsuperior" unicode="&#x2078;" horiz-adv-x="341" 
d="M171 731q60 0 97.5 -24t37.5 -76q0 -35 -17 -56t-44 -29q35 -11 55 -36.5t20 -68.5v-7q0 -31 -11.5 -53t-31.5 -35.5t-47.5 -20t-58.5 -6.5q-32 0 -59.5 6.5t-48 20t-32 35.5t-11.5 53v7q0 43 20.5 68.5t55.5 36.5q-27 8 -44 29t-17 56q0 52 38 76t98 24zM220 460
q0 45 -49 45q-50 0 -50 -45v-13q0 -26 13 -37.5t36 -11.5q50 0 50 49v13zM171 652q-39 0 -39 -34q0 -18 10 -25.5t29 -7.5q18 0 28 7.5t10 25.5q0 34 -38 34z" />
    <glyph glyph-name="ellipsis" unicode="&#x2026;" horiz-adv-x="592" 
d="M100 148q31 0 53.5 -22.5t22.5 -54.5q0 -31 -22.5 -54t-53.5 -23q-33 0 -55 23t-22 54q0 32 22 54.5t55 22.5zM297 148q31 0 53.5 -22.5t22.5 -54.5q0 -31 -22.5 -54t-53.5 -23q-33 0 -55 23t-22 54q0 32 22 54.5t55 22.5zM493 148q31 0 53.5 -22.5t22.5 -54.5
q0 -31 -22.5 -54t-53.5 -23q-33 0 -55 23t-22 54q0 32 22 54.5t55 22.5z" />
    <glyph glyph-name="emacron" unicode="&#x113;" 
d="M257 482q43 0 82 -14t68.5 -39t47 -60t17.5 -77q0 -33 -8.5 -52t-22.5 -28t-31.5 -11t-34.5 -2h-193v-6q0 -37 28 -59.5t74 -22.5q23 0 41 6t32.5 12.5t27 12.5t24.5 6q13 0 24 -7.5t18 -18t11 -22t4 -20.5q0 -14 -13 -30t-37.5 -29.5t-59 -22t-76.5 -8.5
q-56 0 -102 15.5t-80 43t-52.5 66.5t-18.5 87v73q0 42 18 79.5t49 66t73 45t90 16.5zM306 286q11 0 16 5t5 19q0 30 -22.5 45t-50.5 15q-27 0 -49.5 -15t-22.5 -45v-24h124zM109 649q0 21 13 35.5t34 14.5h200q18 0 33 -14.5t15 -35.5q0 -22 -15 -35.5t-33 -13.5h-200
q-21 0 -34 13.5t-13 35.5z" />
    <glyph glyph-name="emdash" unicode="&#x2014;" horiz-adv-x="757" 
d="M31 240q0 27 13 45.5t34 18.5h601q18 0 33 -18.5t15 -45.5q0 -29 -15 -46t-33 -17h-601q-21 0 -34 17t-13 46z" />
    <glyph glyph-name="endash" unicode="&#x2013;" horiz-adv-x="476" 
d="M31 240q0 27 13 45.5t34 18.5h320q18 0 33 -18.5t15 -45.5q0 -29 -15 -46t-33 -17h-320q-21 0 -34 17t-13 46z" />
    <glyph glyph-name="eng" unicode="&#x14b;" horiz-adv-x="535" 
d="M324 482q34 0 65 -16.5t54 -45t37 -67t14 -81.5v-300q0 -42 -10.5 -76.5t-31 -59.5t-50 -39t-67.5 -14q-25 0 -40.5 5.5t-24.5 14.5t-12.5 20t-3.5 23q0 31 17 49t41 18q18 0 22.5 16.5t4.5 42.5v300q0 14 -5.5 27.5t-15.5 24t-23 17t-28 6.5q-25 0 -46 -20t-21 -55v-224
q0 -18 -23 -33t-55 -15q-34 0 -55.5 15t-21.5 33v381q0 21 21.5 34t55.5 13q28 0 48 -13t20 -34v-23q14 29 49 52.5t85 23.5z" />
    <glyph glyph-name="eogonek" unicode="&#x119;" 
d="M369 -155q14 0 19.5 -11.5t5.5 -22.5t-5.5 -20t-25.5 -9q-66 0 -95.5 28.5t-29.5 68.5q0 28 13 57t36 54h-7q-56 0 -102 15.5t-80 43t-52.5 66.5t-18.5 87v73q0 42 18 79.5t49 66t73 45t90 16.5q43 0 82 -14t68.5 -39t47 -60t17.5 -77q0 -33 -8.5 -52t-22.5 -28
t-31.5 -11t-34.5 -2h-193v-6q0 -37 28 -59.5t74 -22.5q23 0 41 6t32.5 12.5t27 12.5t24.5 6q13 0 24 -7.5t18 -18t11 -22t4 -20.5q0 -18 -20 -37.5t-56 -33.5q-17 -9 -31.5 -23t-25 -30t-16.5 -32t-6 -31q0 -21 13 -34.5t45 -13.5zM306 286q11 0 16 5t5 19q0 30 -22.5 45
t-50.5 15q-27 0 -49.5 -15t-22.5 -45v-24h124z" />
    <glyph glyph-name="equal" unicode="=" horiz-adv-x="448" 
d="M47 135q0 27 13 45.5t34 18.5h260q18 0 33 -18.5t15 -45.5q0 -29 -15 -46t-33 -17h-260q-21 0 -34 17t-13 46zM47 338q0 27 13 45.5t34 18.5h260q18 0 33 -18.5t15 -45.5q0 -29 -15 -46t-33 -17h-260q-21 0 -34 17t-13 46z" />
    <glyph glyph-name="estimated" unicode="&#x212e;" horiz-adv-x="563" 
d="M290 482q49 0 93.5 -14t78 -39t53.5 -60t20 -77q0 -30 -8.5 -46.5t-22.5 -24.5t-31 -10t-35 -2h-223v-6q0 -25 2.5 -45.5t12 -35.5t28.5 -23t53 -8q51 0 81.5 9t49 19.5t28.5 19.5t19 9q8 0 15.5 -7.5t13 -18t8.5 -22t3 -20.5q0 -14 -15.5 -30t-43.5 -29.5t-68 -22
t-89 -8.5q-62 0 -114 16.5t-89.5 47t-58.5 73.5t-21 95v33q0 46 20 87t55.5 72t83 49.5t101.5 18.5zM339 276q10 0 15.5 5t5.5 19q0 29 -5 47.5t-14 28.5t-22.5 13.5t-31.5 3.5q-17 0 -30.5 -3.5t-22.5 -13t-14 -28t-5 -48.5v-24h124z" />
    <glyph glyph-name="eth" unicode="&#xf0;" horiz-adv-x="525" 
d="M423 612q15 -32 27 -67t20 -70.5t12 -69t4 -62.5v-141q0 -42 -18.5 -80.5t-50 -67.5t-73 -46.5t-87.5 -17.5t-88 17.5t-73.5 47t-50 67.5t-18.5 80v70q0 43 14 81.5t38 67t56 45t69 16.5q46 0 78.5 -23.5t48.5 -52.5q0 35 -10 67.5t-25 61.5l-41 -25q-5 -4 -14 -4
t-18.5 5.5t-17 14.5t-12.5 19.5t-5 21.5q0 18 16 28l33 20q-2 2 -4.5 4t-4.5 4q-11 11 -21 22t-10 30q0 10 3.5 22.5t12.5 24t23.5 19.5t35.5 8q28 0 52.5 -14t45.5 -39l49 30q7 4 15 4q10 0 19 -5.5t16.5 -14.5t12 -19.5t4.5 -20.5q0 -19 -16 -29zM182 202q0 -30 22 -53.5
t53 -23.5t52.5 23.5t21.5 53.5v70q0 18 -7 31.5t-17.5 23.5t-24.5 15t-27 5q-31 0 -52 -23t-21 -52v-70z" />
    <glyph glyph-name="exclam" unicode="!" horiz-adv-x="229" 
d="M187 670q0 -45 -2 -97.5t-5 -107t-5 -107t-2 -97.5q0 -23 -20 -33.5t-38 -10.5q-24 0 -41.5 10.5t-17.5 33.5q0 45 -2 97.5t-5 107t-5 107t-2 97.5q0 29 21 45t52 16q29 0 50.5 -16t21.5 -45zM116 148q31 0 53.5 -22.5t22.5 -54.5q0 -31 -22.5 -54t-53.5 -23
q-33 0 -55 23t-22 54q0 32 22 54.5t55 22.5z" />
    <glyph glyph-name="exclamdown" unicode="&#xa1;" horiz-adv-x="229" 
d="M42 55q0 45 2 97.5t5 107t5 107t2 97.5q0 23 20 33.5t38 10.5q24 0 41.5 -10.5t17.5 -33.5q0 -45 2 -97.5t5 -107t5 -107t2 -97.5q0 -29 -21 -45t-52 -16q-29 0 -50.5 16t-21.5 45zM113 577q-31 0 -53.5 22.5t-22.5 54.5q0 31 22.5 54t53.5 23q33 0 55 -23t22 -54
q0 -32 -22 -54.5t-55 -22.5z" />
    <glyph glyph-name="f" unicode="f" horiz-adv-x="354" 
d="M201 476h113q19 0 28.5 -17.5t9.5 -37.5q0 -21 -9.5 -38t-28.5 -17h-113v-319q0 -21 -23.5 -34t-55.5 -13t-54 13t-22 34v500q0 43 14 80t38 64t56 42t68 15h72q29 0 43.5 -20.5t14.5 -44.5q0 -25 -14.5 -45t-43.5 -20h-38q-24 0 -39.5 -13t-15.5 -41v-88z" />
    <glyph glyph-name="five" unicode="5" horiz-adv-x="521" 
d="M258 461q52 0 96.5 -11.5t77.5 -37.5t52 -67.5t19 -101.5v-19q0 -63 -19 -106.5t-52 -71t-77.5 -40t-94.5 -12.5q-60 0 -106.5 16t-77.5 42t-47 59.5t-16 68.5q0 41 20.5 55t57.5 14q25 0 40.5 -4.5t24 -12.5t11 -18.5t2.5 -22.5q0 -30 25 -45.5t62 -15.5q43 0 67 22.5
t24 71.5v19q0 50 -23.5 74t-65.5 24h-152q-35 0 -47.5 16t-12.5 45q0 8 0.5 14.5t1.5 14.5l27 252q2 23 8.5 35.5t19.5 12.5h319q23 0 34 -21t11 -47t-11 -47t-34 -21h-219l-10 -134h65z" />
    <glyph glyph-name="fiveeighths" unicode="&#x215d;" horiz-adv-x="811" 
d="M638 409q60 0 97.5 -24t37.5 -76q0 -35 -17 -56t-44 -29q35 -11 55 -36.5t20 -68.5v-7q0 -31 -11.5 -53t-31.5 -35.5t-47.5 -20t-58.5 -6.5q-32 0 -59.5 6.5t-48 20t-32 35.5t-11.5 53v7q0 43 20.5 68.5t55.5 36.5q-27 8 -44 29t-17 56q0 52 38 76t98 24zM687 138
q0 45 -49 45q-50 0 -50 -45v-13q0 -26 13 -37.5t36 -11.5q50 0 50 49v13zM638 330q-39 0 -39 -34q0 -18 10 -25.5t29 -7.5q18 0 28 7.5t10 25.5q0 34 -38 34zM582 772q21 0 40 -14.5t19 -38.5q0 -11 -4 -19l-352 -721q-5 -11 -18 -18t-27 -7q-26 0 -41 17t-15 36q0 9 5 19
l351 721q6 13 17 19t25 6zM171 585q31 0 58.5 -6.5t48 -21.5t32 -38.5t11.5 -57.5v-11q0 -36 -12 -60.5t-32 -40.5t-47 -23t-58 -7q-37 0 -65.5 9t-47.5 24t-28.5 34t-9.5 39q0 26 13.5 35t36.5 9q34 0 42.5 -11t8.5 -26q0 -13 13.5 -19.5t34.5 -6.5q23 0 36.5 10.5
t13.5 33.5v11q0 24 -13 35.5t-36 11.5h-92q-22 0 -30 10.5t-8 29.5v8.5t1 9.5l16 135q3 30 18 30h194q15 0 22 -13t7 -30t-7 -30.5t-22 -13.5h-129l-6 -59h36z" />
    <glyph glyph-name="fiveinferior" unicode="&#x2085;" horiz-adv-x="328" 
d="M163 263q31 0 58.5 -6.5t48 -21.5t32 -38.5t11.5 -57.5v-11q0 -36 -12 -60.5t-32 -40.5t-47 -23t-58 -7q-37 0 -65.5 9t-47.5 24t-28.5 34t-9.5 39q0 26 13.5 35t36.5 9q34 0 42.5 -11t8.5 -26q0 -13 13.5 -19.5t34.5 -6.5q23 0 36.5 10.5t13.5 33.5v11q0 24 -13 35.5
t-36 11.5h-92q-22 0 -30 10.5t-8 29.5v8.5t1 9.5l16 135q3 30 18 30h194q15 0 22 -13t7 -30t-7 -30.5t-22 -13.5h-129l-6 -59h36z" />
    <glyph glyph-name="fivesuperior" unicode="&#x2075;" horiz-adv-x="328" 
d="M163 585q31 0 58.5 -6.5t48 -21.5t32 -38.5t11.5 -57.5v-11q0 -36 -12 -60.5t-32 -40.5t-47 -23t-58 -7q-37 0 -65.5 9t-47.5 24t-28.5 34t-9.5 39q0 26 13.5 35t36.5 9q34 0 42.5 -11t8.5 -26q0 -13 13.5 -19.5t34.5 -6.5q23 0 36.5 10.5t13.5 33.5v11q0 24 -13 35.5
t-36 11.5h-92q-22 0 -30 10.5t-8 29.5v8.5t1 9.5l16 135q3 30 18 30h194q15 0 22 -13t7 -30t-7 -30.5t-22 -13.5h-129l-6 -59h36z" />
    <glyph glyph-name="florin" unicode="&#x192;" horiz-adv-x="435" 
d="M279 457h116q19 0 28.5 -17.5t9.5 -37.5q0 -21 -9.5 -38t-28.5 -17h-132l-37 -265q-6 -44 -20 -83.5t-37.5 -69.5t-56.5 -48t-78 -18h-26q-22 0 -34 20.5t-12 47.5q0 32 14.5 54t36.5 22h23q15 0 24.5 21.5t14.5 53.5l64 478q6 43 26 81t50.5 66t68.5 44.5t80 16.5h65
q20 0 32.5 -19t12.5 -46q0 -31 -15 -50.5t-35 -19.5h-61q-31 0 -47.5 -19t-21.5 -54z" />
    <glyph glyph-name="four" unicode="4" horiz-adv-x="525" 
d="M281 154h-234q-22 0 -37 14t-15 40q0 6 1.5 14t6.5 16l231 453q11 22 28.5 31t36.5 9q10 0 23.5 -4t25.5 -12t20.5 -19t8.5 -24q0 -7 -5 -19l-177 -355h86v70q0 25 24.5 36t53.5 11t53.5 -11t24.5 -36v-70h43q24 0 36 -22.5t12 -49.5t-15 -49.5t-33 -22.5h-43v-106
q0 -24 -24.5 -36t-53.5 -12t-53.5 12t-24.5 36v106z" />
    <glyph glyph-name="fourinferior" unicode="&#x2084;" horiz-adv-x="327" 
d="M171 84h-139q-14 0 -23.5 8.5t-9.5 25.5q0 9 5 18l137 248q8 14 19 19.5t23 5.5q6 0 15 -2.5t16.5 -7.5t13 -11.5t5.5 -15.5q0 -6 -3 -12l-102 -184h43v21q0 16 15.5 23t34.5 7q20 0 35.5 -7t15.5 -23v-21h25q15 0 22.5 -14.5t7.5 -31.5t-9.5 -31.5t-20.5 -14.5h-25v-54
q0 -15 -15.5 -22.5t-35.5 -7.5q-19 0 -34.5 7.5t-15.5 22.5v54z" />
    <glyph glyph-name="foursuperior" unicode="&#x2074;" horiz-adv-x="328" 
d="M171 406h-139q-14 0 -23.5 8.5t-9.5 25.5q0 9 5 18l137 248q8 14 19 19.5t23 5.5q6 0 15 -2.5t16.5 -7.5t13 -11.5t5.5 -15.5q0 -6 -3 -12l-102 -184h43v21q0 16 15.5 23t34.5 7q20 0 35.5 -7t15.5 -23v-21h25q15 0 22.5 -14.5t7.5 -31.5t-9.5 -31.5t-20.5 -14.5h-25v-54
q0 -15 -15.5 -22.5t-35.5 -7.5q-19 0 -34.5 7.5t-15.5 22.5v54z" />
    <glyph glyph-name="fraction" unicode="&#x2044;" horiz-adv-x="198" 
d="M268 772q21 0 40 -14.5t19 -38.5q0 -11 -4 -19l-352 -721q-5 -11 -18 -18t-27 -7q-26 0 -41 17t-15 36q0 9 5 19l351 721q6 13 17 19t25 6z" />
    <glyph glyph-name="g" unicode="g" horiz-adv-x="478" 
d="M234 135q-33 0 -60 6q-4 -7 -4 -13q0 -14 22 -19.5t55 -10t71 -11t71 -22.5t55 -44t22 -75q0 -44 -19.5 -75t-51.5 -50.5t-72.5 -28.5t-82.5 -9q-45 0 -86 9.5t-72.5 28t-50.5 45.5t-19 62q0 36 19 61.5t48 42.5q-17 10 -26.5 24.5t-9.5 37.5q0 28 14 46t37 35
q-31 23 -48 55.5t-17 71.5v15q0 36 14.5 66.5t41.5 52.5t65 34t84 12q32 0 61 -6.5t52 -17.5q18 43 31 56.5t26 13.5q28 0 43.5 -16t15.5 -30q0 -16 -16 -30q-9 -8 -20.5 -16.5t-22.5 -19.5q38 -41 38 -99v-15q0 -36 -15.5 -66.5t-43 -53t-65.5 -35t-84 -12.5zM292 317
q0 31 -14.5 53t-42.5 22q-27 0 -41.5 -22t-14.5 -53v-14q0 -33 14.5 -55.5t42.5 -22.5q26 0 41 21.5t15 55.5v15zM316 -58q0 17 -9.5 28t-26 17.5t-38 10t-44.5 6.5q-20 -11 -30 -26.5t-10 -33.5q0 -31 24.5 -47t54.5 -16t54.5 16t24.5 45z" />
    <glyph glyph-name="g.ss03" horiz-adv-x="533" 
d="M413 476q31 0 52.5 -13t21.5 -34v-431q0 -47 -16 -89.5t-50.5 -75t-88 -51.5t-128.5 -19q-29 0 -60.5 4t-57 14t-42 28t-16.5 46q0 29 17 50t38 21q10 0 23 -4.5t29 -10.5t35.5 -10.5t44.5 -4.5q39 0 62 12t35 30t16 38t4 36v68q-7 -15 -20 -29.5t-30 -26t-37.5 -18
t-42.5 -6.5q-35 0 -66.5 17.5t-55.5 47t-38 67.5t-14 80v60q0 43 14 81.5t38 67t56.5 45t70.5 16.5q47 0 82.5 -23.5t52.5 -52.5v23q0 21 20 34t51 13zM183 212q0 -15 6 -28.5t16.5 -24.5t23.5 -17.5t28 -6.5q16 0 30 7.5t24 18t15.5 21.5t5.5 17v73q0 35 -23 55t-50 20
q-32 0 -54 -23t-22 -52v-60z" />
    <glyph glyph-name="gbreve" unicode="&#x11f;" horiz-adv-x="478" 
d="M234 135q-33 0 -60 6q-4 -7 -4 -13q0 -14 22 -19.5t55 -10t71 -11t71 -22.5t55 -44t22 -75q0 -44 -19.5 -75t-51.5 -50.5t-72.5 -28.5t-82.5 -9q-45 0 -86 9.5t-72.5 28t-50.5 45.5t-19 62q0 36 19 61.5t48 42.5q-17 10 -26.5 24.5t-9.5 37.5q0 28 14 46t37 35
q-31 23 -48 55.5t-17 71.5v15q0 36 14.5 66.5t41.5 52.5t65 34t84 12q32 0 61 -6.5t52 -17.5q18 43 31 56.5t26 13.5q28 0 43.5 -16t15.5 -30q0 -16 -16 -30q-9 -8 -20.5 -16.5t-22.5 -19.5q38 -41 38 -99v-15q0 -36 -15.5 -66.5t-43 -53t-65.5 -35t-84 -12.5zM292 317
q0 31 -14.5 53t-42.5 22q-27 0 -41.5 -22t-14.5 -53v-14q0 -33 14.5 -55.5t42.5 -22.5q26 0 41 21.5t15 55.5v15zM316 -58q0 17 -9.5 28t-26 17.5t-38 10t-44.5 6.5q-20 -11 -30 -26.5t-10 -33.5q0 -31 24.5 -47t54.5 -16t54.5 16t24.5 45zM374 724q0 -28 -11.5 -53t-31 -44
t-44.5 -30.5t-52 -11.5t-52.5 11.5t-45 30.5t-31 44t-11.5 53h80q0 -32 19 -52.5t41 -20.5q21 0 40 20.5t19 52.5h80z" />
    <glyph glyph-name="gcircumflex" unicode="&#x11d;" horiz-adv-x="478" 
d="M234 135q-33 0 -60 6q-4 -7 -4 -13q0 -14 22 -19.5t55 -10t71 -11t71 -22.5t55 -44t22 -75q0 -44 -19.5 -75t-51.5 -50.5t-72.5 -28.5t-82.5 -9q-45 0 -86 9.5t-72.5 28t-50.5 45.5t-19 62q0 36 19 61.5t48 42.5q-17 10 -26.5 24.5t-9.5 37.5q0 28 14 46t37 35
q-31 23 -48 55.5t-17 71.5v15q0 36 14.5 66.5t41.5 52.5t65 34t84 12q32 0 61 -6.5t52 -17.5q18 43 31 56.5t26 13.5q28 0 43.5 -16t15.5 -30q0 -16 -16 -30q-9 -8 -20.5 -16.5t-22.5 -19.5q38 -41 38 -99v-15q0 -36 -15.5 -66.5t-43 -53t-65.5 -35t-84 -12.5zM292 317
q0 31 -14.5 53t-42.5 22q-27 0 -41.5 -22t-14.5 -53v-14q0 -33 14.5 -55.5t42.5 -22.5q26 0 41 21.5t15 55.5v15zM316 -58q0 17 -9.5 28t-26 17.5t-38 10t-44.5 6.5q-20 -11 -30 -26.5t-10 -33.5q0 -31 24.5 -47t54.5 -16t54.5 16t24.5 45zM131 572q-6 -3 -11 -3
q-14 0 -22.5 14.5t-8.5 31.5q0 13 5.5 24.5t19.5 19.5l104 56q10 5 17 5t17 -5l104 -56q14 -8 19.5 -19.5t5.5 -24.5q0 -17 -8.5 -31.5t-22.5 -14.5q-5 0 -11 3l-104 56z" />
    <glyph glyph-name="gcommaaccent" unicode="&#x123;" horiz-adv-x="478" 
d="M234 135q-33 0 -60 6q-4 -7 -4 -13q0 -14 22 -19.5t55 -10t71 -11t71 -22.5t55 -44t22 -75q0 -44 -19.5 -75t-51.5 -50.5t-72.5 -28.5t-82.5 -9q-45 0 -86 9.5t-72.5 28t-50.5 45.5t-19 62q0 36 19 61.5t48 42.5q-17 10 -26.5 24.5t-9.5 37.5q0 28 14 46t37 35
q-31 23 -48 55.5t-17 71.5v15q0 36 14.5 66.5t41.5 52.5t65 34t84 12q32 0 61 -6.5t52 -17.5q18 43 31 56.5t26 13.5q28 0 43.5 -16t15.5 -30q0 -16 -16 -30q-9 -8 -20.5 -16.5t-22.5 -19.5q38 -41 38 -99v-15q0 -36 -15.5 -66.5t-43 -53t-65.5 -35t-84 -12.5zM292 317
q0 31 -14.5 53t-42.5 22q-27 0 -41.5 -22t-14.5 -53v-14q0 -33 14.5 -55.5t42.5 -22.5q26 0 41 21.5t15 55.5v15zM316 -58q0 17 -9.5 28t-26 17.5t-38 10t-44.5 6.5q-20 -11 -30 -26.5t-10 -33.5q0 -31 24.5 -47t54.5 -16t54.5 16t24.5 45zM243 746q-32 0 -54.5 22.5
t-22.5 53.5q0 4 1.5 10.5t7.5 22.5t18.5 46t34.5 81q5 11 13.5 14.5t16.5 3.5q16 0 33 -10t17 -29q0 -8 -4 -16l-25 -54q18 -11 29 -28.5t11 -39.5q0 -32 -22 -54.5t-54 -22.5zM208 563q-10 -4 -15 -4q-20 0 -33 19t-13 39q0 25 20 35l140 65q7 3 14 3q10 0 18.5 -5.5
t15 -14t10 -18.5t3.5 -20q0 -11 -4.5 -20t-15.5 -14z" />
    <glyph glyph-name="gdotaccent" unicode="&#x121;" horiz-adv-x="478" 
d="M234 135q-33 0 -60 6q-4 -7 -4 -13q0 -14 22 -19.5t55 -10t71 -11t71 -22.5t55 -44t22 -75q0 -44 -19.5 -75t-51.5 -50.5t-72.5 -28.5t-82.5 -9q-45 0 -86 9.5t-72.5 28t-50.5 45.5t-19 62q0 36 19 61.5t48 42.5q-17 10 -26.5 24.5t-9.5 37.5q0 28 14 46t37 35
q-31 23 -48 55.5t-17 71.5v15q0 36 14.5 66.5t41.5 52.5t65 34t84 12q32 0 61 -6.5t52 -17.5q18 43 31 56.5t26 13.5q28 0 43.5 -16t15.5 -30q0 -16 -16 -30q-9 -8 -20.5 -16.5t-22.5 -19.5q38 -41 38 -99v-15q0 -36 -15.5 -66.5t-43 -53t-65.5 -35t-84 -12.5zM292 317
q0 31 -14.5 53t-42.5 22q-27 0 -41.5 -22t-14.5 -53v-14q0 -33 14.5 -55.5t42.5 -22.5q26 0 41 21.5t15 55.5v15zM316 -58q0 17 -9.5 28t-26 17.5t-38 10t-44.5 6.5q-20 -11 -30 -26.5t-10 -33.5q0 -31 24.5 -47t54.5 -16t54.5 16t24.5 45zM235 688q23 0 39.5 -17.5
t16.5 -40.5t-16.5 -41t-39.5 -18t-40 18t-17 41t17 40.5t40 17.5z" />
    <glyph glyph-name="germandbls" unicode="&#xdf;" horiz-adv-x="617" 
d="M359 -20q-19 0 -36.5 1.5t-31 8t-21.5 20t-8 37.5q0 10 2 22.5t6.5 24t11 19t16.5 7.5q11 0 26 -4.5t36 -4.5q39 0 60.5 23.5t21.5 65.5v11q0 37 -9.5 61t-24.5 39t-34.5 23.5t-39.5 15.5q-9 3 -17 6.5t-13.5 10.5t-8.5 18t-3 28q0 32 11 41t32 15q13 4 20.5 12.5
t11.5 19.5t5.5 23t1.5 23q0 36 -15 61t-54 25q-38 0 -51 -22.5t-13 -50.5v-513q0 -21 -23.5 -34t-55.5 -13t-54 13t-22 34v319h-49q-19 0 -28.5 17t-9.5 38q0 20 9.5 37.5t28.5 17.5h49v84q0 42 11 79.5t35.5 66t64 45.5t96.5 17q43 0 80.5 -11t65.5 -34t44.5 -58t16.5 -83
q0 -24 -4.5 -47.5t-13 -44t-21 -36t-27.5 -23.5q27 -5 55.5 -21.5t52 -43t38 -62.5t14.5 -79v-11q0 -56 -19 -99.5t-51.5 -73.5t-75 -45.5t-89.5 -15.5z" />
    <glyph glyph-name="grave" unicode="`" horiz-adv-x="221" 
d="M20 628q-11 5 -15.5 14t-4.5 20q0 10 3.5 20t10 18.5t15 14t18.5 5.5q6 0 14 -3l140 -65q20 -10 20 -35q0 -20 -13 -39t-33 -19q-5 0 -15 4z" />
    <glyph glyph-name="greater" unicode="&#x3e;" horiz-adv-x="427" 
d="M408 277q0 -13 -7 -29t-24 -27l-254 -165q-6 -5 -19 -5q-11 0 -23 5.5t-22 15.5t-16.5 23.5t-6.5 28.5q0 28 18 39l176 114l-176 114q-18 11 -18 39q0 15 6.5 28.5t16.5 23.5t22 15.5t23 5.5q13 0 19 -5l254 -165q17 -11 24 -27t7 -29z" />
    <glyph glyph-name="greaterequal" unicode="&#x2265;" horiz-adv-x="442" 
d="M235 365l-168 72q-14 6 -19.5 16.5t-5.5 22.5q0 13 5.5 26t15 24t21.5 18t25 7q9 0 19 -5l254 -125q19 -9 25 -26t6 -30t-6 -30t-25 -26l-254 -125q-10 -5 -19 -5q-13 0 -25 7t-21.5 18t-15 24t-5.5 26q0 12 5.5 22.5t19.5 16.5zM413 84q0 -29 -13 -46t-34 -17h-277
q-18 0 -33 17t-15 46q0 27 15 45.5t33 18.5h277q21 0 34 -18.5t13 -45.5z" />
    <glyph glyph-name="guillemotleft" unicode="&#xab;" horiz-adv-x="537" 
d="M253 166q3 -6 3 -14q0 -12 -8 -25.5t-21.5 -25t-31.5 -19.5t-37 -8q-15 0 -26 5t-16 14l-67 125q-12 23 -20 33.5t-8 24.5t8 25.5t20 34.5l67 125q5 9 16 14t26 5q19 0 37 -8t31.5 -19.5t21.5 -25t8 -25.5q0 -8 -3 -14l-59 -111zM503 166q3 -6 3 -14q0 -12 -8 -25.5
t-21.5 -25t-31.5 -19.5t-37 -8q-15 0 -26 5t-16 14l-67 125q-12 23 -20 33.5t-8 24.5t8 25.5t20 34.5l67 125q5 9 16 14t26 5q19 0 37 -8t31.5 -19.5t21.5 -25t8 -25.5q0 -8 -3 -14l-59 -111z" />
    <glyph glyph-name="guillemotright" unicode="&#xbb;" horiz-adv-x="537" 
d="M343 277l-59 111q-3 6 -3 14q0 12 8 25.5t21.5 25t31 19.5t37.5 8q32 0 42 -19l67 -125q12 -23 20 -34.5t8 -25.5t-8 -24.5t-20 -33.5l-67 -125q-10 -19 -42 -19q-20 0 -37.5 8t-31 19.5t-21.5 25t-8 25.5q0 8 3 14zM93 277l-59 111q-3 6 -3 14q0 12 8 25.5t21.5 25
t31 19.5t37.5 8q32 0 42 -19l67 -125q12 -23 20 -34.5t8 -25.5t-8 -24.5t-20 -33.5l-67 -125q-10 -19 -42 -19q-20 0 -37.5 8t-31 19.5t-21.5 25t-8 25.5q0 8 3 14z" />
    <glyph glyph-name="guilsinglleft" unicode="&#x2039;" horiz-adv-x="287" 
d="M253 166q3 -6 3 -14q0 -12 -8 -25.5t-21.5 -25t-31.5 -19.5t-37 -8q-15 0 -26 5t-16 14l-67 125q-12 23 -20 33.5t-8 24.5t8 25.5t20 34.5l67 125q5 9 16 14t26 5q19 0 37 -8t31.5 -19.5t21.5 -25t8 -25.5q0 -8 -3 -14l-59 -111z" />
    <glyph glyph-name="guilsinglright" unicode="&#x203a;" horiz-adv-x="287" 
d="M93 277l-59 111q-3 6 -3 14q0 12 8 25.5t21.5 25t31 19.5t37.5 8q32 0 42 -19l67 -125q12 -23 20 -34.5t8 -25.5t-8 -24.5t-20 -33.5l-67 -125q-10 -19 -42 -19q-20 0 -37.5 8t-31 19.5t-21.5 25t-8 25.5q0 8 3 14z" />
    <glyph glyph-name="h" unicode="h" horiz-adv-x="535" 
d="M201 48q0 -18 -23 -33t-55 -15q-34 0 -55.5 15t-21.5 33v653q0 21 21.5 34t55.5 13q32 0 55 -13t23 -34v-295q14 29 45.5 52.5t78.5 23.5q34 0 65 -16.5t54 -45t37 -67t14 -81.5v-224q0 -24 -24.5 -36t-53.5 -12q-14 0 -27.5 3t-24.5 9t-18 15t-7 21v224q0 14 -6 27.5
t-15.5 24t-22.5 17t-28 6.5q-25 0 -46 -20t-21 -55v-224z" />
    <glyph glyph-name="hbar" unicode="&#x127;" horiz-adv-x="535" 
d="M-24 594q0 21 13 35.5t34 14.5h23v57q0 21 21.5 34t55.5 13q32 0 55 -13t23 -34v-57h22q18 0 33 -14.5t15 -35.5q0 -22 -15 -35.5t-33 -13.5h-22v-139q14 29 45.5 52.5t78.5 23.5q34 0 65 -16.5t54 -45t37 -67t14 -81.5v-224q0 -24 -24.5 -36t-53.5 -12q-14 0 -27.5 3
t-24.5 9t-18 15t-7 21v224q0 14 -6 27.5t-15.5 24t-22.5 17t-28 6.5q-25 0 -46 -20t-21 -55v-224q0 -18 -23 -33t-55 -15q-34 0 -55.5 15t-21.5 33v497h-23q-21 0 -34 13.5t-13 35.5z" />
    <glyph glyph-name="hcircumflex" unicode="&#x125;" horiz-adv-x="535" 
d="M201 48q0 -18 -23 -33t-55 -15q-34 0 -55.5 15t-21.5 33v653q0 21 21.5 34t55.5 13q32 0 55 -13t23 -34v-295q14 29 45.5 52.5t78.5 23.5q34 0 65 -16.5t54 -45t37 -67t14 -81.5v-224q0 -24 -24.5 -36t-53.5 -12q-14 0 -27.5 3t-24.5 9t-18 15t-7 21v224q0 14 -6 27.5
t-15.5 24t-22.5 17t-28 6.5q-25 0 -46 -20t-21 -55v-224zM16 827q-6 -3 -11 -3q-14 0 -22.5 14.5t-8.5 31.5q0 13 5.5 24.5t19.5 19.5l104 56q10 5 17 5t17 -5l104 -56q14 -8 19.5 -19.5t5.5 -24.5q0 -17 -8.5 -31.5t-22.5 -14.5q-5 0 -11 3l-104 56z" />
    <glyph glyph-name="hungarumlaut" unicode="&#x2dd;" horiz-adv-x="312" 
d="M67 567q-8 -11 -21 -11q-17 0 -31.5 14.5t-14.5 29.5q0 9 7 17l79 95q5 6 10.5 8t11.5 2q16 0 30 -14.5t14 -28.5q0 -10 -6 -17zM227 567q-8 -11 -21 -11q-17 0 -31.5 14.5t-14.5 29.5q0 9 7 17l79 95q5 6 10.5 8t11.5 2q16 0 30 -14.5t14 -28.5q0 -10 -6 -17z" />
    <glyph glyph-name="hyphen" unicode="-" horiz-adv-x="416" 
d="M31 240q0 27 13 45.5t34 18.5h260q18 0 33 -18.5t15 -45.5q0 -29 -15 -46t-33 -17h-260q-21 0 -34 17t-13 46z" />
    <glyph glyph-name="i" unicode="i" horiz-adv-x="244" 
d="M122 476q32 0 55 -13t23 -34v-381q0 -18 -23 -33t-55 -15q-34 0 -55.5 15t-21.5 33v381q0 21 21.5 34t55.5 13zM122 711q34 0 57.5 -21t23.5 -50t-23.5 -50.5t-57.5 -21.5q-35 0 -58.5 21.5t-23.5 50.5t23.5 50t58.5 21z" />
    <glyph glyph-name="iacute" unicode="&#xed;" horiz-adv-x="244" 
d="M122 476q32 0 55 -13t23 -34v-381q0 -18 -23 -33t-55 -15q-34 0 -55.5 15t-21.5 33v381q0 21 21.5 34t55.5 13zM94 563q-10 -4 -15 -4q-20 0 -33 19t-13 39q0 25 20 35l140 65q7 3 14 3q10 0 18.5 -5.5t15 -14t10 -18.5t3.5 -20q0 -11 -4.5 -20t-15.5 -14z" />
    <glyph glyph-name="ibreve" unicode="&#x12d;" horiz-adv-x="244" 
d="M122 476q32 0 55 -13t23 -34v-381q0 -18 -23 -33t-55 -15q-34 0 -55.5 15t-21.5 33v381q0 21 21.5 34t55.5 13zM262 724q0 -28 -11.5 -53t-31 -44t-44.5 -30.5t-52 -11.5t-52.5 11.5t-45 30.5t-31 44t-11.5 53h80q0 -32 19 -52.5t41 -20.5q21 0 40 20.5t19 52.5h80z" />
    <glyph glyph-name="icircumflex" unicode="&#xee;" horiz-adv-x="244" 
d="M122 476q32 0 55 -13t23 -34v-381q0 -18 -23 -33t-55 -15q-34 0 -55.5 15t-21.5 33v381q0 21 21.5 34t55.5 13zM19 572q-6 -3 -11 -3q-14 0 -22.5 14.5t-8.5 31.5q0 13 5.5 24.5t19.5 19.5l104 56q10 5 17 5t17 -5l104 -56q14 -8 19.5 -19.5t5.5 -24.5q0 -17 -8.5 -31.5
t-22.5 -14.5q-5 0 -11 3l-104 56z" />
    <glyph glyph-name="idieresis" unicode="&#xef;" horiz-adv-x="244" 
d="M122 476q32 0 55 -13t23 -34v-381q0 -18 -23 -33t-55 -15q-34 0 -55.5 15t-21.5 33v381q0 21 21.5 34t55.5 13zM47 688q23 0 39.5 -17.5t16.5 -40.5t-16.5 -41t-39.5 -18t-40 18t-17 41t17 40.5t40 17.5zM207 688q23 0 39.5 -17.5t16.5 -40.5t-16.5 -41t-39.5 -18t-40 18
t-17 41t17 40.5t40 17.5z" />
    <glyph glyph-name="igrave" unicode="&#xec;" horiz-adv-x="244" 
d="M122 476q32 0 55 -13t23 -34v-381q0 -18 -23 -33t-55 -15q-34 0 -55.5 15t-21.5 33v381q0 21 21.5 34t55.5 13zM13 628q-11 5 -15.5 14t-4.5 20q0 10 3.5 20t10 18.5t15 14t18.5 5.5q6 0 14 -3l140 -65q20 -10 20 -35q0 -20 -13 -39t-33 -19q-5 0 -15 4z" />
    <glyph glyph-name="ij" unicode="&#x133;" horiz-adv-x="463" 
d="M122 476q32 0 55 -13t23 -34v-381q0 -18 -23 -33t-55 -15q-34 0 -55.5 15t-21.5 33v381q0 21 21.5 34t55.5 13zM122 711q34 0 57.5 -21t23.5 -50t-23.5 -50.5t-57.5 -21.5q-35 0 -58.5 21.5t-23.5 50.5t23.5 50t58.5 21zM340 711q34 0 57.5 -21t23.5 -50t-23.5 -50.5
t-57.5 -21.5q-35 0 -58.5 21.5t-23.5 50.5t23.5 50t58.5 21zM339 476q33 0 56 -13t23 -34v-457q0 -42 -10.5 -76.5t-31 -59.5t-50 -39t-67.5 -14q-25 0 -40.5 5.5t-24.5 14.5t-12.5 20t-3.5 23q0 31 17 49t41 18q18 0 22.5 16.5t4.5 42.5v457q0 21 21.5 34t54.5 13z" />
    <glyph glyph-name="imacron" unicode="&#x12b;" horiz-adv-x="244" 
d="M122 476q32 0 55 -13t23 -34v-381q0 -18 -23 -33t-55 -15q-34 0 -55.5 15t-21.5 33v381q0 21 21.5 34t55.5 13zM-24 649q0 21 13 35.5t34 14.5h200q18 0 33 -14.5t15 -35.5q0 -22 -15 -35.5t-33 -13.5h-200q-21 0 -34 13.5t-13 35.5z" />
    <glyph glyph-name="infinity" unicode="&#x221e;" horiz-adv-x="917" 
d="M261 453q55 0 108.5 -31.5t88.5 -87.5q35 56 88.5 87.5t109.5 31.5q44 0 85.5 -13.5t73.5 -40.5t51 -68t19 -95t-19 -95t-51 -68t-73.5 -40.5t-86.5 -13.5q-55 0 -108.5 31t-88.5 87q-35 -56 -88.5 -87t-108.5 -31q-44 0 -85.5 13.5t-73.5 40.5t-51 68t-19 95t19 95
t51 68t73.5 40.5t85.5 13.5zM509 236q12 -23 29 -40t36.5 -28.5t40.5 -17t40 -5.5q38 0 66 22t28 69t-28 69t-66 22q-19 0 -40 -5.5t-40.5 -17t-36.5 -28.5t-29 -40zM408 236q-12 23 -29 40t-36.5 28.5t-40.5 17t-40 5.5q-38 0 -66 -22t-28 -69t28 -69t66 -22q19 0 40 5.5
t40.5 17t36.5 28.5t29 40z" />
    <glyph glyph-name="integral" unicode="&#x222b;" horiz-adv-x="364" 
d="M323 748q14 0 30.5 -15.5t16.5 -41.5q0 -9 -2.5 -19.5t-7.5 -19.5t-14.5 -15t-22.5 -6q-19 0 -31 -3t-19 -11t-10 -21.5t-3 -35.5v-563q0 -35 -7.5 -70t-29.5 -63.5t-62.5 -46t-106.5 -17.5q-26 0 -42.5 17.5t-16.5 40.5t13 43t38 20q35 0 46.5 18.5t11.5 56.5v570
q0 39 9 72t33.5 57.5t67 38.5t109.5 14z" />
    <glyph glyph-name="iogonek" unicode="&#x12f;" horiz-adv-x="244" 
d="M144 -155q14 0 19.5 -11.5t5.5 -22.5t-5.5 -20t-25.5 -9q-66 0 -95.5 28.5t-29.5 68.5q0 33 18 67.5t50 60.5q-17 7 -26.5 18t-9.5 23v381q0 21 21.5 34t55.5 13q32 0 55 -13t23 -34v-381q0 -12 -10 -22.5t-26 -17.5q-17 -9 -31 -22.5t-24.5 -29.5t-16.5 -32t-6 -31
q0 -21 13 -34.5t45 -13.5zM122 711q34 0 57.5 -21t23.5 -50t-23.5 -50.5t-57.5 -21.5q-35 0 -58.5 21.5t-23.5 50.5t23.5 50t58.5 21z" />
    <glyph glyph-name="itilde" unicode="&#x129;" horiz-adv-x="244" 
d="M122 476q32 0 55 -13t23 -34v-381q0 -18 -23 -33t-55 -15q-34 0 -55.5 15t-21.5 33v381q0 21 21.5 34t55.5 13zM70 606q-16 0 -28 -3.5t-22 -7t-18.5 -7t-17.5 -3.5q-12 0 -19 6t-11.5 14.5t-6 16.5t-1.5 12q0 27 10.5 41.5t25 21.5t28.5 8.5t21 1.5q23 0 41 -4
t34.5 -9.5t33 -9.5t37.5 -4q16 0 28 3.5t22 7t18.5 7t17.5 3.5q12 0 19 -6.5t11.5 -14.5t6 -16t1.5 -12q0 -27 -10.5 -41.5t-25 -21.5t-28.5 -8.5t-21 -1.5q-27 0 -46 4t-35.5 9.5t-31.5 9.5t-33 4z" />
    <glyph glyph-name="j" unicode="j" horiz-adv-x="245" 
d="M122 711q34 0 57.5 -21t23.5 -50t-23.5 -50.5t-57.5 -21.5q-35 0 -58.5 21.5t-23.5 50.5t23.5 50t58.5 21zM121 476q33 0 56 -13t23 -34v-457q0 -42 -10.5 -76.5t-31 -59.5t-50 -39t-67.5 -14q-25 0 -40.5 5.5t-24.5 14.5t-12.5 20t-3.5 23q0 31 17 49t41 18
q18 0 22.5 16.5t4.5 42.5v457q0 21 21.5 34t54.5 13z" />
    <glyph glyph-name="jcircumflex" unicode="&#x135;" horiz-adv-x="245" 
d="M121 476q33 0 56 -13t23 -34v-457q0 -42 -10.5 -76.5t-31 -59.5t-50 -39t-67.5 -14q-25 0 -40.5 5.5t-24.5 14.5t-12.5 20t-3.5 23q0 31 17 49t41 18q18 0 22.5 16.5t4.5 42.5v457q0 21 21.5 34t54.5 13zM19 572q-6 -3 -11 -3q-14 0 -22.5 14.5t-8.5 31.5q0 13 5.5 24.5
t19.5 19.5l104 56q10 5 17 5t17 -5l104 -56q14 -8 19.5 -19.5t5.5 -24.5q0 -17 -8.5 -31.5t-22.5 -14.5q-5 0 -11 3l-104 56z" />
    <glyph glyph-name="k" unicode="k" horiz-adv-x="509" 
d="M354 283l137 -192q8 -13 8 -24q0 -14 -8.5 -27.5t-22 -24.5t-29 -18t-29.5 -7q-24 0 -37 19l-121 179l-51 -47v-93q0 -18 -23 -33t-56 -15t-54.5 15t-21.5 33v653q0 21 21.5 34t54.5 13t56 -13t23 -34v-392l166 161q12 12 30 12q13 0 26 -7t24 -17.5t18 -24t7 -25.5
q0 -15 -12 -27z" />
    <glyph glyph-name="kcommaaccent" unicode="&#x137;" horiz-adv-x="509" 
d="M354 283l137 -192q8 -13 8 -24q0 -14 -8.5 -27.5t-22 -24.5t-29 -18t-29.5 -7q-24 0 -37 19l-121 179l-51 -47v-93q0 -18 -23 -33t-56 -15t-54.5 15t-21.5 33v653q0 21 21.5 34t54.5 13t56 -13t23 -34v-392l166 161q12 12 30 12q13 0 26 -7t24 -17.5t18 -24t7 -25.5
q0 -15 -12 -27zM203 -205q-10 -4 -15 -4q-20 0 -33 19t-13 39q0 25 20 35l140 65q7 3 14 3q10 0 18.5 -5.5t15 -14t10 -18.5t3.5 -20q0 -11 -4.5 -20t-15.5 -14z" />
    <glyph glyph-name="kgreenlandic" unicode="&#x138;" horiz-adv-x="508" 
d="M353 283l137 -192q8 -13 8 -24q0 -14 -8.5 -27.5t-22 -24.5t-29 -18t-29.5 -7q-24 0 -37 19l-121 179l-51 -47v-93q0 -18 -23 -33t-56 -15t-54.5 15t-21.5 33v381q0 21 21.5 34t54.5 13t56 -13t23 -34v-120l166 161q12 12 30 12q13 0 26 -7t24 -17.5t18 -24t7 -25.5
q0 -15 -12 -27z" />
    <glyph glyph-name="l" unicode="l" horiz-adv-x="263" 
d="M131 748q32 0 55 -13t23 -34v-653q0 -18 -23 -33t-55 -15q-34 0 -55.5 15t-21.5 33v653q0 21 21.5 34t55.5 13z" />
    <glyph glyph-name="lacute" unicode="&#x13a;" horiz-adv-x="263" 
d="M131 748q32 0 55 -13t23 -34v-653q0 -18 -23 -33t-55 -15q-34 0 -55.5 15t-21.5 33v653q0 21 21.5 34t55.5 13zM112 793q-10 -4 -15 -4q-20 0 -33 19t-13 39q0 25 20 35l140 65q7 3 14 3q10 0 18.5 -5.5t15 -14t10 -18.5t3.5 -20q0 -11 -4.5 -20t-15.5 -14z" />
    <glyph glyph-name="lcaron" unicode="&#x13e;" horiz-adv-x="263" 
d="M131 748q32 0 55 -13t23 -34v-653q0 -18 -23 -33t-55 -15q-34 0 -55.5 15t-21.5 33v653q0 21 21.5 34t55.5 13zM334 741q32 0 54.5 -22.5t22.5 -53.5q0 -5 -1.5 -11t-7.5 -22t-18.5 -46t-34.5 -81q-5 -11 -13.5 -14.5t-16.5 -3.5q-16 0 -33 10t-17 29q0 8 4 16l25 54
q-18 11 -29 28.5t-11 39.5q0 32 22 54.5t54 22.5z" />
    <glyph glyph-name="lcommaaccent" unicode="&#x13c;" horiz-adv-x="263" 
d="M131 748q32 0 55 -13t23 -34v-653q0 -18 -23 -33t-55 -15q-34 0 -55.5 15t-21.5 33v653q0 21 21.5 34t55.5 13zM82 -205q-10 -4 -15 -4q-20 0 -33 19t-13 39q0 25 20 35l140 65q7 3 14 3q10 0 18.5 -5.5t15 -14t10 -18.5t3.5 -20q0 -11 -4.5 -20t-15.5 -14z" />
    <glyph glyph-name="ldot" unicode="&#x140;" horiz-adv-x="392" 
d="M131 748q32 0 55 -13t23 -34v-653q0 -18 -23 -33t-55 -15q-34 0 -55.5 15t-21.5 33v653q0 21 21.5 34t55.5 13zM317 371q34 0 57.5 -21t23.5 -50t-23.5 -50.5t-57.5 -21.5q-35 0 -58.5 21.5t-23.5 50.5t23.5 50t58.5 21z" />
    <glyph glyph-name="less" unicode="&#x3c;" horiz-adv-x="427" 
d="M19 277q0 13 7 29t24 27l254 165q6 5 19 5q11 0 23 -5.5t22 -15.5t16.5 -23.5t6.5 -28.5q0 -28 -18 -39l-176 -114l176 -114q18 -11 18 -39q0 -15 -6.5 -28.5t-16.5 -23.5t-22 -15.5t-23 -5.5q-13 0 -19 5l-254 165q-17 11 -24 27t-7 29z" />
    <glyph glyph-name="lessequal" unicode="&#x2264;" horiz-adv-x="442" 
d="M375 293q14 -6 19.5 -16.5t5.5 -22.5q0 -13 -5.5 -26t-15 -24t-21.5 -18t-25 -7q-9 0 -19 5l-254 125q-19 9 -25 26t-6 30t6 30t25 26l254 125q10 5 19 5q13 0 25 -7t21.5 -18t15 -24t5.5 -26q0 -12 -5.5 -22.5t-19.5 -16.5l-168 -72zM29 84q0 27 13 45.5t34 18.5h277
q18 0 33 -18.5t15 -45.5q0 -29 -15 -46t-33 -17h-277q-21 0 -34 17t-13 46z" />
    <glyph glyph-name="logicalnot" unicode="&#xac;" horiz-adv-x="504" 
d="M26 240q0 27 13 45.5t34 18.5h341q18 0 33 -18.5t15 -45.5v-129q0 -18 -23 -33t-55 -15q-34 0 -55.5 15t-21.5 33v66h-234q-21 0 -34 17t-13 46z" />
    <glyph glyph-name="lozenge" unicode="&#x25ca;" horiz-adv-x="534" 
d="M469 479q19 -33 32 -60.5t13 -52.5t-13 -52.5t-32 -60.5l-133 -232q-8 -14 -27.5 -22t-41.5 -8t-41.5 8t-27.5 22l-133 232q-19 33 -32 60.5t-13 52.5t13 52.5t32 60.5l133 232q8 14 27.5 22t41.5 8t41.5 -8t27.5 -22zM160 366l107 -195l107 195l-107 205z" />
    <glyph glyph-name="lslash" unicode="&#x142;" horiz-adv-x="336" 
d="M167 748q32 0 55 -13t23 -34v-250l13 6q6 3 12 3q11 0 20.5 -6.5t17 -17t12 -22.5t4.5 -23q0 -25 -19 -34l-60 -28v-281q0 -18 -23 -33t-55 -15q-34 0 -55.5 15t-21.5 33v208l-12 -5q-6 -3 -13 -3q-11 0 -20 6.5t-16.5 16t-11.5 22t-4 24.5q0 11 4 20t14 14l59 27v323
q0 21 21.5 34t55.5 13z" />
    <glyph glyph-name="m" unicode="m" horiz-adv-x="813" 
d="M331 271q0 38 -21 57t-47 19q-24 0 -43.5 -18.5t-19.5 -56.5v-224q0 -18 -23 -33t-55 -15q-34 0 -55.5 15t-21.5 33v381q0 21 21.5 34t55.5 13q28 0 48 -13t20 -34v-23q17 29 49.5 52.5t82.5 23.5q41 0 72 -27.5t46 -72.5q26 51 66.5 75.5t83.5 24.5q35 0 68 -14
t58.5 -41t40.5 -66t15 -89v-224q0 -18 -23 -33t-55 -15q-31 0 -54 15t-23 33v224q0 38 -20.5 57t-46.5 19q-24 0 -44 -19t-20 -57v-225q0 -25 -24.5 -36t-53.5 -11q-14 0 -27.5 2.5t-24.5 8.5t-18 15t-7 21v224z" />
    <glyph glyph-name="m.ss04" horiz-adv-x="811" 
d="M570 482q41 0 77.5 -17t64 -46t43.5 -67t16 -80v-225q0 -19 -21.5 -33t-55.5 -14q-32 0 -55 14t-23 33v225q0 14 -5.5 27.5t-14.5 24t-21 17t-25 6.5q-14 0 -26 -6.5t-21 -17t-14.5 -24t-5.5 -27.5v-225q0 -19 -21.5 -33t-55.5 -14q-32 0 -55 14t-23 33v225
q0 14 -5.5 27.5t-14.5 24t-21 17t-25 6.5q-14 0 -26 -6.5t-21 -17t-14.5 -24t-5.5 -27.5v-224q0 -18 -23 -33t-54 -15q-32 0 -55 15t-23 33v224q0 42 16 80t43.5 67t64 46t78.5 17q94 0 163 -61q69 61 165 61z" />
    <glyph glyph-name="macron" unicode="&#xaf;" horiz-adv-x="295" 
d="M0 649q0 21 13 35.5t34 14.5h200q18 0 33 -14.5t15 -35.5q0 -22 -15 -35.5t-33 -13.5h-200q-21 0 -34 13.5t-13 35.5z" />
    <glyph glyph-name="minus" unicode="&#x2212;" horiz-adv-x="490" 
d="M38 284q0 27 13 45.5t34 18.5h320q18 0 33 -18.5t15 -45.5q0 -29 -15 -46t-33 -17h-320q-21 0 -34 17t-13 46z" />
    <glyph glyph-name="mu" unicode="&#xb5;" horiz-adv-x="529" 
d="M279 -10q-25 0 -48.5 7.5t-44.5 21.5v-188q0 -18 -17.5 -33t-41.5 -15q-33 0 -54.5 15t-21.5 33v597q0 18 23 33t55 15q31 0 54 -15t23 -33v-228q0 -14 6 -27.5t15.5 -24t23 -17t28.5 -6.5t28 6.5t23 17t15.5 24t5.5 27.5v229q0 19 23 33t55 14q34 0 55.5 -14t21.5 -33
v-229q0 -42 -18 -80t-49 -67t-72.5 -46t-87.5 -17z" />
    <glyph glyph-name="multiply" unicode="&#xd7;" horiz-adv-x="410" 
d="M375 176q0 -13 -6.5 -25.5t-17 -23t-23.5 -17t-26 -6.5q-17 0 -29 12l-69 69l-68 -69q-12 -12 -30 -12q-12 0 -25 6.5t-23.5 17t-17 23.5t-6.5 26q0 17 12 29l79 69l-78 67q-11 11 -11 29q0 13 6 26t16 23.5t23 16.5t26 6q17 0 30 -11l67 -68l68 68q11 11 29 11
q13 0 26 -6t23.5 -16t16.5 -23t6 -26q0 -19 -11 -30l-78 -67l79 -69q12 -12 12 -30z" />
    <glyph glyph-name="n" unicode="n" horiz-adv-x="534" 
d="M200 48q0 -18 -23 -33t-55 -15q-34 0 -55.5 15t-21.5 33v381q0 21 21.5 34t55.5 13q28 0 48 -13t20 -34v-23q14 29 49 52.5t85 23.5q34 0 65 -16.5t54 -45t37 -67t14 -81.5v-224q0 -24 -24.5 -36t-53.5 -12q-14 0 -27.5 3t-24.5 9t-18 15t-7 21v224q0 14 -5.5 27.5
t-15.5 24t-23 17t-28 6.5q-25 0 -46 -20t-21 -55v-224z" />
    <glyph glyph-name="n.ss04" horiz-adv-x="529" 
d="M265 482q46 0 86.5 -17t71 -46t48.5 -67t18 -80v-225q0 -19 -21.5 -33t-55.5 -14q-32 0 -55 14t-23 33v225q0 29 -20 52t-49 23t-49.5 -23t-20.5 -52v-224q0 -18 -23 -33t-54 -15q-32 0 -55 15t-23 33v224q0 42 18 80t48.5 67t71.5 46t87 17z" />
    <glyph glyph-name="nacute" unicode="&#x144;" horiz-adv-x="534" 
d="M200 48q0 -18 -23 -33t-55 -15q-34 0 -55.5 15t-21.5 33v381q0 21 21.5 34t55.5 13q28 0 48 -13t20 -34v-23q14 29 49 52.5t85 23.5q34 0 65 -16.5t54 -45t37 -67t14 -81.5v-224q0 -24 -24.5 -36t-53.5 -12q-14 0 -27.5 3t-24.5 9t-18 15t-7 21v224q0 14 -5.5 27.5
t-15.5 24t-23 17t-28 6.5q-25 0 -46 -20t-21 -55v-224zM227 563q-10 -4 -15 -4q-20 0 -33 19t-13 39q0 25 20 35l140 65q7 3 14 3q10 0 18.5 -5.5t15 -14t10 -18.5t3.5 -20q0 -11 -4.5 -20t-15.5 -14z" />
    <glyph glyph-name="ncaron" unicode="&#x148;" horiz-adv-x="534" 
d="M264 673l104 56q6 3 11 3q14 0 22.5 -14.5t8.5 -31.5q0 -13 -5.5 -24.5t-19.5 -19.5l-104 -56q-10 -5 -17 -5t-17 5l-104 56q-14 8 -19.5 19.5t-5.5 24.5q0 17 8.5 31.5t22.5 14.5q5 0 11 -3zM200 48q0 -18 -23 -33t-55 -15q-34 0 -55.5 15t-21.5 33v381q0 21 21.5 34
t55.5 13q28 0 48 -13t20 -34v-23q14 29 49 52.5t85 23.5q34 0 65 -16.5t54 -45t37 -67t14 -81.5v-224q0 -24 -24.5 -36t-53.5 -12q-14 0 -27.5 3t-24.5 9t-18 15t-7 21v224q0 14 -5.5 27.5t-15.5 24t-23 17t-28 6.5q-25 0 -46 -20t-21 -55v-224z" />
    <glyph glyph-name="ncommaaccent" unicode="&#x146;" horiz-adv-x="534" 
d="M200 48q0 -18 -23 -33t-55 -15q-34 0 -55.5 15t-21.5 33v381q0 21 21.5 34t55.5 13q28 0 48 -13t20 -34v-23q14 29 49 52.5t85 23.5q34 0 65 -16.5t54 -45t37 -67t14 -81.5v-224q0 -24 -24.5 -36t-53.5 -12q-14 0 -27.5 3t-24.5 9t-18 15t-7 21v224q0 14 -5.5 27.5
t-15.5 24t-23 17t-28 6.5q-25 0 -46 -20t-21 -55v-224zM219 -205q-10 -4 -15 -4q-20 0 -33 19t-13 39q0 25 20 35l140 65q7 3 14 3q10 0 18.5 -5.5t15 -14t10 -18.5t3.5 -20q0 -11 -4.5 -20t-15.5 -14z" />
    <glyph glyph-name="nine" unicode="9" horiz-adv-x="563" 
d="M243 276q-43 0 -81 10.5t-66.5 34.5t-45.5 64.5t-17 100.5v9q0 64 19 109t52 73.5t77.5 41t96.5 12.5t97 -12.5t78 -41t52 -73.5t19 -109v-265q0 -65 -19.5 -109.5t-54 -73t-81 -41t-100.5 -12.5q-63 0 -108 17.5t-73.5 45t-41.5 61t-13 64.5q0 36 17.5 49.5t55.5 13.5
q16 0 30.5 -2.5t26 -9t18 -17.5t6.5 -28q0 -29 26 -43.5t61 -14.5q45 0 69.5 24t24.5 76v90q-24 -26 -56.5 -35t-68.5 -9zM368 506q0 52 -24 75.5t-66 23.5t-65.5 -23.5t-23.5 -75.5v-9q0 -55 23.5 -78t66.5 -23q41 0 65 21t24 71v18z" />
    <glyph glyph-name="nineinferior" unicode="&#x2089;" horiz-adv-x="350" 
d="M150 152q-26 0 -49 6t-40.5 19.5t-27.5 36.5t-10 57v4q0 37 11.5 62.5t31.5 41.5t47.5 23t59.5 7q31 0 58.5 -7t48 -23t32 -42t11.5 -63v-142q0 -37 -12 -63t-33 -42t-49.5 -23t-61.5 -7q-39 0 -66.5 10.5t-44.5 26t-25 34.5t-8 36q0 23 11.5 31.5t35.5 8.5
q21 0 36.5 -6.5t15.5 -29.5q0 -13 14 -18.5t34 -5.5q25 0 39 11.5t14 36.5v41q-14 -14 -33 -17.5t-40 -3.5zM223 281q0 26 -13.5 37t-36.5 11t-36 -11t-13 -37v-4q0 -26 13 -37.5t37 -11.5q22 0 35.5 10.5t13.5 34.5v8z" />
    <glyph glyph-name="ninesuperior" unicode="&#x2079;" horiz-adv-x="349" 
d="M149 474q-26 0 -49 6t-40.5 19.5t-27.5 36.5t-10 57v4q0 37 11.5 62.5t31.5 41.5t47.5 23t59.5 7q31 0 58.5 -7t48 -23t32 -42t11.5 -63v-142q0 -37 -12 -63t-33 -42t-49.5 -23t-61.5 -7q-39 0 -66.5 10.5t-44.5 26t-25 34.5t-8 36q0 23 11.5 31.5t35.5 8.5
q21 0 36.5 -6.5t15.5 -29.5q0 -13 14 -18.5t34 -5.5q25 0 39 11.5t14 36.5v41q-14 -14 -33 -17.5t-40 -3.5zM222 603q0 26 -13.5 37t-36.5 11t-36 -11t-13 -37v-4q0 -26 13 -37.5t37 -11.5q22 0 35.5 10.5t13.5 34.5v8z" />
    <glyph glyph-name="notequal" unicode="&#x2260;" horiz-adv-x="514" 
d="M391 402h46q18 0 33 -18.5t15 -45.5q0 -29 -15 -46t-33 -17h-124l-47 -76h171q18 0 33 -18.5t15 -45.5q0 -29 -15 -46t-33 -17h-249l-52 -84q-6 -10 -19 -10q-14 0 -27 10.5t-13 24.5q0 7 5 15l27 44h-32q-21 0 -34 17t-13 46q0 27 13 45.5t34 18.5h108l46 76h-154
q-21 0 -34 17t-13 46q0 27 13 45.5t34 18.5h231l65 107q7 12 23 12q14 0 28 -11t14 -26q0 -7 -5 -15z" />
    <glyph glyph-name="ntilde" unicode="&#xf1;" horiz-adv-x="534" 
d="M213 606q-16 0 -28 -3.5t-22 -7t-18.5 -7t-17.5 -3.5q-12 0 -19 6t-11.5 14.5t-6 16.5t-1.5 12q0 27 10.5 41.5t25 21.5t28.5 8.5t21 1.5q23 0 41 -4t34.5 -9.5t33 -9.5t37.5 -4q16 0 28 3.5t22 7t18.5 7t17.5 3.5q12 0 19 -6.5t11.5 -14.5t6 -16t1.5 -12
q0 -27 -10.5 -41.5t-25 -21.5t-28.5 -8.5t-21 -1.5q-27 0 -46 4t-35.5 9.5t-31.5 9.5t-33 4zM200 48q0 -18 -23 -33t-55 -15q-34 0 -55.5 15t-21.5 33v381q0 21 21.5 34t55.5 13q28 0 48 -13t20 -34v-23q14 29 49 52.5t85 23.5q34 0 65 -16.5t54 -45t37 -67t14 -81.5v-224
q0 -24 -24.5 -36t-53.5 -12q-14 0 -27.5 3t-24.5 9t-18 15t-7 21v224q0 14 -5.5 27.5t-15.5 24t-23 17t-28 6.5q-25 0 -46 -20t-21 -55v-224z" />
    <glyph glyph-name="numbersign" unicode="#" horiz-adv-x="717" 
d="M291 713q26 0 48 -12.5t22 -44.5l-21 -111h103l26 136q3 15 22.5 23.5t42.5 8.5q26 0 48 -12.5t23 -44.5l-22 -111h70q17 0 30 -16.5t13 -40.5q0 -26 -13.5 -42t-30.5 -16h-90l-22 -108h70q17 0 30.5 -16.5t13.5 -40.5q0 -26 -14 -42t-31 -16h-91l-28 -145
q-3 -14 -22 -24t-38 -10q-12 0 -26 3.5t-25 10.5t-18.5 18t-7.5 25l23 122h-101l-28 -145q-3 -14 -22.5 -24t-37.5 -10q-12 0 -25.5 3.5t-25 10.5t-18.5 18t-7 25l22 122h-70q-19 0 -30.5 15t-11.5 41q0 25 12 42t31 17h92l21 108h-71q-20 0 -31 15t-11 41q0 25 11.5 42
t31.5 17h93l26 136q3 15 22.5 23.5t42.5 8.5zM297 322h102l21 108h-102z" />
    <glyph glyph-name="o" unicode="o" horiz-adv-x="509" 
d="M254 482q46 0 87 -16.5t72.5 -45t50 -67t18.5 -81.5v-70q0 -42 -18.5 -80t-50 -67.5t-72.5 -47t-87 -17.5t-87 17.5t-72 46.5t-49.5 67.5t-18.5 80.5v70q0 42 18 80t48.5 67t72 46t88.5 17zM327 272q0 14 -6 27.5t-15.5 24t-23 17t-28.5 6.5t-28 -6.5t-23 -17t-15.5 -24
t-5.5 -27.5v-70q0 -30 21 -53.5t51 -23.5t51.5 23.5t21.5 53.5v70z" />
    <glyph glyph-name="oacute" unicode="&#xf3;" horiz-adv-x="509" 
d="M254 482q46 0 87 -16.5t72.5 -45t50 -67t18.5 -81.5v-70q0 -42 -18.5 -80t-50 -67.5t-72.5 -47t-87 -17.5t-87 17.5t-72 46.5t-49.5 67.5t-18.5 80.5v70q0 42 18 80t48.5 67t72 46t88.5 17zM327 272q0 14 -6 27.5t-15.5 24t-23 17t-28.5 6.5t-28 -6.5t-23 -17t-15.5 -24
t-5.5 -27.5v-70q0 -30 21 -53.5t51 -23.5t51.5 23.5t21.5 53.5v70zM209 563q-10 -4 -15 -4q-20 0 -33 19t-13 39q0 25 20 35l140 65q7 3 14 3q10 0 18.5 -5.5t15 -14t10 -18.5t3.5 -20q0 -11 -4.5 -20t-15.5 -14z" />
    <glyph glyph-name="obreve" unicode="&#x14f;" horiz-adv-x="509" 
d="M254 482q46 0 87 -16.5t72.5 -45t50 -67t18.5 -81.5v-70q0 -42 -18.5 -80t-50 -67.5t-72.5 -47t-87 -17.5t-87 17.5t-72 46.5t-49.5 67.5t-18.5 80.5v70q0 42 18 80t48.5 67t72 46t88.5 17zM327 272q0 14 -6 27.5t-15.5 24t-23 17t-28.5 6.5t-28 -6.5t-23 -17t-15.5 -24
t-5.5 -27.5v-70q0 -30 21 -53.5t51 -23.5t51.5 23.5t21.5 53.5v70zM395 724q0 -28 -11.5 -53t-31 -44t-44.5 -30.5t-52 -11.5t-52.5 11.5t-45 30.5t-31 44t-11.5 53h80q0 -32 19 -52.5t41 -20.5q21 0 40 20.5t19 52.5h80z" />
    <glyph glyph-name="ocircumflex" unicode="&#xf4;" horiz-adv-x="509" 
d="M254 482q46 0 87 -16.5t72.5 -45t50 -67t18.5 -81.5v-70q0 -42 -18.5 -80t-50 -67.5t-72.5 -47t-87 -17.5t-87 17.5t-72 46.5t-49.5 67.5t-18.5 80.5v70q0 42 18 80t48.5 67t72 46t88.5 17zM327 272q0 14 -6 27.5t-15.5 24t-23 17t-28.5 6.5t-28 -6.5t-23 -17t-15.5 -24
t-5.5 -27.5v-70q0 -30 21 -53.5t51 -23.5t51.5 23.5t21.5 53.5v70zM150 572q-6 -3 -11 -3q-14 0 -22.5 14.5t-8.5 31.5q0 13 5.5 24.5t19.5 19.5l104 56q10 5 17 5t17 -5l104 -56q14 -8 19.5 -19.5t5.5 -24.5q0 -17 -8.5 -31.5t-22.5 -14.5q-5 0 -11 3l-104 56z" />
    <glyph glyph-name="odieresis" unicode="&#xf6;" horiz-adv-x="509" 
d="M254 482q46 0 87 -16.5t72.5 -45t50 -67t18.5 -81.5v-70q0 -42 -18.5 -80t-50 -67.5t-72.5 -47t-87 -17.5t-87 17.5t-72 46.5t-49.5 67.5t-18.5 80.5v70q0 42 18 80t48.5 67t72 46t88.5 17zM327 272q0 14 -6 27.5t-15.5 24t-23 17t-28.5 6.5t-28 -6.5t-23 -17t-15.5 -24
t-5.5 -27.5v-70q0 -30 21 -53.5t51 -23.5t51.5 23.5t21.5 53.5v70zM176 688q23 0 39.5 -17.5t16.5 -40.5t-16.5 -41t-39.5 -18t-40 18t-17 41t17 40.5t40 17.5zM336 688q23 0 39.5 -17.5t16.5 -40.5t-16.5 -41t-39.5 -18t-40 18t-17 41t17 40.5t40 17.5z" />
    <glyph glyph-name="oe" unicode="&#x153;" horiz-adv-x="796" 
d="M254 482q47 0 88 -19.5t70 -52.5q29 33 66 52.5t79 19.5q43 0 82 -14t68.5 -39t47 -60t17.5 -77q0 -33 -8.5 -52t-22.5 -28t-31.5 -11t-34.5 -2h-193v-6q0 -37 28 -59.5t74 -22.5q23 0 41 6t32.5 12.5t27 12.5t24.5 6q13 0 24 -7.5t18 -18t11 -22t4 -20.5q0 -14 -13 -30
t-37.5 -29.5t-59 -22t-76.5 -8.5q-51 0 -93.5 18.5t-74.5 53.5q-31 -33 -71 -52.5t-87 -19.5q-46 0 -87 17.5t-72 46.5t-49.5 67.5t-18.5 80.5v70q0 42 18 80t48.5 67t72 46t88.5 17zM327 272q0 14 -6 27.5t-15.5 24t-23 17t-28.5 6.5t-28 -6.5t-23 -17t-15.5 -24
t-5.5 -27.5v-70q0 -30 21 -53.5t51 -23.5t51.5 23.5t21.5 53.5v70zM606 286q11 0 16 5t5 19q0 30 -22.5 45t-50.5 15q-27 0 -49.5 -15t-22.5 -45v-24h124z" />
    <glyph glyph-name="ogonek" unicode="&#x2db;" horiz-adv-x="156" 
d="M131 -155q14 0 19.5 -11.5t5.5 -22.5t-5.5 -20t-25.5 -9q-66 0 -95.5 28.5t-29.5 68.5t26.5 81.5t72.5 67.5l53 -19q-17 -9 -31.5 -23t-25 -30t-16.5 -32t-6 -31q0 -21 13 -34.5t45 -13.5z" />
    <glyph glyph-name="ograve" unicode="&#xf2;" horiz-adv-x="509" 
d="M254 482q46 0 87 -16.5t72.5 -45t50 -67t18.5 -81.5v-70q0 -42 -18.5 -80t-50 -67.5t-72.5 -47t-87 -17.5t-87 17.5t-72 46.5t-49.5 67.5t-18.5 80.5v70q0 42 18 80t48.5 67t72 46t88.5 17zM327 272q0 14 -6 27.5t-15.5 24t-23 17t-28.5 6.5t-28 -6.5t-23 -17t-15.5 -24
t-5.5 -27.5v-70q0 -30 21 -53.5t51 -23.5t51.5 23.5t21.5 53.5v70zM148 628q-11 5 -15.5 14t-4.5 20q0 10 3.5 20t10 18.5t15 14t18.5 5.5q6 0 14 -3l140 -65q20 -10 20 -35q0 -20 -13 -39t-33 -19q-5 0 -15 4z" />
    <glyph glyph-name="ohungarumlaut" unicode="&#x151;" horiz-adv-x="509" 
d="M254 482q46 0 87 -16.5t72.5 -45t50 -67t18.5 -81.5v-70q0 -42 -18.5 -80t-50 -67.5t-72.5 -47t-87 -17.5t-87 17.5t-72 46.5t-49.5 67.5t-18.5 80.5v70q0 42 18 80t48.5 67t72 46t88.5 17zM327 272q0 14 -6 27.5t-15.5 24t-23 17t-28.5 6.5t-28 -6.5t-23 -17t-15.5 -24
t-5.5 -27.5v-70q0 -30 21 -53.5t51 -23.5t51.5 23.5t21.5 53.5v70zM196 569q-8 -11 -21 -11q-17 0 -31.5 14.5t-14.5 29.5q0 9 7 17l79 95q5 6 10.5 8t11.5 2q16 0 30 -14.5t14 -28.5q0 -10 -6 -17zM356 569q-8 -11 -21 -11q-17 0 -31.5 14.5t-14.5 29.5q0 9 7 17l79 95
q5 6 10.5 8t11.5 2q16 0 30 -14.5t14 -28.5q0 -10 -6 -17z" />
    <glyph glyph-name="omacron" unicode="&#x14d;" horiz-adv-x="509" 
d="M254 482q46 0 87 -16.5t72.5 -45t50 -67t18.5 -81.5v-70q0 -42 -18.5 -80t-50 -67.5t-72.5 -47t-87 -17.5t-87 17.5t-72 46.5t-49.5 67.5t-18.5 80.5v70q0 42 18 80t48.5 67t72 46t88.5 17zM327 272q0 14 -6 27.5t-15.5 24t-23 17t-28.5 6.5t-28 -6.5t-23 -17t-15.5 -24
t-5.5 -27.5v-70q0 -30 21 -53.5t51 -23.5t51.5 23.5t21.5 53.5v70zM107 649q0 21 13 35.5t34 14.5h200q18 0 33 -14.5t15 -35.5q0 -22 -15 -35.5t-33 -13.5h-200q-21 0 -34 13.5t-13 35.5z" />
    <glyph glyph-name="one" unicode="1" horiz-adv-x="308" 
d="M101 557l-29 -18q-12 -8 -25 -8q-22 0 -35.5 19.5t-13.5 42.5q0 16 7 30t22 23l132 80q11 7 29 7q24 0 46.5 -13t22.5 -36v-636q0 -24 -24.5 -36t-53.5 -12t-53.5 12t-24.5 36v509z" />
    <glyph glyph-name="one.lnum" horiz-adv-x="417" 
d="M12 68q0 29 14 48.5t34 19.5h78v421l-29 -18q-12 -8 -25 -8q-22 0 -35.5 19.5t-13.5 42.5q0 16 7 30t22 23l132 80q11 7 29 7q24 0 46.5 -13t22.5 -36v-548h75q18 0 33 -19.5t15 -48.5t-15 -48.5t-33 -19.5h-309q-20 0 -34 19.5t-14 48.5z" />
    <glyph glyph-name="oneeighth" unicode="&#x215b;" horiz-adv-x="690" 
d="M84 625l-16 -4q-9 -3 -16 -3q-14 0 -22.5 12.5t-8.5 26.5q0 23 18 33l84 40q7 3 17 3q16 0 30.5 -8.5t14.5 -22.5v-350q0 -15 -15.5 -22.5t-34.5 -7.5q-20 0 -35.5 7.5t-15.5 22.5v273zM517 409q60 0 97.5 -24t37.5 -76q0 -35 -17 -56t-44 -29q35 -11 55 -36.5t20 -68.5
v-7q0 -31 -11.5 -53t-31.5 -35.5t-47.5 -20t-58.5 -6.5q-32 0 -59.5 6.5t-48 20t-32 35.5t-11.5 53v7q0 43 20.5 68.5t55.5 36.5q-27 8 -44 29t-17 56q0 52 38 76t98 24zM566 138q0 45 -49 45q-50 0 -50 -45v-13q0 -26 13 -37.5t36 -11.5q50 0 50 49v13zM517 330
q-39 0 -39 -34q0 -18 10 -25.5t29 -7.5q18 0 28 7.5t10 25.5q0 34 -38 34zM461 772q21 0 40 -14.5t19 -38.5q0 -11 -4 -19l-352 -721q-5 -11 -18 -18t-27 -7q-26 0 -41 17t-15 36q0 9 5 19l351 721q6 13 17 19t25 6z" />
    <glyph glyph-name="onehalf" unicode="&#xbd;" horiz-adv-x="674" 
d="M84 625l-16 -4q-9 -3 -16 -3q-14 0 -22.5 12.5t-8.5 26.5q0 23 18 33l84 40q7 3 17 3q16 0 30.5 -8.5t14.5 -22.5v-350q0 -15 -15.5 -22.5t-34.5 -7.5q-20 0 -35.5 7.5t-15.5 22.5v273zM367 298q0 27 12 47.5t31.5 35t44 21.5t50.5 7t51.5 -7.5t46 -22t33 -36.5t12.5 -52
q0 -29 -13.5 -52.5t-34 -42t-44 -33.5t-44 -27.5t-34 -23.5t-13.5 -21v-4h152q12 0 21 -13t9 -30t-9 -30.5t-21 -13.5h-213q-14 0 -29 8t-15 22v55q0 22 14 40.5t34.5 36t45 33.5t45 31t34.5 30.5t14 31.5q0 10 -9 20.5t-32 10.5q-17 0 -29 -8t-12 -28q0 -14 -14 -25
t-39 -11q-20 0 -32.5 10.5t-12.5 40.5zM461 772q21 0 40 -14.5t19 -38.5q0 -11 -4 -19l-352 -721q-5 -11 -18 -18t-27 -7q-26 0 -41 17t-15 36q0 9 5 19l351 721q6 13 17 19t25 6z" />
    <glyph glyph-name="oneinferior" unicode="&#x2081;" horiz-adv-x="201" 
d="M64 303l-16 -4q-9 -3 -16 -3q-14 0 -22.5 12.5t-8.5 26.5q0 23 18 33l84 40q7 3 17 3q16 0 30.5 -8.5t14.5 -22.5v-350q0 -15 -15.5 -22.5t-34.5 -7.5q-20 0 -35.5 7.5t-15.5 22.5v273z" />
    <glyph glyph-name="onequarter" unicode="&#xbc;" horiz-adv-x="691" 
d="M86 625l-16 -4q-9 -3 -16 -3q-14 0 -22.5 12.5t-8.5 26.5q0 23 18 33l84 40q7 3 17 3q16 0 30.5 -8.5t14.5 -22.5v-350q0 -15 -15.5 -22.5t-34.5 -7.5q-20 0 -35.5 7.5t-15.5 22.5v273zM479 772q21 0 40 -14.5t19 -38.5q0 -11 -4 -19l-352 -721q-5 -11 -18 -18t-27 -7
q-26 0 -41 17t-15 36q0 9 5 19l351 721q6 13 17 19t25 6zM517 84h-139q-14 0 -23.5 8.5t-9.5 25.5q0 9 5 18l137 248q8 14 19 19.5t23 5.5q6 0 15 -2.5t16.5 -7.5t13 -11.5t5.5 -15.5q0 -6 -3 -12l-102 -184h43v21q0 16 15.5 23t34.5 7q20 0 35.5 -7t15.5 -23v-21h25
q15 0 22.5 -14.5t7.5 -31.5t-9.5 -31.5t-20.5 -14.5h-25v-54q0 -15 -15.5 -22.5t-35.5 -7.5q-19 0 -34.5 7.5t-15.5 22.5v54z" />
    <glyph glyph-name="onesuperior" unicode="&#xb9;" horiz-adv-x="201" 
d="M64 625l-16 -4q-9 -3 -16 -3q-14 0 -22.5 12.5t-8.5 26.5q0 23 18 33l84 40q7 3 17 3q16 0 30.5 -8.5t14.5 -22.5v-350q0 -15 -15.5 -22.5t-34.5 -7.5q-20 0 -35.5 7.5t-15.5 22.5v273z" />
    <glyph glyph-name="onethird" unicode="&#x2153;" horiz-adv-x="692" 
d="M84 625l-16 -4q-9 -3 -16 -3q-14 0 -22.5 12.5t-8.5 26.5q0 23 18 33l84 40q7 3 17 3q16 0 30.5 -8.5t14.5 -22.5v-350q0 -15 -15.5 -22.5t-34.5 -7.5q-20 0 -35.5 7.5t-15.5 22.5v273zM461 772q21 0 40 -14.5t19 -38.5q0 -11 -4 -19l-352 -721q-5 -11 -18 -18t-27 -7
q-26 0 -41 17t-15 36q0 9 5 19l351 721q6 13 17 19t25 6zM517 84q29 0 40 9t11 32v11q0 25 -16 31t-38 6q-17 0 -23 12t-6 26t6 26t23 13q7 0 14.5 1t14 5t10.5 12t4 23q0 22 -12 27.5t-29 5.5q-19 0 -29.5 -2.5t-10.5 -18.5t-9 -25.5t-38 -9.5q-35 0 -43.5 8t-8.5 30
q0 18 7 36.5t23.5 33t43 24t65.5 9.5q29 0 54 -5t43.5 -17t29 -31.5t10.5 -48.5t-11.5 -55t-34.5 -36q27 -9 44 -28t17 -52v-11q0 -35 -12 -59.5t-33 -39.5t-49.5 -22t-60.5 -7q-39 0 -67 10.5t-45 26t-25 35t-8 37.5q0 21 10.5 28t37.5 7q31 0 41 -7t10 -25q0 -9 4.5 -14.5
t12 -7.5t16.5 -2.5t17 -0.5z" />
    <glyph glyph-name="ordfeminine" unicode="&#xaa;" horiz-adv-x="338" 
d="M153 768q41 0 70 -11t47 -30t26.5 -43t8.5 -50v-163q0 -13 -13.5 -22t-35.5 -9q-19 0 -31.5 9t-12.5 22v17q-14 -17 -32 -30.5t-41 -19.5q-13 -4 -32 -4q-35 1 -60.5 22.5t-25.5 67.5q0 30 11.5 49.5t32.5 31t50.5 16.5t64.5 5h25v7q0 19 -11.5 36.5t-41.5 17.5
q-21 0 -33 -3.5t-20 -7.5t-13.5 -7.5t-12.5 -3.5q-17 0 -25.5 16.5t-8.5 33.5q0 12 11 21.5t27.5 16.5t37 11t38.5 4zM205 576h-18q-26 0 -45.5 -8t-19.5 -30q0 -17 8 -24t21 -7q18 0 36 18.5t18 44.5v6z" />
    <glyph glyph-name="ordmasculine" unicode="&#xba;" horiz-adv-x="349" 
d="M174 768q31 0 58.5 -11t48.5 -30.5t33.5 -45.5t12.5 -55v-50q0 -28 -12.5 -54t-33.5 -45.5t-48.5 -31.5t-58.5 -12t-58.5 12t-48.5 31.5t-33 45.5t-12 54v50q0 28 12 54t32.5 45.5t48 31t59.5 11.5zM227 626q0 21 -15.5 37.5t-37.5 16.5t-37 -16.5t-15 -37.5v-50
q0 -22 15 -38.5t37 -16.5t37.5 16.5t15.5 38.5v50z" />
    <glyph glyph-name="oslash" unicode="&#xf8;" horiz-adv-x="509" 
d="M254 482q32 0 63 -8.5t58 -24.5l36 48q9 13 22 13q14 0 23.5 -9.5t9.5 -22.5q0 -10 -8 -21l-35 -46q27 -28 43 -63.5t16 -75.5v-70q0 -42 -18.5 -80t-50 -67.5t-72.5 -47t-87 -17.5q-35 0 -66.5 10t-59.5 27l-39 -51q-6 -8 -17 -8t-21 9t-10 21q0 9 7 18l36 48
q-26 29 -41.5 64.5t-15.5 73.5v70q0 42 18 80t48.5 67t72 46t88.5 17zM327 272q0 3 -0.5 6t-0.5 6l-112 -146q18 -13 40 -13q30 0 51.5 23.5t21.5 53.5v70zM290 336q-17 11 -36 11q-15 0 -28 -6.5t-23 -17t-15.5 -24t-5.5 -27.5v-78z" />
    <glyph glyph-name="oslashacute" unicode="&#x1ff;" horiz-adv-x="509" 
d="M254 482q32 0 63 -8.5t58 -24.5l36 48q9 13 22 13q14 0 23.5 -9.5t9.5 -22.5q0 -10 -8 -21l-35 -46q27 -28 43 -63.5t16 -75.5v-70q0 -42 -18.5 -80t-50 -67.5t-72.5 -47t-87 -17.5q-35 0 -66.5 10t-59.5 27l-39 -51q-6 -8 -17 -8t-21 9t-10 21q0 9 7 18l36 48
q-26 29 -41.5 64.5t-15.5 73.5v70q0 42 18 80t48.5 67t72 46t88.5 17zM252 563q-10 -4 -15 -4q-20 0 -33 19t-13 39q0 25 20 35l140 65q7 3 14 3q10 0 18.5 -5.5t15 -14t10 -18.5t3.5 -20q0 -11 -4.5 -20t-15.5 -14zM327 272q0 3 -0.5 6t-0.5 6l-112 -146q18 -13 40 -13
q30 0 51.5 23.5t21.5 53.5v70zM290 336q-17 11 -36 11q-15 0 -28 -6.5t-23 -17t-15.5 -24t-5.5 -27.5v-78z" />
    <glyph glyph-name="otilde" unicode="&#xf5;" horiz-adv-x="509" 
d="M254 482q46 0 87 -16.5t72.5 -45t50 -67t18.5 -81.5v-70q0 -42 -18.5 -80t-50 -67.5t-72.5 -47t-87 -17.5t-87 17.5t-72 46.5t-49.5 67.5t-18.5 80.5v70q0 42 18 80t48.5 67t72 46t88.5 17zM327 272q0 14 -6 27.5t-15.5 24t-23 17t-28.5 6.5t-28 -6.5t-23 -17t-15.5 -24
t-5.5 -27.5v-70q0 -30 21 -53.5t51 -23.5t51.5 23.5t21.5 53.5v70zM202 606q-16 0 -28 -3.5t-22 -7t-18.5 -7t-17.5 -3.5q-12 0 -19 6t-11.5 14.5t-6 16.5t-1.5 12q0 27 10.5 41.5t25 21.5t28.5 8.5t21 1.5q23 0 41 -4t34.5 -9.5t33 -9.5t37.5 -4q16 0 28 3.5t22 7t18.5 7
t17.5 3.5q12 0 19 -6.5t11.5 -14.5t6 -16t1.5 -12q0 -27 -10.5 -41.5t-25 -21.5t-28.5 -8.5t-21 -1.5q-27 0 -46 4t-35.5 9.5t-31.5 9.5t-33 4z" />
    <glyph glyph-name="p" unicode="p" horiz-adv-x="533" 
d="M120 476q31 0 51 -13t20 -34v-23q17 29 52.5 52.5t82.5 23.5q38 0 70.5 -16.5t56.5 -45t38 -67t14 -81.5v-70q0 -42 -14 -80t-38 -67.5t-55.5 -47t-66.5 -17.5q-22 0 -42.5 6.5t-37.5 18t-30 26t-20 29.5v-239q0 -18 -23 -33t-56 -15t-54.5 15t-21.5 33v598q0 21 21.5 34
t52.5 13zM350 272q0 29 -22 52t-54 23q-27 0 -50 -20t-23 -55v-83q0 -6 5.5 -17t15.5 -21.5t23.5 -18t30.5 -7.5q15 0 28 6.5t23.5 17.5t16.5 24.5t6 28.5v70z" />
    <glyph glyph-name="paragraph" unicode="&#xb6;" horiz-adv-x="572" 
d="M465 731q18 0 33 -12t15 -36v-636q0 -25 -15 -36t-33 -11t-33 11t-15 36v618h-85v-617q0 -24 -15 -36t-33 -12t-33 12t-15 36v258h-18q-41 0 -77 11t-62.5 36t-41.5 64.5t-15 95.5v12q0 56 15 95.5t41.5 64t62.5 35.5t77 11h247z" />
    <glyph glyph-name="parenleft" unicode="(" horiz-adv-x="358" 
d="M263 -20q-37 0 -76 10.5t-71 34t-52.5 60t-20.5 88.5v388q0 48 21 86.5t53.5 65.5t72 41t77.5 14q46 0 61.5 -19.5t15.5 -47.5q0 -31 -13 -49.5t-34 -18.5q-24 0 -42 -6.5t-30.5 -16.5t-19 -23t-6.5 -26v-388q0 -18 9.5 -29.5t23.5 -17.5t31.5 -8.5t33.5 -2.5
q29 0 38 -21.5t9 -47.5q0 -15 -3 -27t-11.5 -20.5t-24.5 -13.5t-42 -5z" />
    <glyph glyph-name="parenright" unicode=")" horiz-adv-x="358" 
d="M95 -20q-26 0 -42 5t-24.5 13.5t-11.5 20.5t-3 27q0 26 9 47.5t38 21.5q16 0 33.5 2.5t31.5 8.5t23.5 17.5t9.5 29.5v388q0 13 -6.5 26t-19 23t-30.5 16.5t-42 6.5q-21 0 -34 18.5t-13 49.5q0 14 3.5 26t12 21t23.5 14.5t38 5.5q38 0 77.5 -14t72 -41t53.5 -65.5
t21 -86.5v-388q0 -52 -20.5 -88.5t-52.5 -60t-71 -34t-76 -10.5z" />
    <glyph glyph-name="partialdiff" unicode="&#x2202;" horiz-adv-x="524" 
d="M332 406q-4 59 -13.5 99.5t-25.5 65t-39 35t-54 10.5q-19 0 -33 -3.5t-25.5 -8t-21.5 -8t-19 -3.5q-14 0 -24 10t-17.5 23.5t-11 27.5t-3.5 21q0 12 13.5 24.5t36.5 23.5t53 18t64 7q47 0 96 -17.5t88.5 -62.5t65 -121.5t25.5 -193.5v-143q0 -42 -18.5 -81.5t-50 -70.5
t-73 -49.5t-88.5 -18.5q-45 0 -86.5 17.5t-73 47t-50.5 67.5t-19 80v70q0 43 14 81.5t38 67t56 45t69 16.5q46 0 78.5 -23.5t48.5 -52.5zM183 202q0 -30 22 -53.5t53 -23.5t52.5 23.5t21.5 53.5v70q0 18 -7 31.5t-17.5 23.5t-24.5 15t-27 5q-31 0 -52 -23t-21 -52v-70z" />
    <glyph glyph-name="percent" unicode="%" horiz-adv-x="807" 
d="M174 319q-32 0 -59.5 7t-47.5 23t-31.5 42t-11.5 63v142q0 37 11.5 63t31.5 42t47.5 23t59.5 7q31 0 58.5 -7t48 -23t32 -42t11.5 -63v-142q0 -37 -11.5 -63t-32 -42t-48 -23t-58.5 -7zM224 596q0 25 -13.5 36.5t-36.5 11.5q-49 0 -49 -48v-142q0 -48 49 -48
q23 0 36.5 11.5t13.5 36.5v142zM633 -3q-32 0 -59.5 7t-47.5 23t-31.5 42t-11.5 63v142q0 37 11.5 63t31.5 42t47.5 23t59.5 7q31 0 58.5 -7t48 -23t32 -42t11.5 -63v-142q0 -37 -11.5 -63t-32 -42t-48 -23t-58.5 -7zM683 274q0 25 -13.5 36.5t-36.5 11.5q-49 0 -49 -48
v-142q0 -48 49 -48q23 0 36.5 11.5t13.5 36.5v142zM575 772q21 0 40 -14.5t19 -38.5q0 -11 -4 -19l-352 -721q-5 -11 -18 -18t-27 -7q-26 0 -41 17t-15 36q0 9 5 19l351 721q6 13 17 19t25 6z" />
    <glyph glyph-name="period" unicode="." horiz-adv-x="199" 
d="M100 148q31 0 53.5 -22.5t22.5 -54.5q0 -31 -22.5 -54t-53.5 -23q-33 0 -55 23t-22 54q0 32 22 54.5t55 22.5z" />
    <glyph glyph-name="periodcentered" unicode="&#xb7;" horiz-adv-x="213" 
d="M107 371q34 0 57.5 -21t23.5 -50t-23.5 -50.5t-57.5 -21.5q-35 0 -58.5 21.5t-23.5 50.5t23.5 50t58.5 21z" />
    <glyph glyph-name="perthousand" unicode="&#x2030;" horiz-adv-x="1156" 
d="M174 319q-32 0 -59.5 7t-47.5 23t-31.5 42t-11.5 63v142q0 37 11.5 63t31.5 42t47.5 23t59.5 7q31 0 58.5 -7t48 -23t32 -42t11.5 -63v-142q0 -37 -11.5 -63t-32 -42t-48 -23t-58.5 -7zM224 596q0 25 -13.5 36.5t-36.5 11.5q-49 0 -49 -48v-142q0 -48 49 -48
q23 0 36.5 11.5t13.5 36.5v142zM633 -3q-32 0 -59.5 7t-47.5 23t-31.5 42t-11.5 63v142q0 37 11.5 63t31.5 42t47.5 23t59.5 7q31 0 58.5 -7t48 -23t32 -42t11.5 -63v-142q0 -37 -11.5 -63t-32 -42t-48 -23t-58.5 -7zM683 274q0 25 -13.5 36.5t-36.5 11.5q-49 0 -49 -48
v-142q0 -48 49 -48q23 0 36.5 11.5t13.5 36.5v142zM575 772q21 0 40 -14.5t19 -38.5q0 -11 -4 -19l-352 -721q-5 -11 -18 -18t-27 -7q-26 0 -41 17t-15 36q0 9 5 19l351 721q6 13 17 19t25 6zM982 -3q-32 0 -59.5 7t-47.5 23t-31.5 42t-11.5 63v142q0 37 11.5 63t31.5 42
t47.5 23t59.5 7q31 0 58.5 -7t48 -23t32 -42t11.5 -63v-142q0 -37 -11.5 -63t-32 -42t-48 -23t-58.5 -7zM1032 274q0 25 -13.5 36.5t-36.5 11.5q-49 0 -49 -48v-142q0 -48 49 -48q23 0 36.5 11.5t13.5 36.5v142z" />
    <glyph glyph-name="pi" unicode="&#x3c0;" horiz-adv-x="561" 
d="M448 476q26 0 47 -12t21 -36v-381q0 -25 -24.5 -36t-53.5 -11t-53.5 11t-24.5 36v293h-159v-293q0 -25 -24.5 -36t-53.5 -11t-53.5 11t-24.5 36v381q0 24 21 36t47 12h335z" />
    <glyph glyph-name="plus" unicode="+" horiz-adv-x="455" 
d="M228 33q-27 0 -45.5 13t-18.5 34v97h-97q-21 0 -34 17t-13 46q0 27 13 45.5t34 18.5h97v96q0 18 18.5 33t45.5 15q29 0 46 -15t17 -33v-96h96q18 0 33 -18.5t15 -45.5q0 -29 -15 -46t-33 -17h-96v-97q0 -21 -17 -34t-46 -13z" />
    <glyph glyph-name="plusminus" unicode="&#xb1;" horiz-adv-x="473" 
d="M237 178q-27 0 -45.5 13t-18.5 34v87h-97q-21 0 -34 17t-13 46q0 27 13 45.5t34 18.5h97v86q0 18 18.5 33t45.5 15q29 0 46 -15t17 -33v-86h96q18 0 33 -18.5t15 -45.5q0 -29 -15 -46t-33 -17h-96v-87q0 -21 -17 -34t-46 -13zM29 85q0 27 13 45.5t34 18.5h320
q18 0 33 -18.5t15 -45.5q0 -29 -15 -46t-33 -17h-320q-21 0 -34 17t-13 46z" />
    <glyph glyph-name="product" unicode="&#x220f;" horiz-adv-x="599" 
d="M477 731q26 0 47 -12t21 -36v-636q0 -25 -24.5 -36t-53.5 -11t-53.5 11t-24.5 36v548h-179v-548q0 -25 -24.5 -36t-53.5 -11t-53.5 11t-24.5 36v636q0 24 21 36t47 12h355z" />
    <glyph glyph-name="q" unicode="q" horiz-adv-x="533" 
d="M413 476q31 0 52.5 -13t21.5 -34v-598q0 -18 -21.5 -33t-54.5 -15t-56 15t-23 33v239q-7 -15 -20 -29.5t-30 -26t-37.5 -18t-42.5 -6.5q-35 0 -66.5 17.5t-55.5 47t-38 67.5t-14 80v70q0 43 14 81.5t38 67t56.5 45t70.5 16.5q47 0 82.5 -23.5t52.5 -52.5v23q0 21 20 34
t51 13zM183 202q0 -15 6 -28.5t16.5 -24.5t23.5 -17.5t28 -6.5q16 0 30 7.5t24 18t15.5 21.5t5.5 17v83q0 35 -23 55t-50 20q-32 0 -54 -23t-22 -52v-70z" />
    <glyph glyph-name="q.ss02" horiz-adv-x="527" 
d="M201 -10q-35 0 -66.5 17.5t-55.5 47t-38 67.5t-14 80v70q0 42 18 80t49 67t73 46t89 17q46 0 88 -16.5t73.5 -45t50 -67t18.5 -81.5v-441q0 -18 -21.5 -33t-54.5 -15t-56 15t-23 33v239q-7 -15 -20 -29.5t-30 -26t-37.5 -18t-42.5 -6.5zM256 125q16 0 30 7.5t24 18
t15.5 21.5t5.5 17v83q0 29 -22 52t-53 23t-52.5 -23t-21.5 -52v-70q0 -15 6 -28.5t16.5 -24.5t23.5 -17.5t28 -6.5z" />
    <glyph glyph-name="question" unicode="?" horiz-adv-x="453" 
d="M430 566q0 -35 -13.5 -65t-32 -53.5t-37.5 -40t-29 -24.5q-21 -16 -32 -30.5t-16.5 -29t-6.5 -30.5t-1 -35q0 -14 -11 -27.5t-48 -13.5q-31 0 -43 14t-12 53q0 32 6.5 56.5t16 42.5t21.5 31t23 22q12 10 27.5 21.5t29 25t23 30t9.5 36.5q0 35 -26 51.5t-64 16.5
t-56.5 -12t-29 -26.5t-19.5 -26.5t-29 -12q-10 0 -20.5 3.5t-19.5 10.5t-14.5 17.5t-5.5 25.5q0 20 12 43.5t36 43.5t61 33.5t88 13.5q48 0 87.5 -12.5t67 -34.5t43 -52.5t15.5 -65.5zM204 148q32 0 54.5 -22.5t22.5 -54.5q0 -15 -6 -29t-16.5 -24.5t-24.5 -17t-30 -6.5
q-32 0 -54 23t-22 54q0 32 22 54.5t54 22.5z" />
    <glyph glyph-name="questiondown" unicode="&#xbf;" horiz-adv-x="452" 
d="M22 159q0 35 13.5 65t32 53.5t37.5 40t29 24.5q21 16 32 30.5t16.5 29t6.5 30t1 35.5q0 14 11 27.5t48 13.5q31 0 43 -14t12 -53q0 -32 -6.5 -56.5t-16 -42.5t-21.5 -31t-23 -22q-12 -11 -27.5 -22t-29 -24.5t-23 -30t-9.5 -36.5q0 -35 26 -51.5t64 -16.5t56 12
t28.5 26.5t20 26.5t29.5 12q10 0 20.5 -3.5t19.5 -10.5t14.5 -17.5t5.5 -25.5q0 -20 -12 -43.5t-36 -43.5t-61 -33.5t-88 -13.5q-48 0 -87.5 12.5t-67 34.5t-43 52.5t-15.5 65.5zM248 577q-32 0 -54.5 22.5t-22.5 54.5q0 15 6 29t16.5 24.5t24.5 17t30 6.5q32 0 54 -23
t22 -54q0 -32 -22 -54.5t-54 -22.5z" />
    <glyph glyph-name="quotedbl" unicode="&#x22;" horiz-adv-x="315" 
d="M77 768q21 0 38 -10t17 -27l-10 -134q0 -14 -10.5 -26t-34.5 -12t-34 12t-10 26l-10 134q0 17 16.5 27t37.5 10zM237 768q21 0 38 -10t17 -27l-10 -134q0 -14 -10.5 -26t-34.5 -12t-34 12t-10 26l-10 134q0 17 16.5 27t37.5 10z" />
    <glyph glyph-name="quotedblbase" unicode="&#x201e;" horiz-adv-x="399" 
d="M299 148q32 0 54.5 -22.5t22.5 -53.5q0 -5 -1.5 -11t-7.5 -22t-18.5 -46t-34.5 -81q-5 -11 -13.5 -14.5t-16.5 -3.5q-16 0 -33 10t-17 29q0 8 4 16l25 54q-18 11 -29 28.5t-11 39.5q0 32 22 54.5t54 22.5zM99 148q32 0 54.5 -22.5t22.5 -53.5q0 -5 -1.5 -11t-7.5 -22
t-18.5 -46t-34.5 -81q-5 -11 -13.5 -14.5t-16.5 -3.5q-16 0 -33 10t-17 29q0 8 4 16l25 54q-18 11 -29 28.5t-11 39.5q0 32 22 54.5t54 22.5z" />
    <glyph glyph-name="quotedblleft" unicode="&#x201c;" horiz-adv-x="391" 
d="M93 487q-32 0 -54.5 22.5t-22.5 53.5q0 4 1.5 10.5t7.5 22.5t18.5 46t34.5 81q5 11 13.5 14.5t16.5 3.5q16 0 33 -10t17 -29q0 -8 -4 -16l-25 -54q18 -11 29 -28.5t11 -39.5q0 -32 -22 -54.5t-54 -22.5zM293 487q-32 0 -54.5 22.5t-22.5 53.5q0 4 1.5 10.5t7.5 22.5
t18.5 46t34.5 81q5 11 13.5 14.5t16.5 3.5q16 0 33 -10t17 -29q0 -8 -4 -16l-25 -54q18 -11 29 -28.5t11 -39.5q0 -32 -22 -54.5t-54 -22.5z" />
    <glyph glyph-name="quotedblright" unicode="&#x201d;" horiz-adv-x="390" 
d="M299 741q32 0 54.5 -22.5t22.5 -53.5q0 -5 -1.5 -11t-7.5 -22t-18.5 -46t-34.5 -81q-5 -11 -13.5 -14.5t-16.5 -3.5q-16 0 -33 10t-17 29q0 8 4 16l25 54q-18 11 -29 28.5t-11 39.5q0 32 22 54.5t54 22.5zM99 741q32 0 54.5 -22.5t22.5 -53.5q0 -5 -1.5 -11t-7.5 -22
t-18.5 -46t-34.5 -81q-5 -11 -13.5 -14.5t-16.5 -3.5q-16 0 -33 10t-17 29q0 8 4 16l25 54q-18 11 -29 28.5t-11 39.5q0 32 22 54.5t54 22.5z" />
    <glyph glyph-name="quoteleft" unicode="&#x2018;" horiz-adv-x="191" 
d="M93 487q-32 0 -54.5 22.5t-22.5 53.5q0 4 1.5 10.5t7.5 22.5t18.5 46t34.5 81q5 11 13.5 14.5t16.5 3.5q16 0 33 -10t17 -29q0 -8 -4 -16l-25 -54q18 -11 29 -28.5t11 -39.5q0 -32 -22 -54.5t-54 -22.5z" />
    <glyph glyph-name="quoteright" unicode="&#x2019;" horiz-adv-x="190" 
d="M99 741q32 0 54.5 -22.5t22.5 -53.5q0 -5 -1.5 -11t-7.5 -22t-18.5 -46t-34.5 -81q-5 -11 -13.5 -14.5t-16.5 -3.5q-16 0 -33 10t-17 29q0 8 4 16l25 54q-18 11 -29 28.5t-11 39.5q0 32 22 54.5t54 22.5z" />
    <glyph glyph-name="quotesinglbase" unicode="&#x201a;" horiz-adv-x="199" 
d="M99 148q32 0 54.5 -22.5t22.5 -53.5q0 -5 -1.5 -11t-7.5 -22t-18.5 -46t-34.5 -81q-5 -11 -13.5 -14.5t-16.5 -3.5q-16 0 -33 10t-17 29q0 8 4 16l25 54q-18 11 -29 28.5t-11 39.5q0 32 22 54.5t54 22.5z" />
    <glyph glyph-name="quotesingle" unicode="'" horiz-adv-x="155" 
d="M77 768q21 0 38 -10t17 -27l-10 -134q0 -14 -10.5 -26t-34.5 -12t-34 12t-10 26l-10 134q0 17 16.5 27t37.5 10z" />
    <glyph glyph-name="r" unicode="r" horiz-adv-x="394" 
d="M309 347q-21 0 -40.5 -10.5t-34.5 -30t-24.5 -47t-9.5 -61.5v-150q0 -18 -23 -33t-56 -15t-54.5 15t-21.5 33v381q0 21 21.5 34t54.5 13q29 0 49 -13t20 -34v-37q7 16 19.5 32.5t28.5 29t34 20.5t37 8h29q22 0 38.5 -20t16.5 -47q0 -28 -16.5 -48t-38.5 -20h-29z" />
    <glyph glyph-name="r.ss04" horiz-adv-x="384" 
d="M299 347q-21 0 -40.5 -10.5t-34.5 -30t-24.5 -47t-9.5 -61.5v-150q0 -18 -23 -33t-56 -15t-54.5 15t-21.5 33v152q0 51 14.5 101t43.5 90.5t72.5 65.5t102.5 25h56q29 0 44 -20t15 -47q0 -28 -16.5 -48t-38.5 -20h-29z" />
    <glyph glyph-name="racute" unicode="&#x155;" horiz-adv-x="394" 
d="M309 347q-21 0 -40.5 -10.5t-34.5 -30t-24.5 -47t-9.5 -61.5v-150q0 -18 -23 -33t-56 -15t-54.5 15t-21.5 33v381q0 21 21.5 34t54.5 13q29 0 49 -13t20 -34v-37q7 16 19.5 32.5t28.5 29t34 20.5t37 8h29q22 0 38.5 -20t16.5 -47q0 -28 -16.5 -48t-38.5 -20h-29zM177 563
q-10 -4 -15 -4q-20 0 -33 19t-13 39q0 25 20 35l140 65q7 3 14 3q10 0 18.5 -5.5t15 -14t10 -18.5t3.5 -20q0 -11 -4.5 -20t-15.5 -14z" />
    <glyph glyph-name="radical" unicode="&#x221a;" horiz-adv-x="712" 
d="M-4 380q0 27 13 45.5t34 18.5h120q20 0 31 -17.5t16 -37.5l64 -249l157 593q4 14 16 24.5t27 10.5h200q18 0 33 -18.5t15 -45.5q0 -29 -15 -46t-33 -17h-108l-190 -624q-8 -26 -37.5 -39t-64.5 -13t-64 13t-38 39l-101 300h-28q-21 0 -34 17t-13 46z" />
    <glyph glyph-name="rcaron" unicode="&#x159;" horiz-adv-x="394" 
d="M309 347q-21 0 -40.5 -10.5t-34.5 -30t-24.5 -47t-9.5 -61.5v-150q0 -18 -23 -33t-56 -15t-54.5 15t-21.5 33v381q0 21 21.5 34t54.5 13q29 0 49 -13t20 -34v-37q7 16 19.5 32.5t28.5 29t34 20.5t37 8h29q22 0 38.5 -20t16.5 -47q0 -28 -16.5 -48t-38.5 -20h-29zM207 673
l104 56q6 3 11 3q14 0 22.5 -14.5t8.5 -31.5q0 -13 -5.5 -24.5t-19.5 -19.5l-104 -56q-10 -5 -17 -5t-17 5l-104 56q-14 8 -19.5 19.5t-5.5 24.5q0 17 8.5 31.5t22.5 14.5q5 0 11 -3z" />
    <glyph glyph-name="rcommaaccent" unicode="&#x157;" horiz-adv-x="394" 
d="M309 347q-21 0 -40.5 -10.5t-34.5 -30t-24.5 -47t-9.5 -61.5v-150q0 -18 -23 -33t-56 -15t-54.5 15t-21.5 33v381q0 21 21.5 34t54.5 13q29 0 49 -13t20 -34v-37q7 16 19.5 32.5t28.5 29t34 20.5t37 8h29q22 0 38.5 -20t16.5 -47q0 -28 -16.5 -48t-38.5 -20h-29zM72 -205
q-10 -4 -15 -4q-20 0 -33 19t-13 39q0 25 20 35l140 65q7 3 14 3q10 0 18.5 -5.5t15 -14t10 -18.5t3.5 -20q0 -11 -4.5 -20t-15.5 -14z" />
    <glyph glyph-name="registered" unicode="&#xae;" horiz-adv-x="680" 
d="M33 358q0 84 29 145.5t74 102t100 60t107 19.5q53 0 107 -20t98 -60t71.5 -101t27.5 -142q0 -84 -29 -145.5t-74 -102t-100 -60t-107 -19.5q-53 0 -107 20t-98 60t-71.5 101t-27.5 142zM228 522q0 10 7 17.5t18 7.5h101q24 0 46.5 -5.5t39 -18t26.5 -33.5t10 -51
q0 -41 -18 -66t-45 -36l59 -108q1 -2 1 -7q0 -16 -13.5 -28.5t-27.5 -12.5q-15 0 -23 17l-63 126h-42v-116q0 -12 -10.5 -19t-25.5 -7t-27.5 6.5t-12.5 19.5v314zM304 480v-92h50q47 0 47 43q0 28 -12 38.5t-35 10.5h-50zM577 362q0 55 -16.5 101.5t-47 80t-73.5 52.5
t-97 19t-98 -18.5t-75.5 -52.5t-49 -81.5t-17.5 -104.5q0 -55 16.5 -101.5t46.5 -80t73.5 -52.5t97.5 -19t98 18.5t75.5 52.5t49 81.5t17.5 104.5z" />
    <glyph glyph-name="ring" unicode="&#x2da;" horiz-adv-x="200" 
d="M99 769q20 0 38.5 -8.5t32.5 -22.5t22 -32t8 -38t-8.5 -39t-22.5 -33t-32 -22.5t-38 -8.5t-38 8.5t-31.5 22.5t-21.5 33t-8 39q0 19 7.5 37.5t21 32.5t31.5 22.5t39 8.5zM139 667q0 15 -11 27t-28 12t-29 -12.5t-12 -26.5q0 -15 12 -28.5t29 -13.5t28 13t11 29z" />
    <glyph glyph-name="s" unicode="s" horiz-adv-x="429" 
d="M207 105q20 0 32 3t19 8t9 11t2 11q0 17 -17.5 26t-43.5 16.5t-56 15.5t-56 23.5t-43.5 41t-17.5 67.5q0 28 9.5 55.5t31.5 49.5t58 35.5t89 13.5q33 0 63.5 -5.5t54 -15t38 -22.5t14.5 -29q0 -8 -3.5 -20t-11 -24t-18 -20.5t-23.5 -8.5q-10 0 -21 4.5t-24.5 10.5
t-30 10.5t-36.5 4.5q-30 0 -43.5 -10.5t-13.5 -21.5q0 -14 17.5 -21.5t43.5 -14t57 -15t57 -25t43.5 -44t17.5 -71.5q0 -71 -49.5 -112.5t-143.5 -41.5q-39 0 -74 7.5t-60.5 20t-40.5 29.5t-15 35q0 9 3.5 20.5t10.5 22t16 18t21 7.5t23.5 -7t26 -15.5t35 -15.5t50.5 -7z
" />
    <glyph glyph-name="sacute" unicode="&#x15b;" horiz-adv-x="429" 
d="M207 105q20 0 32 3t19 8t9 11t2 11q0 17 -17.5 26t-43.5 16.5t-56 15.5t-56 23.5t-43.5 41t-17.5 67.5q0 28 9.5 55.5t31.5 49.5t58 35.5t89 13.5q33 0 63.5 -5.5t54 -15t38 -22.5t14.5 -29q0 -8 -3.5 -20t-11 -24t-18 -20.5t-23.5 -8.5q-10 0 -21 4.5t-24.5 10.5
t-30 10.5t-36.5 4.5q-30 0 -43.5 -10.5t-13.5 -21.5q0 -14 17.5 -21.5t43.5 -14t57 -15t57 -25t43.5 -44t17.5 -71.5q0 -71 -49.5 -112.5t-143.5 -41.5q-39 0 -74 7.5t-60.5 20t-40.5 29.5t-15 35q0 9 3.5 20.5t10.5 22t16 18t21 7.5t23.5 -7t26 -15.5t35 -15.5t50.5 -7z
M178 563q-10 -4 -15 -4q-20 0 -33 19t-13 39q0 25 20 35l140 65q7 3 14 3q10 0 18.5 -5.5t15 -14t10 -18.5t3.5 -20q0 -11 -4.5 -20t-15.5 -14z" />
    <glyph glyph-name="scaron" unicode="&#x161;" horiz-adv-x="429" 
d="M207 105q20 0 32 3t19 8t9 11t2 11q0 17 -17.5 26t-43.5 16.5t-56 15.5t-56 23.5t-43.5 41t-17.5 67.5q0 28 9.5 55.5t31.5 49.5t58 35.5t89 13.5q33 0 63.5 -5.5t54 -15t38 -22.5t14.5 -29q0 -8 -3.5 -20t-11 -24t-18 -20.5t-23.5 -8.5q-10 0 -21 4.5t-24.5 10.5
t-30 10.5t-36.5 4.5q-30 0 -43.5 -10.5t-13.5 -21.5q0 -14 17.5 -21.5t43.5 -14t57 -15t57 -25t43.5 -44t17.5 -71.5q0 -71 -49.5 -112.5t-143.5 -41.5q-39 0 -74 7.5t-60.5 20t-40.5 29.5t-15 35q0 9 3.5 20.5t10.5 22t16 18t21 7.5t23.5 -7t26 -15.5t35 -15.5t50.5 -7z
M217 673l104 56q6 3 11 3q14 0 22.5 -14.5t8.5 -31.5q0 -13 -5.5 -24.5t-19.5 -19.5l-104 -56q-10 -5 -17 -5t-17 5l-104 56q-14 8 -19.5 19.5t-5.5 24.5q0 17 8.5 31.5t22.5 14.5q5 0 11 -3z" />
    <glyph glyph-name="scedilla" unicode="&#x15f;" horiz-adv-x="429" 
d="M207 105q20 0 32 3t19 8t9 11t2 11q0 17 -17.5 26t-43.5 16.5t-56 15.5t-56 23.5t-43.5 41t-17.5 67.5q0 28 9.5 55.5t31.5 49.5t58 35.5t89 13.5q33 0 63.5 -5.5t54 -15t38 -22.5t14.5 -29q0 -8 -3.5 -20t-11 -24t-18 -20.5t-23.5 -8.5q-10 0 -21 4.5t-24.5 10.5
t-30 10.5t-36.5 4.5q-30 0 -43.5 -10.5t-13.5 -21.5q0 -14 17.5 -21.5t43.5 -14t57 -15t57 -25t43.5 -44t17.5 -71.5q0 -63 -39 -103t-114 -48l-13 -40q51 -2 75.5 -24.5t24.5 -54.5q0 -13 -5 -29t-17.5 -30.5t-34 -24t-54.5 -9.5q-14 0 -29.5 2t-28.5 5.5t-21.5 9.5
t-8.5 14q0 3 1.5 10t4.5 14t8 12.5t12 5.5q9 0 21.5 -7t36.5 -7q20 0 33 7.5t13 23.5q0 13 -10 22.5t-33 11.5l-62 6l23 80q-35 2 -65.5 10t-53 20.5t-35 28t-12.5 32.5q0 9 3.5 20.5t10.5 22t16 18t21 7.5t23.5 -7t26 -15.5t35 -15.5t50.5 -7z" />
    <glyph glyph-name="schwa" unicode="&#x259;" 
d="M239 -10q-43 0 -82 14t-68.5 39t-47 60t-17.5 77q0 33 8.5 52t22.5 28t31.5 11t34.5 2h193v6q0 37 -28 59.5t-74 22.5q-23 0 -41 -6t-32.5 -12.5t-27 -12.5t-24.5 -6q-14 0 -24.5 7t-17.5 17.5t-11 22.5t-4 21q0 14 13 30t37.5 29.5t59 22t76.5 8.5q55 0 101.5 -15.5
t80.5 -43t52.5 -66.5t18.5 -87v-73q0 -42 -18 -79.5t-49 -66t-73 -45t-90 -16.5zM190 186q-11 0 -16 -5t-5 -19q0 -30 22.5 -45t50.5 -15q27 0 49.5 15t22.5 45v24h-124z" />
    <glyph glyph-name="scircumflex" unicode="&#x15d;" horiz-adv-x="429" 
d="M207 105q20 0 32 3t19 8t9 11t2 11q0 17 -17.5 26t-43.5 16.5t-56 15.5t-56 23.5t-43.5 41t-17.5 67.5q0 28 9.5 55.5t31.5 49.5t58 35.5t89 13.5q33 0 63.5 -5.5t54 -15t38 -22.5t14.5 -29q0 -8 -3.5 -20t-11 -24t-18 -20.5t-23.5 -8.5q-10 0 -21 4.5t-24.5 10.5
t-30 10.5t-36.5 4.5q-30 0 -43.5 -10.5t-13.5 -21.5q0 -14 17.5 -21.5t43.5 -14t57 -15t57 -25t43.5 -44t17.5 -71.5q0 -71 -49.5 -112.5t-143.5 -41.5q-39 0 -74 7.5t-60.5 20t-40.5 29.5t-15 35q0 9 3.5 20.5t10.5 22t16 18t21 7.5t23.5 -7t26 -15.5t35 -15.5t50.5 -7z
M109 572q-6 -3 -11 -3q-14 0 -22.5 14.5t-8.5 31.5q0 13 5.5 24.5t19.5 19.5l104 56q10 5 17 5t17 -5l104 -56q14 -8 19.5 -19.5t5.5 -24.5q0 -17 -8.5 -31.5t-22.5 -14.5q-5 0 -11 3l-104 56z" />
    <glyph glyph-name="scommaaccent" unicode="&#x219;" horiz-adv-x="429" 
d="M207 105q20 0 32 3t19 8t9 11t2 11q0 17 -17.5 26t-43.5 16.5t-56 15.5t-56 23.5t-43.5 41t-17.5 67.5q0 28 9.5 55.5t31.5 49.5t58 35.5t89 13.5q33 0 63.5 -5.5t54 -15t38 -22.5t14.5 -29q0 -8 -3.5 -20t-11 -24t-18 -20.5t-23.5 -8.5q-10 0 -21 4.5t-24.5 10.5
t-30 10.5t-36.5 4.5q-30 0 -43.5 -10.5t-13.5 -21.5q0 -14 17.5 -21.5t43.5 -14t57 -15t57 -25t43.5 -44t17.5 -71.5q0 -71 -49.5 -112.5t-143.5 -41.5q-39 0 -74 7.5t-60.5 20t-40.5 29.5t-15 35q0 9 3.5 20.5t10.5 22t16 18t21 7.5t23.5 -7t26 -15.5t35 -15.5t50.5 -7z
M168 -205q-10 -4 -15 -4q-20 0 -33 19t-13 39q0 25 20 35l140 65q7 3 14 3q10 0 18.5 -5.5t15 -14t10 -18.5t3.5 -20q0 -11 -4.5 -20t-15.5 -14z" />
    <glyph glyph-name="section" unicode="&#xa7;" horiz-adv-x="485" 
d="M38 517q0 65 19.5 106.5t49.5 65.5t66 33t69 9q48 0 83.5 -15.5t59 -39.5t35 -54t11.5 -60q0 -36 -15.5 -47.5t-41.5 -11.5q-38 0 -51.5 14.5t-13.5 32.5q0 10 -2.5 20t-9.5 18t-19 13.5t-31 5.5q-37 0 -52 -17.5t-15 -37.5q0 -26 20 -42t50 -30t65.5 -30t65.5 -41.5
t50 -64.5t20 -99v-100q0 -65 -20.5 -106.5t-52 -65.5t-69.5 -33t-72 -9q-51 0 -88 15.5t-62 39.5t-37 54t-12 59q0 35 17 47.5t48 12.5q38 0 52 -12t14 -29q0 -10 1.5 -20.5t7.5 -19.5t18 -14.5t33 -5.5q37 0 51.5 16t14.5 36q0 26 -19 42t-47.5 30t-62 30t-62 41.5
t-47.5 64.5t-19 99v100zM326 266q0 34 -18.5 54.5t-44 33.5t-53 23t-45.5 25v-18q0 -35 18.5 -55t44 -33t53 -23t45.5 -25v18z" />
    <glyph glyph-name="semicolon" unicode=";" horiz-adv-x="225" 
d="M109 148q32 0 54.5 -22.5t22.5 -53.5q0 -5 -1.5 -11t-7.5 -22t-18.5 -46t-34.5 -81q-5 -11 -13.5 -14.5t-16.5 -3.5q-16 0 -33 10t-17 29q0 8 4 16l25 54q-18 11 -29 28.5t-11 39.5q0 32 22 54.5t54 22.5zM116 422q31 0 53.5 -22.5t22.5 -54.5q0 -31 -22.5 -54t-53.5 -23
q-33 0 -55 23t-22 54q0 32 22 54.5t55 22.5z" />
    <glyph glyph-name="seven" unicode="7" horiz-adv-x="512" 
d="M503 558q0 -20 -10 -46t-22 -49l-234 -448q-11 -21 -44 -21q-18 0 -36 6t-32 16.5t-22.5 25t-8.5 31.5q0 13 7 26l246 426v70h-179v-67q0 -20 -24 -34t-55 -14q-32 0 -54.5 14t-22.5 34v155q0 18 21 33t47 15h355q11 0 23 -4t22 -11t16.5 -15.5t6.5 -17.5v-125z" />
    <glyph glyph-name="seveneighths" unicode="&#x215e;" horiz-adv-x="811" 
d="M321 625q0 -13 -6 -30.5t-14 -31.5l-136 -232q-7 -13 -28 -13q-24 0 -44 14.5t-20 36.5q0 9 4 16l144 218v41h-99v-30q0 -13 -15.5 -21.5t-35.5 -8.5t-35 8.5t-15 21.5v87q0 11 13.5 20.5t30.5 9.5h213q14 0 28.5 -9.5t14.5 -20.5v-76zM638 409q60 0 97.5 -24t37.5 -76
q0 -35 -17 -56t-44 -29q35 -11 55 -36.5t20 -68.5v-7q0 -31 -11.5 -53t-31.5 -35.5t-47.5 -20t-58.5 -6.5q-32 0 -59.5 6.5t-48 20t-32 35.5t-11.5 53v7q0 43 20.5 68.5t55.5 36.5q-27 8 -44 29t-17 56q0 52 38 76t98 24zM687 138q0 45 -49 45q-50 0 -50 -45v-13
q0 -26 13 -37.5t36 -11.5q50 0 50 49v13zM638 330q-39 0 -39 -34q0 -18 10 -25.5t29 -7.5q18 0 28 7.5t10 25.5q0 34 -38 34zM532 772q21 0 40 -14.5t19 -38.5q0 -11 -4 -19l-352 -721q-5 -11 -18 -18t-27 -7q-26 0 -41 17t-15 36q0 9 5 19l351 721q6 13 17 19t25 6z" />
    <glyph glyph-name="seveninferior" unicode="&#x2087;" horiz-adv-x="319" 
d="M310 303q0 -13 -6 -30.5t-14 -31.5l-136 -232q-7 -13 -28 -13q-24 0 -44 14.5t-20 36.5q0 9 4 16l144 218v41h-99v-30q0 -13 -15.5 -21.5t-35.5 -8.5t-35 8.5t-15 21.5v87q0 11 13.5 20.5t30.5 9.5h213q14 0 28.5 -9.5t14.5 -20.5v-76z" />
    <glyph glyph-name="sevensuperior" unicode="&#x2077;" horiz-adv-x="319" 
d="M310 625q0 -13 -6 -30.5t-14 -31.5l-136 -232q-7 -13 -28 -13q-24 0 -44 14.5t-20 36.5q0 9 4 16l144 218v41h-99v-30q0 -13 -15.5 -21.5t-35.5 -8.5t-35 8.5t-15 21.5v87q0 11 13.5 20.5t30.5 9.5h213q14 0 28.5 -9.5t14.5 -20.5v-76z" />
    <glyph glyph-name="six" unicode="6" horiz-adv-x="562" 
d="M320 449q43 0 81 -10.5t66.5 -34.5t45.5 -64.5t17 -100.5v-9q0 -65 -19 -109.5t-52 -73t-77.5 -41t-96.5 -12.5t-97 12.5t-78 41t-52 73t-19 109.5v265q0 64 19.5 109t54 73.5t81 41t100.5 12.5q63 0 108 -17.5t73.5 -45t41.5 -61t13 -64.5q0 -36 -17.5 -49.5
t-55.5 -13.5q-16 0 -30.5 2.5t-26 9t-18 17.5t-6.5 28q0 29 -26 43.5t-61 14.5q-45 0 -69.5 -24t-24.5 -76v-90q24 26 56.5 35t68.5 9zM195 219q0 -52 24 -75.5t66 -23.5t65.5 23.5t23.5 75.5v9q0 55 -23.5 78t-66.5 23q-41 0 -65 -21t-24 -71v-18z" />
    <glyph glyph-name="sixinferior" unicode="&#x2086;" horiz-adv-x="350" 
d="M201 254q25 0 48 -6t40.5 -19.5t27.5 -36.5t10 -57v-4q0 -37 -11.5 -62.5t-31.5 -41.5t-47.5 -23t-58.5 -7t-58.5 7t-48 22t-32.5 39.5t-12 59.5v149q0 37 12 63t33 42t49.5 23t61.5 7q39 0 66.5 -10.5t45 -26t25 -34.5t7.5 -36q0 -23 -11 -31.5t-36 -8.5q-20 0 -36 6.5
t-16 29.5q0 13 -14 18.5t-34 5.5q-52 0 -52 -48v-41q14 14 33 17.5t40 3.5zM128 125q0 -26 13 -37t37 -11q49 0 49 47v4q0 27 -13 38.5t-37 11.5q-23 0 -36 -10.5t-13 -34.5v-8z" />
    <glyph glyph-name="sixsuperior" unicode="&#x2076;" horiz-adv-x="351" 
d="M202 576q25 0 48 -6t40.5 -19.5t27.5 -36.5t10 -57v-4q0 -37 -11.5 -62.5t-31.5 -41.5t-47.5 -23t-58.5 -7t-58.5 7t-48 22t-32.5 39.5t-12 59.5v149q0 37 12 63t33 42t49.5 23t61.5 7q39 0 66.5 -10.5t45 -26t25 -34.5t7.5 -36q0 -23 -11 -31.5t-36 -8.5q-20 0 -36 6.5
t-16 29.5q0 13 -14 18.5t-34 5.5q-52 0 -52 -48v-41q14 14 33 17.5t40 3.5zM129 447q0 -26 13 -37t37 -11q49 0 49 47v4q0 27 -13 38.5t-37 11.5q-23 0 -36 -10.5t-13 -34.5v-8z" />
    <glyph glyph-name="slash" unicode="/" horiz-adv-x="491" 
d="M415 772q21 0 40 -14.5t19 -38.5q0 -11 -4 -19l-352 -721q-5 -11 -18 -18t-27 -7q-26 0 -41 17t-15 36q0 9 5 19l351 721q6 13 17 19t25 6z" />
    <glyph glyph-name="space" unicode=" " horiz-adv-x="200" 
 />
    <glyph glyph-name="sterling" unicode="&#xa3;" horiz-adv-x="565" 
d="M489 136q23 0 34 -21t11 -47t-11 -47t-34 -21h-424q-23 0 -34 21t-11 47t11 47t34 21h50l32 230h-47q-19 0 -28.5 17t-9.5 38q0 20 9.5 37.5t28.5 17.5h63l10 69q7 49 31.5 90.5t61 70.5t82 45.5t94.5 16.5h42q24 0 37 -21t13 -46t-13 -46.5t-37 -21.5h-47q-54 0 -79 -25
t-30 -63l-10 -69h107q19 0 28.5 -17.5t9.5 -37.5q0 -21 -9.5 -38t-28.5 -17h-123l-33 -230h220z" />
    <glyph glyph-name="summation" unicode="&#x2211;" horiz-adv-x="540" 
d="M41 608q-6 11 -12 29t-6 36q0 23 13.5 40.5t51.5 17.5h383q23 0 35 -22t12 -46t-12 -46t-35 -22h-257l132 -230q19 -33 32 -60.5t13 -52.5t-13 -52.5t-32 -60.5l-132 -230h257q23 0 35 -22t12 -46t-12 -46t-35 -22h-383q-38 0 -51.5 17.5t-13.5 40.5q0 18 6 36t12 29
l196 356z" />
    <glyph glyph-name="t" unicode="t" horiz-adv-x="364" 
d="M198 169q0 -22 9 -30.5t32 -8.5h43q34 0 50 -20.5t16 -44.5q0 -25 -16 -45t-50 -20h-43q-96 0 -146 40t-50 129v467q0 10 7 19t18 15t24.5 9.5t27.5 3.5q15 0 29 -3.5t25 -9.5t17.5 -15t6.5 -19v-160h113q19 0 28.5 -17.5t9.5 -37.5q0 -21 -9.5 -38t-28.5 -17h-113v-197z
" />
    <glyph glyph-name="tbar" unicode="&#x167;" horiz-adv-x="366" 
d="M198 304h113q19 0 28.5 -17.5t9.5 -37.5q0 -22 -9.5 -38.5t-28.5 -16.5h-113v-25q0 -22 9 -30.5t32 -8.5h43q34 0 50 -20.5t16 -44.5q0 -25 -16 -45t-50 -20h-43q-96 0 -146 40t-50 129v467q0 10 7 19t18 15t24.5 9.5t27.5 3.5q15 0 29 -3.5t25 -9.5t17.5 -15t6.5 -19
v-160h113q19 0 28.5 -17.5t9.5 -37.5q0 -21 -9.5 -38t-28.5 -17h-113v-62z" />
    <glyph glyph-name="tcaron" unicode="&#x165;" horiz-adv-x="364" 
d="M198 169q0 -22 9 -30.5t32 -8.5h43q34 0 50 -20.5t16 -44.5q0 -25 -16 -45t-50 -20h-43q-96 0 -146 40t-50 129v467q0 10 7 19t18 15t24.5 9.5t27.5 3.5q15 0 29 -3.5t25 -9.5t17.5 -15t6.5 -19v-160h113q19 0 28.5 -17.5t9.5 -37.5q0 -21 -9.5 -38t-28.5 -17h-113v-197z
M307 768q32 0 54.5 -22.5t22.5 -53.5q0 -5 -1.5 -11t-7.5 -22t-18.5 -46t-34.5 -81q-5 -11 -13.5 -14.5t-16.5 -3.5q-16 0 -33 10t-17 29q0 8 4 16l25 54q-18 11 -29 28.5t-11 39.5q0 32 22 54.5t54 22.5z" />
    <glyph glyph-name="tcommaaccent" unicode="&#x163;" horiz-adv-x="364" 
d="M198 169q0 -22 9 -30.5t32 -8.5h43q34 0 50 -20.5t16 -44.5q0 -25 -16 -45t-50 -20h-43q-96 0 -146 40t-50 129v467q0 10 7 19t18 15t24.5 9.5t27.5 3.5q15 0 29 -3.5t25 -9.5t17.5 -15t6.5 -19v-160h113q19 0 28.5 -17.5t9.5 -37.5q0 -21 -9.5 -38t-28.5 -17h-113v-197z
M128 -205q-10 -4 -15 -4q-20 0 -33 19t-13 39q0 25 20 35l140 65q7 3 14 3q10 0 18.5 -5.5t15 -14t10 -18.5t3.5 -20q0 -11 -4.5 -20t-15.5 -14z" />
    <glyph glyph-name="thorn" unicode="&#xfe;" horiz-adv-x="533" 
d="M120 748q35 0 58 -13t23 -34v-295q16 29 48.5 52.5t76.5 23.5q38 0 70.5 -16.5t56.5 -45t38 -67t14 -81.5v-70q0 -42 -14 -80t-38 -67.5t-55.5 -47t-66.5 -17.5q-22 0 -42.5 6.5t-37.5 18t-30 26t-20 29.5v-239q0 -18 -23 -33t-56 -15t-54.5 15t-21.5 33v870
q0 21 21.5 34t52.5 13zM350 272q0 29 -22 52t-54 23q-27 0 -50 -20t-23 -55v-83q0 -6 5.5 -17t15.5 -21.5t23.5 -18t30.5 -7.5q15 0 28 6.5t23.5 17.5t16.5 24.5t6 28.5v70z" />
    <glyph glyph-name="three" unicode="3" horiz-adv-x="534" 
d="M259 130q51 0 71.5 20.5t20.5 69.5v19q0 25 -7.5 40.5t-20 24.5t-30 12t-38.5 3q-26 0 -35.5 18.5t-9.5 41.5t9.5 41.5t35.5 18.5q14 0 28 2t25 10.5t18 26t7 47.5q0 43 -21.5 57.5t-52.5 14.5q-37 0 -55.5 -11t-18.5 -40q0 -26 -14.5 -41.5t-58.5 -15.5q-27 0 -43 3
t-24.5 10.5t-11 19.5t-2.5 30q0 29 11.5 60.5t38 58t70 43.5t108.5 17q48 0 88.5 -9.5t70.5 -30.5t47 -55.5t17 -85.5q0 -27 -5 -53t-15 -48t-24 -38t-33 -25q45 -17 73.5 -51.5t28.5 -95.5v-19q0 -62 -20 -105t-54 -70t-80.5 -39t-98.5 -12q-65 0 -110 17.5t-73.5 45.5
t-41.5 61t-13 65q0 34 16 45.5t58 11.5q48 0 64 -11.5t16 -40.5q0 -18 7.5 -29t20 -17.5t28.5 -9t33 -2.5z" />
    <glyph glyph-name="threeeighths" unicode="&#x215c;" horiz-adv-x="811" 
d="M639 409q60 0 97.5 -24t37.5 -76q0 -35 -17 -56t-44 -29q35 -11 55 -36.5t20 -68.5v-7q0 -31 -11.5 -53t-31.5 -35.5t-47.5 -20t-58.5 -6.5q-32 0 -59.5 6.5t-48 20t-32 35.5t-11.5 53v7q0 43 20.5 68.5t55.5 36.5q-27 8 -44 29t-17 56q0 52 38 76t98 24zM688 138
q0 45 -49 45q-50 0 -50 -45v-13q0 -26 13 -37.5t36 -11.5q50 0 50 49v13zM639 330q-39 0 -39 -34q0 -18 10 -25.5t29 -7.5q18 0 28 7.5t10 25.5q0 34 -38 34zM583 772q21 0 40 -14.5t19 -38.5q0 -11 -4 -19l-352 -721q-5 -11 -18 -18t-27 -7q-26 0 -41 17t-15 36q0 9 5 19
l351 721q6 13 17 19t25 6zM171 406q29 0 40 9t11 32v11q0 25 -16 31t-38 6q-17 0 -23 12t-6 26t6 26t23 13q7 0 14.5 1t14 5t10.5 12t4 23q0 22 -12 27.5t-29 5.5q-19 0 -29.5 -2.5t-10.5 -18.5t-9 -25.5t-38 -9.5q-35 0 -43.5 8t-8.5 30q0 18 7 36.5t23.5 33t43 24
t65.5 9.5q29 0 54 -5t43.5 -17t29 -31.5t10.5 -48.5t-11.5 -55t-34.5 -36q27 -9 44 -28t17 -52v-11q0 -35 -12 -59.5t-33 -39.5t-49.5 -22t-60.5 -7q-39 0 -67 10.5t-45 26t-25 35t-8 37.5q0 21 10.5 28t37.5 7q31 0 41 -7t10 -25q0 -9 4.5 -14.5t12 -7.5t16.5 -2.5t17 -0.5
z" />
    <glyph glyph-name="threeinferior" unicode="&#x2083;" horiz-adv-x="336" 
d="M164 84q29 0 40 9t11 32v11q0 25 -16 31t-38 6q-17 0 -23 12t-6 26t6 26t23 13q7 0 14.5 1t14 5t10.5 12t4 23q0 22 -12 27.5t-29 5.5q-19 0 -29.5 -2.5t-10.5 -18.5t-9 -25.5t-38 -9.5q-35 0 -43.5 8t-8.5 30q0 18 7 36.5t23.5 33t43 24t65.5 9.5q29 0 54 -5t43.5 -17
t29 -31.5t10.5 -48.5t-11.5 -55t-34.5 -36q27 -9 44 -28t17 -52v-11q0 -35 -12 -59.5t-33 -39.5t-49.5 -22t-60.5 -7q-39 0 -67 10.5t-45 26t-25 35t-8 37.5q0 21 10.5 28t37.5 7q31 0 41 -7t10 -25q0 -9 4.5 -14.5t12 -7.5t16.5 -2.5t17 -0.5z" />
    <glyph glyph-name="threequarters" unicode="&#xbe;" horiz-adv-x="826" 
d="M176 406q29 0 40 9t11 32v11q0 25 -16 31t-38 6q-17 0 -23 12t-6 26t6 26t23 13q7 0 14.5 1t14 5t10.5 12t4 23q0 22 -12 27.5t-29 5.5q-19 0 -29.5 -2.5t-10.5 -18.5t-9 -25.5t-38 -9.5q-35 0 -43.5 8t-8.5 30q0 18 7 36.5t23.5 33t43 24t65.5 9.5q29 0 54 -5t43.5 -17
t29 -31.5t10.5 -48.5t-11.5 -55t-34.5 -36q27 -9 44 -28t17 -52v-11q0 -35 -12 -59.5t-33 -39.5t-49.5 -22t-60.5 -7q-39 0 -67 10.5t-45 26t-25 35t-8 37.5q0 21 10.5 28t37.5 7q31 0 41 -7t10 -25q0 -9 4.5 -14.5t12 -7.5t16.5 -2.5t17 -0.5zM652 84h-139q-14 0 -23.5 8.5
t-9.5 25.5q0 9 5 18l137 248q8 14 19 19.5t23 5.5q6 0 15 -2.5t16.5 -7.5t13 -11.5t5.5 -15.5q0 -6 -3 -12l-102 -184h43v21q0 16 15.5 23t34.5 7q20 0 35.5 -7t15.5 -23v-21h25q15 0 22.5 -14.5t7.5 -31.5t-9.5 -31.5t-20.5 -14.5h-25v-54q0 -15 -15.5 -22.5t-35.5 -7.5
q-19 0 -34.5 7.5t-15.5 22.5v54zM608 772q21 0 40 -14.5t19 -38.5q0 -11 -4 -19l-352 -721q-5 -11 -18 -18t-27 -7q-26 0 -41 17t-15 36q0 9 5 19l351 721q6 13 17 19t25 6z" />
    <glyph glyph-name="threesuperior" unicode="&#xb3;" horiz-adv-x="336" 
d="M164 406q29 0 40 9t11 32v11q0 25 -16 31t-38 6q-17 0 -23 12t-6 26t6 26t23 13q7 0 14.5 1t14 5t10.5 12t4 23q0 22 -12 27.5t-29 5.5q-19 0 -29.5 -2.5t-10.5 -18.5t-9 -25.5t-38 -9.5q-35 0 -43.5 8t-8.5 30q0 18 7 36.5t23.5 33t43 24t65.5 9.5q29 0 54 -5t43.5 -17
t29 -31.5t10.5 -48.5t-11.5 -55t-34.5 -36q27 -9 44 -28t17 -52v-11q0 -35 -12 -59.5t-33 -39.5t-49.5 -22t-60.5 -7q-39 0 -67 10.5t-45 26t-25 35t-8 37.5q0 21 10.5 28t37.5 7q31 0 41 -7t10 -25q0 -9 4.5 -14.5t12 -7.5t16.5 -2.5t17 -0.5z" />
    <glyph glyph-name="tilde" unicode="&#x2dc;" horiz-adv-x="355" 
d="M124 606q-16 0 -28 -3.5t-22 -7t-18.5 -7t-17.5 -3.5q-12 0 -19 6t-11.5 14.5t-6 16.5t-1.5 12q0 27 10.5 41.5t25 21.5t28.5 8.5t21 1.5q23 0 41 -4t34.5 -9.5t33 -9.5t37.5 -4q16 0 28 3.5t22 7t18.5 7t17.5 3.5q12 0 19 -6.5t11.5 -14.5t6 -16t1.5 -12
q0 -27 -10.5 -41.5t-25 -21.5t-28.5 -8.5t-21 -1.5q-27 0 -46 4t-35.5 9.5t-31.5 9.5t-33 4z" />
    <glyph glyph-name="trademark" unicode="&#x2122;" horiz-adv-x="693" 
d="M288 768q13 0 18.5 -11.5t5.5 -25.5q0 -15 -6.5 -26.5t-17.5 -11.5h-72v-191q0 -13 -12.5 -19.5t-27.5 -6.5q-16 0 -28.5 6.5t-12.5 19.5v191h-72q-11 0 -17.5 11.5t-6.5 26.5q0 14 5.5 25.5t18.5 11.5h225zM511 505q-5 -9 -11.5 -12.5t-14.5 -3.5t-14.5 3t-11.5 13
l-49 103v-106q0 -13 -13 -19.5t-28 -6.5t-27.5 6.5t-12.5 19.5v225q0 23 12.5 32t27.5 9q11 0 19 -1t15 -5.5t13.5 -12.5t14.5 -23l55 -107l54 107q7 15 14 23t14 12.5t15 5.5t19 1q16 0 28 -9t12 -32v-225q0 -13 -12.5 -19.5t-27.5 -6.5t-27.5 6.5t-12.5 19.5v102z" />
    <glyph glyph-name="two" unicode="2" horiz-adv-x="517" 
d="M35 539q0 46 19.5 81.5t51 60t72 37.5t83.5 13t85 -13.5t75 -40t53 -65t20 -88.5q0 -54 -23 -97t-57 -77.5t-74.5 -62t-74.5 -52t-57 -46t-23 -44.5v-9h262q19 0 33 -20t14 -47t-14 -48t-33 -21h-356q-11 0 -22.5 3.5t-22 9.5t-17 15t-6.5 20v97q0 39 23.5 73.5t58.5 65
t75.5 59.5t75.5 57.5t58.5 57.5t23.5 61q0 12 -4 24.5t-13 23t-23.5 17t-35.5 6.5q-30 0 -52.5 -16.5t-22.5 -58.5q0 -22 -22 -39.5t-60 -17.5q-30 0 -50 17t-20 64z" />
    <glyph glyph-name="twoinferior" unicode="&#x2082;" horiz-adv-x="326" 
d="M26 298q0 27 12 47.5t31.5 35t44 21.5t50.5 7t51.5 -7.5t46 -22t33 -36.5t12.5 -52q0 -29 -13.5 -52.5t-34 -42t-44 -33.5t-44 -27.5t-34 -23.5t-13.5 -21v-4h152q12 0 21 -13t9 -30t-9 -30.5t-21 -13.5h-213q-14 0 -29 8t-15 22v55q0 22 14 40.5t34.5 36t45 33.5t45 31
t34.5 30.5t14 31.5q0 10 -9 20.5t-32 10.5q-17 0 -29 -8t-12 -28q0 -14 -14 -25t-39 -11q-20 0 -32.5 10.5t-12.5 40.5z" />
    <glyph glyph-name="twosuperior" unicode="&#xb2;" horiz-adv-x="326" 
d="M26 620q0 27 12 47.5t31.5 35t44 21.5t50.5 7t51.5 -7.5t46 -22t33 -36.5t12.5 -52q0 -29 -13.5 -52.5t-34 -42t-44 -33.5t-44 -27.5t-34 -23.5t-13.5 -21v-4h152q12 0 21 -13t9 -30t-9 -30.5t-21 -13.5h-213q-14 0 -29 8t-15 22v55q0 21 14 40t34.5 36.5t45 33.5t45 31
t34.5 30.5t14 31.5q0 10 -9 20.5t-32 10.5q-17 0 -29 -8t-12 -28q0 -14 -14 -25t-39 -11q-20 0 -32.5 10.5t-12.5 40.5z" />
    <glyph glyph-name="twothirds" unicode="&#x2154;" horiz-adv-x="805" 
d="M32 620q0 27 12 47.5t31.5 35t44 21.5t50.5 7t51.5 -7.5t46 -22t33 -36.5t12.5 -52q0 -29 -13.5 -52.5t-34 -42t-44 -33.5t-44 -27.5t-34 -23.5t-13.5 -21v-4h152q12 0 21 -13t9 -30t-9 -30.5t-21 -13.5h-213q-14 0 -29 8t-15 22v55q0 21 14 40t34.5 36.5t45 33.5t45 31
t34.5 30.5t14 31.5q0 10 -9 20.5t-32 10.5q-17 0 -29 -8t-12 -28q0 -14 -14 -25t-39 -11q-20 0 -32.5 10.5t-12.5 40.5zM632 84q29 0 40 9t11 32v11q0 25 -16 31t-38 6q-17 0 -23 12t-6 26t6 26t23 13q7 0 14.5 1t14 5t10.5 12t4 23q0 22 -12 27.5t-29 5.5q-19 0 -29.5 -2.5
t-10.5 -18.5t-9 -25.5t-38 -9.5q-35 0 -43.5 8t-8.5 30q0 18 7 36.5t23.5 33t43 24t65.5 9.5q29 0 54 -5t43.5 -17t29 -31.5t10.5 -48.5t-11.5 -55t-34.5 -36q27 -9 44 -28t17 -52v-11q0 -35 -12 -59.5t-33 -39.5t-49.5 -22t-60.5 -7q-39 0 -67 10.5t-45 26t-25 35t-8 37.5
q0 21 10.5 28t37.5 7q31 0 41 -7t10 -25q0 -9 4.5 -14.5t12 -7.5t16.5 -2.5t17 -0.5zM585 772q21 0 40 -14.5t19 -38.5q0 -11 -4 -19l-352 -721q-5 -11 -18 -18t-27 -7q-26 0 -41 17t-15 36q0 9 5 19l351 721q6 13 17 19t25 6z" />
    <glyph glyph-name="u" unicode="u" horiz-adv-x="535" 
d="M268 -10q-47 0 -88.5 17t-72.5 46t-49 67t-18 80v228q0 18 23 33t55 15q31 0 54 -15t23 -33v-228q0 -14 6 -27.5t15.5 -24t23 -17t28.5 -6.5t28 6.5t23 17t15.5 24t5.5 27.5v229q0 19 23 33t55 14q34 0 55.5 -14t21.5 -33v-229q0 -42 -18 -80t-49 -67t-72.5 -46
t-87.5 -17z" />
    <glyph glyph-name="u.ss04" horiz-adv-x="540" 
d="M214 -10q-35 0 -66.5 17.5t-55.5 47t-38 67.5t-14 80v227q0 21 23 34t56 13t54.5 -13t21.5 -34v-227q0 -15 5.5 -28.5t15.5 -24.5t23 -17.5t28 -6.5t28.5 7.5t23.5 18t15.5 21.5t5.5 17v240q0 21 23 34t56 13t54.5 -13t21.5 -34v-381q0 -18 -21.5 -33t-54.5 -15
q-29 0 -49 15t-20 33v22q-7 -15 -20.5 -29.5t-31.5 -26t-39.5 -18t-44.5 -6.5z" />
    <glyph glyph-name="uacute" unicode="&#xfa;" horiz-adv-x="535" 
d="M268 -10q-47 0 -88.5 17t-72.5 46t-49 67t-18 80v228q0 18 23 33t55 15q31 0 54 -15t23 -33v-228q0 -14 6 -27.5t15.5 -24t23 -17t28.5 -6.5t28 6.5t23 17t15.5 24t5.5 27.5v229q0 19 23 33t55 14q34 0 55.5 -14t21.5 -33v-229q0 -42 -18 -80t-49 -67t-72.5 -46
t-87.5 -17zM232 563q-10 -4 -15 -4q-20 0 -33 19t-13 39q0 25 20 35l140 65q7 3 14 3q10 0 18.5 -5.5t15 -14t10 -18.5t3.5 -20q0 -11 -4.5 -20t-15.5 -14z" />
    <glyph glyph-name="ubreve" unicode="&#x16d;" horiz-adv-x="535" 
d="M268 -10q-47 0 -88.5 17t-72.5 46t-49 67t-18 80v228q0 18 23 33t55 15q31 0 54 -15t23 -33v-228q0 -14 6 -27.5t15.5 -24t23 -17t28.5 -6.5t28 6.5t23 17t15.5 24t5.5 27.5v229q0 19 23 33t55 14q34 0 55.5 -14t21.5 -33v-229q0 -42 -18 -80t-49 -67t-72.5 -46
t-87.5 -17zM409 724q0 -28 -11.5 -53t-31 -44t-44.5 -30.5t-52 -11.5t-52.5 11.5t-45 30.5t-31 44t-11.5 53h80q0 -32 19 -52.5t41 -20.5q21 0 40 20.5t19 52.5h80z" />
    <glyph glyph-name="ucircumflex" unicode="&#xfb;" horiz-adv-x="535" 
d="M268 -10q-47 0 -88.5 17t-72.5 46t-49 67t-18 80v228q0 18 23 33t55 15q31 0 54 -15t23 -33v-228q0 -14 6 -27.5t15.5 -24t23 -17t28.5 -6.5t28 6.5t23 17t15.5 24t5.5 27.5v229q0 19 23 33t55 14q34 0 55.5 -14t21.5 -33v-229q0 -42 -18 -80t-49 -67t-72.5 -46
t-87.5 -17zM165 572q-6 -3 -11 -3q-14 0 -22.5 14.5t-8.5 31.5q0 13 5.5 24.5t19.5 19.5l104 56q10 5 17 5t17 -5l104 -56q14 -8 19.5 -19.5t5.5 -24.5q0 -17 -8.5 -31.5t-22.5 -14.5q-5 0 -11 3l-104 56z" />
    <glyph glyph-name="udieresis" unicode="&#xfc;" horiz-adv-x="535" 
d="M268 -10q-47 0 -88.5 17t-72.5 46t-49 67t-18 80v228q0 18 23 33t55 15q31 0 54 -15t23 -33v-228q0 -14 6 -27.5t15.5 -24t23 -17t28.5 -6.5t28 6.5t23 17t15.5 24t5.5 27.5v229q0 19 23 33t55 14q34 0 55.5 -14t21.5 -33v-229q0 -42 -18 -80t-49 -67t-72.5 -46
t-87.5 -17zM189 688q23 0 39.5 -17.5t16.5 -40.5t-16.5 -41t-39.5 -18t-40 18t-17 41t17 40.5t40 17.5zM349 688q23 0 39.5 -17.5t16.5 -40.5t-16.5 -41t-39.5 -18t-40 18t-17 41t17 40.5t40 17.5z" />
    <glyph glyph-name="ugrave" unicode="&#xf9;" horiz-adv-x="535" 
d="M268 -10q-47 0 -88.5 17t-72.5 46t-49 67t-18 80v228q0 18 23 33t55 15q31 0 54 -15t23 -33v-228q0 -14 6 -27.5t15.5 -24t23 -17t28.5 -6.5t28 6.5t23 17t15.5 24t5.5 27.5v229q0 19 23 33t55 14q34 0 55.5 -14t21.5 -33v-229q0 -42 -18 -80t-49 -67t-72.5 -46
t-87.5 -17zM161 628q-11 5 -15.5 14t-4.5 20q0 10 3.5 20t10 18.5t15 14t18.5 5.5q6 0 14 -3l140 -65q20 -10 20 -35q0 -20 -13 -39t-33 -19q-5 0 -15 4z" />
    <glyph glyph-name="uhungarumlaut" unicode="&#x171;" horiz-adv-x="535" 
d="M268 -10q-47 0 -88.5 17t-72.5 46t-49 67t-18 80v228q0 18 23 33t55 15q31 0 54 -15t23 -33v-228q0 -14 6 -27.5t15.5 -24t23 -17t28.5 -6.5t28 6.5t23 17t15.5 24t5.5 27.5v229q0 19 23 33t55 14q34 0 55.5 -14t21.5 -33v-229q0 -42 -18 -80t-49 -67t-72.5 -46
t-87.5 -17zM204 567q-8 -11 -21 -11q-17 0 -31.5 14.5t-14.5 29.5q0 9 7 17l79 95q5 6 10.5 8t11.5 2q16 0 30 -14.5t14 -28.5q0 -10 -6 -17zM364 567q-8 -11 -21 -11q-17 0 -31.5 14.5t-14.5 29.5q0 9 7 17l79 95q5 6 10.5 8t11.5 2q16 0 30 -14.5t14 -28.5q0 -10 -6 -17z
" />
    <glyph glyph-name="umacron" unicode="&#x16b;" horiz-adv-x="535" 
d="M268 -10q-47 0 -88.5 17t-72.5 46t-49 67t-18 80v228q0 18 23 33t55 15q31 0 54 -15t23 -33v-228q0 -14 6 -27.5t15.5 -24t23 -17t28.5 -6.5t28 6.5t23 17t15.5 24t5.5 27.5v229q0 19 23 33t55 14q34 0 55.5 -14t21.5 -33v-229q0 -42 -18 -80t-49 -67t-72.5 -46
t-87.5 -17zM123 649q0 21 13 35.5t34 14.5h200q18 0 33 -14.5t15 -35.5q0 -22 -15 -35.5t-33 -13.5h-200q-21 0 -34 13.5t-13 35.5z" />
    <glyph glyph-name="underscore" unicode="_" horiz-adv-x="306" 
d="M-54 -64q0 27 13 45.5t34 18.5h320q18 0 33 -18.5t15 -45.5q0 -29 -15 -46t-33 -17h-320q-21 0 -34 17t-13 46z" />
    <glyph glyph-name="uni00A0" unicode="&#xa0;" horiz-adv-x="200" 
 />
    <glyph glyph-name="uni00AD" unicode="&#xad;" horiz-adv-x="476" 
d="M31 240q0 27 13 45.5t34 18.5h320q18 0 33 -18.5t15 -45.5q0 -29 -15 -46t-33 -17h-320q-21 0 -34 17t-13 46z" />
    <glyph glyph-name="uogonek" unicode="&#x173;" horiz-adv-x="535" 
d="M338 -155q14 0 19.5 -11.5t5.5 -22.5t-5.5 -20t-25.5 -9q-66 0 -95.5 28.5t-29.5 68.5q0 28 13 57t36 54q-45 2 -84.5 20t-68.5 46.5t-46 65.5t-17 78v228q0 18 23 33t55 15q31 0 54 -15t23 -33v-228q0 -14 6 -27.5t15.5 -24t23 -17t28.5 -6.5t28 6.5t23 17t15.5 24
t5.5 27.5v229q0 19 23 33t55 14q34 0 55.5 -14t21.5 -33v-229q0 -32 -10.5 -61.5t-29 -55t-44 -45.5t-56.5 -32q-32 -19 -53.5 -51.5t-21.5 -61.5q0 -21 13 -34.5t45 -13.5z" />
    <glyph glyph-name="uring" unicode="&#x16f;" horiz-adv-x="535" 
d="M268 -10q-47 0 -88.5 17t-72.5 46t-49 67t-18 80v228q0 18 23 33t55 15q31 0 54 -15t23 -33v-228q0 -14 6 -27.5t15.5 -24t23 -17t28.5 -6.5t28 6.5t23 17t15.5 24t5.5 27.5v229q0 19 23 33t55 14q34 0 55.5 -14t21.5 -33v-229q0 -42 -18 -80t-49 -67t-72.5 -46
t-87.5 -17zM266 769q20 0 38.5 -8.5t32.5 -22.5t22 -32t8 -38t-8.5 -39t-22.5 -33t-32 -22.5t-38 -8.5t-38 8.5t-31.5 22.5t-21.5 33t-8 39q0 19 7.5 37.5t21 32.5t31.5 22.5t39 8.5zM306 667q0 15 -11 27t-28 12t-29 -12.5t-12 -26.5q0 -15 12 -28.5t29 -13.5t28 13t11 29z
" />
    <glyph glyph-name="utilde" unicode="&#x169;" horiz-adv-x="535" 
d="M268 -10q-47 0 -88.5 17t-72.5 46t-49 67t-18 80v228q0 18 23 33t55 15q31 0 54 -15t23 -33v-228q0 -14 6 -27.5t15.5 -24t23 -17t28.5 -6.5t28 6.5t23 17t15.5 24t5.5 27.5v229q0 19 23 33t55 14q34 0 55.5 -14t21.5 -33v-229q0 -42 -18 -80t-49 -67t-72.5 -46
t-87.5 -17zM215 606q-16 0 -28 -3.5t-22 -7t-18.5 -7t-17.5 -3.5q-12 0 -19 6t-11.5 14.5t-6 16.5t-1.5 12q0 27 10.5 41.5t25 21.5t28.5 8.5t21 1.5q23 0 41 -4t34.5 -9.5t33 -9.5t37.5 -4q16 0 28 3.5t22 7t18.5 7t17.5 3.5q12 0 19 -6.5t11.5 -14.5t6 -16t1.5 -12
q0 -27 -10.5 -41.5t-25 -21.5t-28.5 -8.5t-21 -1.5q-27 0 -46 4t-35.5 9.5t-31.5 9.5t-33 4z" />
    <glyph glyph-name="v" unicode="v" horiz-adv-x="503" 
d="M6 399q-2 4 -3.5 9.5t-1.5 9.5q0 13 11 25t26.5 21t34 14t33.5 5q14 0 26 -5.5t17 -19.5l103 -261l103 261q5 14 16.5 19.5t25.5 5.5q12 0 30 -5.5t34.5 -14.5t28.5 -21t12 -25q0 -9 -4 -18l-176 -385q-6 -14 -26.5 -20.5t-43.5 -6.5t-43.5 6.5t-26.5 20.5z" />
    <glyph glyph-name="w" unicode="w" horiz-adv-x="702" 
d="M541 14q-6 -15 -23 -21t-37 -6q-23 0 -41 7t-23 20l-66 174l-66 -174q-5 -13 -23.5 -20t-41.5 -7q-19 0 -36 6t-23 21l-154 385q-3 8 -4 12t-1 9q0 13 10.5 24.5t25.5 20t33 13t33 4.5t26.5 -5.5t16.5 -18.5l89 -254l64 215q6 20 20 25t31 5t31 -5t20 -25l64 -215l89 254
q8 24 42 24q14 0 32 -4.5t33.5 -13t26 -20.5t10.5 -26q0 -11 -4 -19z" />
    <glyph glyph-name="wacute" unicode="&#x1e83;" horiz-adv-x="702" 
d="M541 14q-6 -15 -23 -21t-37 -6q-23 0 -41 7t-23 20l-66 174l-66 -174q-5 -13 -23.5 -20t-41.5 -7q-19 0 -36 6t-23 21l-154 385q-3 8 -4 12t-1 9q0 13 10.5 24.5t25.5 20t33 13t33 4.5t26.5 -5.5t16.5 -18.5l89 -254l64 215q6 20 20 25t31 5t31 -5t20 -25l64 -215l89 254
q8 24 42 24q14 0 32 -4.5t33.5 -13t26 -20.5t10.5 -26q0 -11 -4 -19zM331 563q-10 -4 -15 -4q-20 0 -33 19t-13 39q0 25 20 35l140 65q7 3 14 3q10 0 18.5 -5.5t15 -14t10 -18.5t3.5 -20q0 -11 -4.5 -20t-15.5 -14z" />
    <glyph glyph-name="wcircumflex" unicode="&#x175;" horiz-adv-x="702" 
d="M541 14q-6 -15 -23 -21t-37 -6q-23 0 -41 7t-23 20l-66 174l-66 -174q-5 -13 -23.5 -20t-41.5 -7q-19 0 -36 6t-23 21l-154 385q-3 8 -4 12t-1 9q0 13 10.5 24.5t25.5 20t33 13t33 4.5t26.5 -5.5t16.5 -18.5l89 -254l64 215q6 20 20 25t31 5t31 -5t20 -25l64 -215l89 254
q8 24 42 24q14 0 32 -4.5t33.5 -13t26 -20.5t10.5 -26q0 -11 -4 -19zM247 572q-6 -3 -11 -3q-14 0 -22.5 14.5t-8.5 31.5q0 13 5.5 24.5t19.5 19.5l104 56q10 5 17 5t17 -5l104 -56q14 -8 19.5 -19.5t5.5 -24.5q0 -17 -8.5 -31.5t-22.5 -14.5q-5 0 -11 3l-104 56z" />
    <glyph glyph-name="wdieresis" unicode="&#x1e85;" horiz-adv-x="702" 
d="M541 14q-6 -15 -23 -21t-37 -6q-23 0 -41 7t-23 20l-66 174l-66 -174q-5 -13 -23.5 -20t-41.5 -7q-19 0 -36 6t-23 21l-154 385q-3 8 -4 12t-1 9q0 13 10.5 24.5t25.5 20t33 13t33 4.5t26.5 -5.5t16.5 -18.5l89 -254l64 215q6 20 20 25t31 5t31 -5t20 -25l64 -215l89 254
q8 24 42 24q14 0 32 -4.5t33.5 -13t26 -20.5t10.5 -26q0 -11 -4 -19zM272 688q23 0 39.5 -17.5t16.5 -40.5t-16.5 -41t-39.5 -18t-40 18t-17 41t17 40.5t40 17.5zM432 688q23 0 39.5 -17.5t16.5 -40.5t-16.5 -41t-39.5 -18t-40 18t-17 41t17 40.5t40 17.5z" />
    <glyph glyph-name="wgrave" unicode="&#x1e81;" horiz-adv-x="702" 
d="M541 14q-6 -15 -23 -21t-37 -6q-23 0 -41 7t-23 20l-66 174l-66 -174q-5 -13 -23.5 -20t-41.5 -7q-19 0 -36 6t-23 21l-154 385q-3 8 -4 12t-1 9q0 13 10.5 24.5t25.5 20t33 13t33 4.5t26.5 -5.5t16.5 -18.5l89 -254l64 215q6 20 20 25t31 5t31 -5t20 -25l64 -215l89 254
q8 24 42 24q14 0 32 -4.5t33.5 -13t26 -20.5t10.5 -26q0 -11 -4 -19zM230 628q-11 5 -15.5 14t-4.5 20q0 10 3.5 20t10 18.5t15 14t18.5 5.5q6 0 14 -3l140 -65q20 -10 20 -35q0 -20 -13 -39t-33 -19q-5 0 -15 4z" />
    <glyph glyph-name="x" unicode="x" horiz-adv-x="493" 
d="M18 67q0 7 2.5 14t6.5 12l113 150l-102 136q-3 4 -6.5 10.5t-3.5 14.5q0 13 11 27t26.5 25t34 18.5t33.5 7.5q5 0 15.5 -2.5t17.5 -13.5l80 -131l81 130q6 10 16.5 13.5t18.5 3.5q13 0 31 -7.5t34 -18.5t27 -25t11 -27q0 -11 -10 -25l-103 -137l114 -149q3 -4 6 -11
t3 -15q0 -12 -10 -26t-25.5 -25t-33.5 -18.5t-33 -7.5q-9 0 -19 3.5t-16 12.5l-92 138l-91 -138q-6 -8 -17.5 -12t-19.5 -4q-12 0 -29 7t-33 18t-27 24.5t-11 27.5z" />
    <glyph glyph-name="y" unicode="y" 
d="M6 389q-5 10 -5 20q0 15 11 28.5t26.5 23.5t34 16t33.5 6q14 0 26 -5.5t17 -19.5l113 -271l83 271q5 14 16.5 19.5t23.5 5.5q13 0 31.5 -6t35.5 -16.5t28.5 -24.5t11.5 -30q0 -10 -4 -17l-142 -354q-19 -47 -35.5 -92.5t-44 -81t-73 -57t-121.5 -21.5q-15 0 -28 2
t-22.5 9t-15 20t-5.5 35q0 26 8.5 45t29.5 19q13 0 37 2.5t47.5 14.5t40.5 38t17 73z" />
    <glyph glyph-name="yacute" unicode="&#xfd;" 
d="M6 389q-5 10 -5 20q0 15 11 28.5t26.5 23.5t34 16t33.5 6q14 0 26 -5.5t17 -19.5l113 -271l83 271q5 14 16.5 19.5t23.5 5.5q13 0 31.5 -6t35.5 -16.5t28.5 -24.5t11.5 -30q0 -10 -4 -17l-142 -354q-19 -47 -35.5 -92.5t-44 -81t-73 -57t-121.5 -21.5q-15 0 -28 2
t-22.5 9t-15 20t-5.5 35q0 26 8.5 45t29.5 19q13 0 37 2.5t47.5 14.5t40.5 38t17 73zM248 563q-10 -4 -15 -4q-20 0 -33 19t-13 39q0 25 20 35l140 65q7 3 14 3q10 0 18.5 -5.5t15 -14t10 -18.5t3.5 -20q0 -11 -4.5 -20t-15.5 -14z" />
    <glyph glyph-name="ycircumflex" unicode="&#x177;" 
d="M6 389q-5 10 -5 20q0 15 11 28.5t26.5 23.5t34 16t33.5 6q14 0 26 -5.5t17 -19.5l113 -271l83 271q5 14 16.5 19.5t23.5 5.5q13 0 31.5 -6t35.5 -16.5t28.5 -24.5t11.5 -30q0 -10 -4 -17l-142 -354q-19 -47 -35.5 -92.5t-44 -81t-73 -57t-121.5 -21.5q-15 0 -28 2
t-22.5 9t-15 20t-5.5 35q0 26 8.5 45t29.5 19q13 0 37 2.5t47.5 14.5t40.5 38t17 73zM158 572q-6 -3 -11 -3q-14 0 -22.5 14.5t-8.5 31.5q0 13 5.5 24.5t19.5 19.5l104 56q10 5 17 5t17 -5l104 -56q14 -8 19.5 -19.5t5.5 -24.5q0 -17 -8.5 -31.5t-22.5 -14.5q-5 0 -11 3
l-104 56z" />
    <glyph glyph-name="ydieresis" unicode="&#xff;" 
d="M6 389q-5 10 -5 20q0 15 11 28.5t26.5 23.5t34 16t33.5 6q14 0 26 -5.5t17 -19.5l113 -271l83 271q5 14 16.5 19.5t23.5 5.5q13 0 31.5 -6t35.5 -16.5t28.5 -24.5t11.5 -30q0 -10 -4 -17l-142 -354q-19 -47 -35.5 -92.5t-44 -81t-73 -57t-121.5 -21.5q-15 0 -28 2
t-22.5 9t-15 20t-5.5 35q0 26 8.5 45t29.5 19q13 0 37 2.5t47.5 14.5t40.5 38t17 73zM181 688q23 0 39.5 -17.5t16.5 -40.5t-16.5 -41t-39.5 -18t-40 18t-17 41t17 40.5t40 17.5zM341 688q23 0 39.5 -17.5t16.5 -40.5t-16.5 -41t-39.5 -18t-40 18t-17 41t17 40.5t40 17.5z
" />
    <glyph glyph-name="yen" unicode="&#xa5;" horiz-adv-x="587" 
d="M88 362q0 23 13 39t34 16h46l-156 239q-3 4 -4 9.5t-1 8.5q0 12 9 23.5t23 20.5t30.5 14.5t31.5 5.5q17 0 25.5 -10.5t16.5 -25.5l138 -251l137 251q8 15 16.5 25.5t25.5 10.5q15 0 31.5 -6t30.5 -15t23 -20.5t9 -21.5q0 -11 -5 -19l-156 -239h49q18 0 33 -15.5t15 -38.5
t-15 -38t-33 -15h-83v-60h83q18 0 33 -15.5t15 -38.5t-15 -38t-33 -15h-83v-95q0 -24 -24.5 -36t-53.5 -12t-53.5 12t-24.5 36v95h-81q-21 0 -34 14.5t-13 37.5t13 39t34 16h81v60h-81q-21 0 -34 14.5t-13 37.5z" />
    <glyph glyph-name="ygrave" unicode="&#x1ef3;" 
d="M6 389q-5 10 -5 20q0 15 11 28.5t26.5 23.5t34 16t33.5 6q14 0 26 -5.5t17 -19.5l113 -271l83 271q5 14 16.5 19.5t23.5 5.5q13 0 31.5 -6t35.5 -16.5t28.5 -24.5t11.5 -30q0 -10 -4 -17l-142 -354q-19 -47 -35.5 -92.5t-44 -81t-73 -57t-121.5 -21.5q-15 0 -28 2
t-22.5 9t-15 20t-5.5 35q0 26 8.5 45t29.5 19q13 0 37 2.5t47.5 14.5t40.5 38t17 73zM127 628q-11 5 -15.5 14t-4.5 20q0 10 3.5 20t10 18.5t15 14t18.5 5.5q6 0 14 -3l140 -65q20 -10 20 -35q0 -20 -13 -39t-33 -19q-5 0 -15 4z" />
    <glyph glyph-name="z" unicode="z" horiz-adv-x="448" 
d="M390 125q18 0 31 -18.5t13 -44.5q0 -25 -12 -43.5t-32 -18.5h-321q-29 0 -40 17.5t-11 36.5t8.5 35t18.5 29l177 233h-153q-18 0 -31 18.5t-13 44.5q0 25 12 43.5t32 18.5h299q19 0 33.5 -12.5t14.5 -38.5q0 -34 -25 -67l-178 -233h177z" />
    <glyph glyph-name="zacute" unicode="&#x17a;" horiz-adv-x="448" 
d="M390 125q18 0 31 -18.5t13 -44.5q0 -25 -12 -43.5t-32 -18.5h-321q-29 0 -40 17.5t-11 36.5t8.5 35t18.5 29l177 233h-153q-18 0 -31 18.5t-13 44.5q0 25 12 43.5t32 18.5h299q19 0 33.5 -12.5t14.5 -38.5q0 -34 -25 -67l-178 -233h177zM222 563q-10 -4 -15 -4
q-20 0 -33 19t-13 39q0 25 20 35l140 65q7 3 14 3q10 0 18.5 -5.5t15 -14t10 -18.5t3.5 -20q0 -11 -4.5 -20t-15.5 -14z" />
    <glyph glyph-name="zcaron" unicode="&#x17e;" horiz-adv-x="448" 
d="M390 125q18 0 31 -18.5t13 -44.5q0 -25 -12 -43.5t-32 -18.5h-321q-29 0 -40 17.5t-11 36.5t8.5 35t18.5 29l177 233h-153q-18 0 -31 18.5t-13 44.5q0 25 12 43.5t32 18.5h299q19 0 33.5 -12.5t14.5 -38.5q0 -34 -25 -67l-178 -233h177zM229 673l104 56q6 3 11 3
q14 0 22.5 -14.5t8.5 -31.5q0 -13 -5.5 -24.5t-19.5 -19.5l-104 -56q-10 -5 -17 -5t-17 5l-104 56q-14 8 -19.5 19.5t-5.5 24.5q0 17 8.5 31.5t22.5 14.5q5 0 11 -3z" />
    <glyph glyph-name="zdotaccent" unicode="&#x17c;" horiz-adv-x="448" 
d="M390 125q18 0 31 -18.5t13 -44.5q0 -25 -12 -43.5t-32 -18.5h-321q-29 0 -40 17.5t-11 36.5t8.5 35t18.5 29l177 233h-153q-18 0 -31 18.5t-13 44.5q0 25 12 43.5t32 18.5h299q19 0 33.5 -12.5t14.5 -38.5q0 -34 -25 -67l-178 -233h177zM228 688q23 0 39.5 -17.5
t16.5 -40.5t-16.5 -41t-39.5 -18t-40 18t-17 41t17 40.5t40 17.5z" />
    <glyph glyph-name="zero" unicode="0" horiz-adv-x="569" 
d="M284 -6q-52 0 -96.5 12.5t-77.5 41t-52 73t-19 109.5v265q0 64 19 109t52 73.5t77.5 41t96.5 12.5t97 -12.5t78 -41t52 -73.5t19 -109v-265q0 -65 -19 -109.5t-52 -73t-78 -41t-97 -12.5zM374 495q0 52 -24 76t-66 24t-65.5 -24t-23.5 -76v-265q0 -52 23.5 -76t65.5 -24
t66 24t24 76v265zM285 412q23 0 36.5 -13.5t13.5 -36.5t-13.5 -37t-36.5 -14q-24 0 -37.5 14t-13.5 37t13.5 36.5t37.5 13.5z" />
    <glyph glyph-name="zeroinferior" unicode="&#x2080;" horiz-adv-x="354" 
d="M177 -3q-32 0 -59.5 7t-47.5 23t-31.5 42t-11.5 63v142q0 37 11.5 63t31.5 42t47.5 23t59.5 7q31 0 58.5 -7t48 -23t32 -42t11.5 -63v-142q0 -37 -11.5 -63t-32 -42t-48 -23t-58.5 -7zM227 274q0 25 -13.5 36.5t-36.5 11.5q-49 0 -49 -48v-142q0 -48 49 -48
q23 0 36.5 11.5t13.5 36.5v142z" />
    <glyph glyph-name="zerosuperior" unicode="&#x2070;" horiz-adv-x="354" 
d="M177 319q-32 0 -59.5 7t-47.5 23t-31.5 42t-11.5 63v142q0 37 11.5 63t31.5 42t47.5 23t59.5 7q31 0 58.5 -7t48 -23t32 -42t11.5 -63v-142q0 -37 -11.5 -63t-32 -42t-48 -23t-58.5 -7zM227 596q0 25 -13.5 36.5t-36.5 11.5q-49 0 -49 -48v-142q0 -48 49 -48
q23 0 36.5 11.5t13.5 36.5v142z" />
    </font>
</defs>
</svg>
